<svg width="50" height="50" viewBox="0 0 50 50" fill="none" xmlns="http://www.w3.org/2000/svg">
<path d="M25 36.4583C27.6042 36.4583 29.8177 35.5469 31.6406 33.724C33.4635 31.901 34.375 29.6875 34.375 27.0833C34.375 24.4792 33.4635 22.2656 31.6406 20.4427C29.8177 18.6198 27.6042 17.7083 25 17.7083C22.3958 17.7083 20.1823 18.6198 18.3594 20.4427C16.5364 22.2656 15.625 24.4792 15.625 27.0833C15.625 29.6875 16.5364 31.901 18.3594 33.724C20.1823 35.5469 22.3958 36.4583 25 36.4583ZM25 32.2917C23.5417 32.2917 22.309 31.7882 21.3021 30.7813C20.2951 29.7743 19.7917 28.5417 19.7917 27.0833C19.7917 25.625 20.2951 24.3924 21.3021 23.3854C22.309 22.3785 23.5417 21.875 25 21.875C26.4583 21.875 27.691 22.3785 28.6979 23.3854C29.7049 24.3924 30.2083 25.625 30.2083 27.0833C30.2083 28.5417 29.7049 29.7743 28.6979 30.7813C27.691 31.7882 26.4583 32.2917 25 32.2917ZM8.33332 43.75C7.18749 43.75 6.20659 43.342 5.39061 42.526C4.57464 41.7101 4.16666 40.7292 4.16666 39.5833V14.5833C4.16666 13.4375 4.57464 12.4566 5.39061 11.6406C6.20659 10.8247 7.18749 10.4167 8.33332 10.4167H14.8958L18.75 6.25H31.25L35.1042 10.4167H41.6667C42.8125 10.4167 43.7934 10.8247 44.6094 11.6406C45.4253 12.4566 45.8333 13.4375 45.8333 14.5833V39.5833C45.8333 40.7292 45.4253 41.7101 44.6094 42.526C43.7934 43.342 42.8125 43.75 41.6667 43.75H8.33332ZM8.33332 39.5833H41.6667V14.5833H33.2292L29.4271 10.4167H20.5729L16.7708 14.5833H8.33332V39.5833Z" fill="#1269C7"/>
</svg>
