<svg width="60" height="60" viewBox="0 0 60 60" fill="none" xmlns="http://www.w3.org/2000/svg">
<rect width="60" height="60" rx="20" fill="#1269C7"/>
<path d="M30 42.25C33.125 42.25 35.7812 41.1562 37.9688 38.9688C40.1562 36.7812 41.25 34.125 41.25 31C41.25 27.875 40.1562 25.2188 37.9688 23.0312C35.7812 20.8438 33.125 19.75 30 19.75C26.875 19.75 24.2188 20.8438 22.0312 23.0312C19.8438 25.2188 18.75 27.875 18.75 31C18.75 34.125 19.8438 36.7812 22.0312 38.9688C24.2188 41.1562 26.875 42.25 30 42.25ZM30 37.25C28.25 37.25 26.7708 36.6458 25.5625 35.4375C24.3542 34.2292 23.75 32.75 23.75 31C23.75 29.25 24.3542 27.7708 25.5625 26.5625C26.7708 25.3542 28.25 24.75 30 24.75C31.75 24.75 33.2292 25.3542 34.4375 26.5625C35.6458 27.7708 36.25 29.25 36.25 31C36.25 32.75 35.6458 34.2292 34.4375 35.4375C33.2292 36.6458 31.75 37.25 30 37.25ZM10 51C8.625 51 7.44792 50.5104 6.46875 49.5312C5.48958 48.5521 5 47.375 5 46V16C5 14.625 5.48958 13.4479 6.46875 12.4688C7.44792 11.4896 8.625 11 10 11H17.875L22.5 6H37.5L42.125 11H50C51.375 11 52.5521 11.4896 53.5312 12.4688C54.5104 13.4479 55 14.625 55 16V46C55 47.375 54.5104 48.5521 53.5312 49.5312C52.5521 50.5104 51.375 51 50 51H10ZM10 46H50V16H39.875L35.3125 11H24.6875L20.125 16H10V46Z" fill="white"/>
</svg>
