<svg width="75" height="70" viewBox="0 0 75 70" fill="none" xmlns="http://www.w3.org/2000/svg">
<rect x="0.5" y="0.5" width="74" height="74" rx="19.5" fill="white"/>
<rect x="0.5" y="0.5" width="74" height="74" rx="19.5" stroke="#1269C7"/>
<path d="M37.5 54.6875C41.4062 54.6875 44.7266 53.3203 47.4609 50.5859C50.1953 47.8516 51.5625 44.5312 51.5625 40.625C51.5625 36.7188 50.1953 33.3984 47.4609 30.6641C44.7266 27.9297 41.4062 26.5625 37.5 26.5625C33.5938 26.5625 30.2734 27.9297 27.5391 30.6641C24.8047 33.3984 23.4375 36.7188 23.4375 40.625C23.4375 44.5312 24.8047 47.8516 27.5391 50.5859C30.2734 53.3203 33.5938 54.6875 37.5 54.6875ZM37.5 48.4375C35.3125 48.4375 33.4635 47.6823 31.9531 46.1719C30.4427 44.6615 29.6875 42.8125 29.6875 40.625C29.6875 38.4375 30.4427 36.5885 31.9531 35.0781C33.4635 33.5677 35.3125 32.8125 37.5 32.8125C39.6875 32.8125 41.5365 33.5677 43.0469 35.0781C44.5573 36.5885 45.3125 38.4375 45.3125 40.625C45.3125 42.8125 44.5573 44.6615 43.0469 46.1719C41.5365 47.6823 39.6875 48.4375 37.5 48.4375ZM12.5 65.625C10.7812 65.625 9.3099 65.013 8.08594 63.7891C6.86198 62.5651 6.25 61.0938 6.25 59.375V21.875C6.25 20.1562 6.86198 18.6849 8.08594 17.4609C9.3099 16.237 10.7812 15.625 12.5 15.625H22.3438L28.125 9.375H46.875L52.6562 15.625H62.5C64.2188 15.625 65.6901 16.237 66.9141 17.4609C68.138 18.6849 68.75 20.1562 68.75 21.875V59.375C68.75 61.0938 68.138 62.5651 66.9141 63.7891C65.6901 65.013 64.2188 65.625 62.5 65.625H12.5ZM12.5 59.375H62.5V21.875H49.8438L44.1406 15.625H30.8594L25.1562 21.875H12.5V59.375Z" fill="#1269C7"/>
</svg>
