<svg width="50" height="50" viewBox="0 0 50 50" fill="none" xmlns="http://www.w3.org/2000/svg">
<rect x="1.5" y="1.5" width="47" height="47" rx="8.5" fill="white"/>
<rect x="1.5" y="1.5" width="47" height="47" rx="8.5" stroke="#1269C7" stroke-width="3"/>
<path d="M24.8334 36.4583C27.4375 36.4583 29.6511 35.5469 31.474 33.724C33.2969 31.901 34.2084 29.6875 34.2084 27.0833C34.2084 24.4792 33.2969 22.2656 31.474 20.4427C29.6511 18.6198 27.4375 17.7083 24.8334 17.7083C22.2292 17.7083 20.0157 18.6198 18.1927 20.4427C16.3698 22.2656 15.4584 24.4792 15.4584 27.0833C15.4584 29.6875 16.3698 31.901 18.1927 33.724C20.0157 35.5469 22.2292 36.4583 24.8334 36.4583ZM24.8334 32.2917C23.375 32.2917 22.1424 31.7882 21.1354 30.7813C20.1285 29.7743 19.625 28.5417 19.625 27.0833C19.625 25.625 20.1285 24.3924 21.1354 23.3854C22.1424 22.3785 23.375 21.875 24.8334 21.875C26.2917 21.875 27.5243 22.3785 28.5313 23.3854C29.5382 24.3924 30.0417 25.625 30.0417 27.0833C30.0417 28.5417 29.5382 29.7743 28.5313 30.7813C27.5243 31.7882 26.2917 32.2917 24.8334 32.2917ZM8.1667 43.75C7.02086 43.75 6.03996 43.342 5.22399 42.526C4.40802 41.7101 4.00003 40.7292 4.00003 39.5833V14.5833C4.00003 13.4375 4.40802 12.4566 5.22399 11.6406C6.03996 10.8247 7.02086 10.4167 8.1667 10.4167H14.7292L18.5834 6.25H31.0834L34.9375 10.4167H41.5C42.6459 10.4167 43.6268 10.8247 44.4427 11.6406C45.2587 12.4566 45.6667 13.4375 45.6667 14.5833V39.5833C45.6667 40.7292 45.2587 41.7101 44.4427 42.526C43.6268 43.342 42.6459 43.75 41.5 43.75H8.1667ZM8.1667 39.5833H41.5V14.5833H33.0625L29.2604 10.4167H20.4063L16.6042 14.5833H8.1667V39.5833Z" fill="#1269C7"/>
</svg>
