<?xml version="1.0" encoding="UTF-8"?>
<svg version="1.1" xmlns="http://www.w3.org/2000/svg" width="1024" height="1024">
<path d="M0 0 C337.92 0 675.84 0 1024 0 C1024 337.92 1024 675.84 1024 1024 C686.08 1024 348.16 1024 0 1024 C0 686.08 0 348.16 0 0 Z " fill="#FEFCF2" transform="translate(0,0)"/>
<path d="M0 0 C1.02021929 -0.00297112 2.04043857 -0.00594224 3.0915736 -0.0090034 C6.50334869 -0.01766075 9.91508858 -0.01919618 13.32687378 -0.02069092 C15.77656122 -0.02532143 18.22624795 -0.0303464 20.67593384 -0.03573608 C27.32961105 -0.0488453 33.98327455 -0.05534035 40.63696146 -0.05974674 C44.80095324 -0.06251658 48.96494273 -0.06675547 53.12893295 -0.07125092 C64.68250698 -0.08344358 76.23607918 -0.09374026 87.7896595 -0.09712601 C88.89787358 -0.09745536 88.89787358 -0.09745536 90.02847581 -0.09779136 C91.13920413 -0.09811878 91.13920413 -0.09811878 92.27237141 -0.09845281 C93.77263522 -0.09889626 95.27289903 -0.09934282 96.77316284 -0.09979248 C97.51733073 -0.10001391 98.26149863 -0.10023534 99.02821706 -0.10046348 C111.05428558 -0.10440142 123.08029313 -0.12182463 135.10633816 -0.145152 C147.48594942 -0.16896886 159.86553024 -0.18133267 172.24516475 -0.18249393 C179.18243981 -0.18340534 186.11963559 -0.18902096 193.05688858 -0.20731354 C199.59537771 -0.22449479 206.13375737 -0.22589063 212.6722641 -0.21717453 C215.05648832 -0.21641051 217.44072098 -0.22066169 219.82492447 -0.23063278 C240.37275221 -0.31144201 259.7716389 0.68794944 278.7326355 9.14044189 C279.77548706 9.59290283 280.81833862 10.04536377 281.89279175 10.51153564 C311.25497101 24.16746355 330.12399887 49.33029647 341.506073 78.89825439 C345.53192953 91.66010163 345.03034567 104.96682407 345.02316284 118.18438721 C345.02915647 120.39514898 345.03596393 122.60590866 345.04351807 124.81666565 C345.06109908 130.78999859 345.06587007 136.76327413 345.06714964 142.73663044 C345.06857615 146.47682852 345.07285516 150.21701223 345.07814407 153.95720673 C345.09566634 166.35590963 345.10498758 178.75458214 345.10348313 191.15329698 C345.10340321 191.81952843 345.1033233 192.48575989 345.10324097 193.17218018 C345.10315921 193.83923893 345.10307744 194.50629769 345.10299321 195.19357035 C345.10218082 205.99658474 345.12131444 216.79945954 345.1495177 227.60243359 C345.17834791 238.73468539 345.19168745 249.86687975 345.19033015 260.99917102 C345.18982239 267.23314603 345.19540237 273.46696284 345.21668625 279.70090485 C345.23617358 285.56813445 345.23612169 291.43505659 345.22165298 297.30229759 C345.21957685 299.44309887 345.22419352 301.58391994 345.2363739 303.72468758 C345.39175039 332.94894729 336.71364546 360.23481626 316.7326355 382.14044189 C316.04814331 382.90614502 315.36365112 383.67184814 314.65841675 384.46075439 C305.68771789 393.97864931 294.46090154 401.44777475 282.7326355 407.14044189 C281.44099487 407.78239502 281.44099487 407.78239502 280.1232605 408.43731689 C258.71858386 418.23267739 236.86829727 417.80146091 213.87252498 417.61881971 C209.22975651 417.58924163 204.58704144 417.59416019 199.94419861 417.59689331 C186.18751355 417.59898892 172.43105313 417.55253473 158.67453003 417.4876709 C147.94097378 417.43737632 137.20788017 417.40256385 126.47418982 417.41614115 C120.97166285 417.42138577 115.47056312 417.39451953 109.96829307 417.34257102 C106.54125601 417.31743744 103.11469935 417.32168135 99.68761063 417.33375359 C98.11066419 417.33346556 96.53366392 417.32135033 94.95692253 417.29591942 C84.47426595 417.13519443 77.33435711 418.90314831 68.7326355 425.14044189 C67.29024108 426.11486507 65.84759842 427.08892107 64.4045105 428.06231689 C63.09377848 429.00023591 61.78650119 429.94300072 60.4826355 430.89044189 C59.01972661 431.93820096 57.55616939 432.98505532 56.0920105 434.03106689 C55.00243042 434.81127197 55.00243042 434.81127197 53.89083862 435.60723877 C50.5328348 437.992789 47.13384513 440.31711003 43.7326355 442.64044189 C30.59758986 451.63744707 17.64797065 460.88905982 4.756073 470.23028564 C4.08157104 470.71739014 3.40706909 471.20449463 2.71212769 471.70635986 C1.39106942 472.6634265 0.07399783 473.62601998 -1.23904419 474.59405518 C-6.89186227 478.72632737 -11.33529017 480.1422533 -18.2673645 479.14044189 C-23.10858887 477.072256 -25.60693885 474.27635518 -27.63253784 469.39457703 C-28.96525402 464.66238391 -28.62756657 459.74012643 -28.56033325 454.86309814 C-28.55608841 453.6966124 -28.55184357 452.53012665 -28.54747009 451.32829285 C-28.53073972 447.61960315 -28.49309671 443.91146608 -28.4548645 440.20294189 C-28.43981043 437.68146539 -28.42612329 435.15998033 -28.41384888 432.63848877 C-28.3808546 426.47228607 -28.33071096 420.30640348 -28.2673645 414.14044189 C-28.87073639 414.01578049 -29.47410828 413.89111908 -30.09576416 413.76268005 C-31.29469803 413.50724174 -31.29469803 413.50724174 -32.51785278 413.24664307 C-33.30684967 413.08073166 -34.09584656 412.91482025 -34.90875244 412.74388123 C-38.57835437 411.80503157 -41.80020735 410.20399337 -45.1423645 408.45294189 C-45.83289917 408.09772461 -46.52343384 407.74250732 -47.2348938 407.37652588 C-73.79654258 393.51330405 -94.83761454 371.48657105 -104.08132935 342.59649658 C-105.47616522 337.78937436 -106.70034485 332.94665403 -107.82180786 328.06890869 C-108.11632215 326.79418628 -108.43780373 325.52536483 -108.78717214 324.26457238 C-109.59947441 320.67135403 -109.40782762 317.00600963 -109.40107727 313.33911133 C-109.40447561 311.99109542 -109.40447561 311.99109542 -109.40794259 310.61584687 C-109.41428389 307.59766504 -109.41345311 304.5795281 -109.41262817 301.56134033 C-109.41561979 299.39954571 -109.41902232 297.23775163 -109.42280579 295.07595825 C-109.43165481 289.19514022 -109.43398442 283.31433673 -109.43462157 277.43351269 C-109.43533215 273.75552151 -109.43746673 270.07753403 -109.44011879 266.39954376 C-109.44937875 253.55601263 -109.45345331 240.71249188 -109.45266724 227.86895752 C-109.4520679 215.91994227 -109.46258978 203.97097238 -109.4784109 192.0219686 C-109.49152292 181.75080776 -109.49684952 171.47966166 -109.49621183 161.20849252 C-109.4959577 155.08009769 -109.49876115 148.95174308 -109.50938988 142.82335663 C-109.51913127 137.04824992 -109.51910891 131.27322132 -109.51187325 125.49811172 C-109.51083452 123.38915263 -109.51314749 121.28018852 -109.5192337 119.17123795 C-109.59813231 89.91360149 -104.61131669 62.57095328 -84.2673645 40.14044189 C-83.58287231 39.32704346 -82.89838013 38.51364502 -82.19314575 37.67559814 C-72.73650889 26.65700331 -62.03402412 18.76708248 -49.2673645 12.14044189 C-48.24127075 11.59516846 -47.215177 11.04989502 -46.1579895 10.48809814 C-31.77384824 3.3142815 -15.99176164 -0.01465057 0 0 Z " fill="#007EC2" transform="translate(394.2673645019531,162.85955810546875)"/>
<path d="M0 0 C1.06361907 -0.00382555 2.12723814 -0.00765109 3.22308809 -0.01159257 C6.76940729 -0.0218702 10.315563 -0.01794031 13.8618927 -0.01396179 C16.41190235 -0.01831123 18.9619107 -0.02349515 21.51191711 -0.02944946 C27.709736 -0.04143924 33.90749512 -0.04399355 40.10532334 -0.0416492 C45.14742293 -0.03986227 50.18950941 -0.04162372 55.23160744 -0.04587364 C55.95071519 -0.04646883 56.66982294 -0.04706402 57.41072184 -0.04767724 C58.8718848 -0.04888907 60.33304776 -0.05010321 61.79421071 -0.05131962 C75.48389612 -0.06218499 89.17355688 -0.06003779 102.86324368 -0.05393478 C115.36274017 -0.04876999 127.86215863 -0.06001124 140.3616397 -0.07903299 C153.21928069 -0.09844856 166.07688484 -0.10666067 178.93454057 -0.10290974 C186.14374599 -0.10100288 193.35288507 -0.10343451 200.56207848 -0.11762428 C207.34601103 -0.13084258 214.12976296 -0.1282277 220.91370392 -0.11521339 C223.39600745 -0.11285492 225.87832203 -0.11555598 228.36061287 -0.12383652 C256.11724955 -0.20971213 279.08925008 5.30519944 299.92756653 24.98335266 C311.95552633 37.74027972 319.46244766 54.31083031 323.10334778 71.26069641 C323.27779136 72.00195865 323.45223494 72.74322088 323.63196468 73.50694561 C324.18211921 76.72086754 324.22612877 79.75043499 324.22360229 83.01211548 C324.22488393 84.01082689 324.22488393 84.01082689 324.22619146 85.02971429 C324.22783403 87.25297624 324.22234498 89.47616215 324.21687317 91.69941711 C324.21659101 93.29619342 324.2167496 94.89296986 324.21731567 96.48974609 C324.21760252 100.8199018 324.21172401 105.1500298 324.20474172 109.48017907 C324.1984894 114.00721105 324.19790289 118.53424367 324.19671631 123.0612793 C324.19360854 131.631783 324.1854026 140.20227393 324.17536682 148.77277201 C324.16418849 158.53086259 324.15869089 168.28895378 324.15367138 178.04704916 C324.14321954 198.11827203 324.12563081 218.18948342 324.10334778 238.26069641 C321.53284475 239.5465296 318.96227931 240.83223775 316.39167786 242.11787415 C315.66720711 242.48028954 314.94273636 242.84270493 314.19631195 243.2161026 C296.16342021 252.23431442 278.46002124 259.92359873 258.79084778 264.69819641 C257.18886536 265.08709045 257.18886536 265.08709045 255.55451965 265.48384094 C250.66868959 266.61655011 246.15627578 267.61727136 241.10334778 267.26069641 C244.0432284 264.10485299 247.08413297 261.8664556 250.72834778 259.57319641 C261.45463199 252.51368333 272.40026505 243.54890281 277.10334778 231.26069641 C239.25938274 230.61924269 201.41905864 230.15282004 163.56915665 230.13731384 C160.99232344 230.13570514 158.41549929 230.1321539 155.83866882 230.12812805 C151.75062963 230.1222393 147.66262772 230.12206897 143.57458687 230.12637711 C142.08211855 230.12735848 140.58964821 230.12682267 139.09718132 230.12453842 C122.88897461 229.56653366 122.88897461 229.56653366 107.10334778 232.26069641 C107.5886604 241.72429255 114.81936839 248.30687412 121.34553528 254.41304016 C123.10334778 256.26069641 123.10334778 256.26069641 123.10334778 258.26069641 C94.11737144 251.87627053 67.13521308 234.17351192 42.03889465 219.0136261 C28.81416496 211.06100943 15.22506256 205.48111102 0.10334778 202.26069641 C-0.69160095 202.08264465 -1.48654968 201.9045929 -2.30558777 201.72114563 C-12.25167217 199.75979777 -22.23804266 199.8677324 -32.33415222 199.88569641 C-33.26774567 199.88491089 -34.20133911 199.88412537 -35.16322327 199.88331604 C-47.95760148 199.89623674 -60.31487173 200.29602943 -72.7348175 203.69190979 C-75.02828833 204.29533035 -77.33012914 204.81907132 -79.64640808 205.32759094 C-80.84528908 205.5915416 -80.84528908 205.5915416 -82.06838989 205.86082458 C-82.67171646 205.99278229 -83.27504303 206.12473999 -83.89665222 206.26069641 C-83.94354434 190.46528914 -83.97872489 174.66990091 -84.00027657 158.87444115 C-84.01055303 151.5389764 -84.0245432 144.20355512 -84.04753113 136.86811829 C-84.06757696 130.46840814 -84.08039498 124.0687295 -84.08482921 117.66898882 C-84.08741781 114.28595807 -84.09342469 110.90301737 -84.10811234 107.52001572 C-84.22786473 76.50058337 -80.58267149 48.24853308 -58.47477722 24.67866516 C-42.76542414 9.55027928 -21.88282509 -0.0844097 0 0 Z " fill="#FDFCF2" transform="translate(391.8966522216797,187.7393035888672)"/>
<path d="M0 0 C1.38514801 0.00456207 1.38514801 0.00456207 2.79827881 0.00921631 C16.24272079 0.0747251 29.30752385 0.42938931 42.25 4.4375 C42.95044434 4.65180664 43.65088867 4.86611328 44.37255859 5.08691406 C59.64575364 9.94801436 73.38890159 17.85394787 87.0625 26.0625 C109.04625104 39.25051242 131.74019543 51.60075988 156.25 59.4375 C155.61384766 58.71046875 155.61384766 58.71046875 154.96484375 57.96875 C153.72816253 56.55540004 152.49397002 55.13987019 151.26171875 53.72265625 C149.97027819 52.25568008 148.66162083 50.80358436 147.33203125 49.37109375 C143.56651747 45.26836979 140.89942006 41.79811519 139.25 36.4375 C139.375 34.0625 139.375 34.0625 140.25 32.4375 C150.64492443 28.97252519 163.57848835 30.28807954 174.4296875 30.3046875 C175.98145064 30.30366714 177.53321359 30.302325 179.0849762 30.3006897 C183.23806545 30.29800428 187.39111691 30.30244098 191.5442009 30.30892944 C194.13714459 30.3125168 196.73008269 30.31412328 199.32302856 30.31518555 C236.30343904 30.33393105 273.27544738 30.81078278 310.25 31.4375 C310.25 39.16683712 303.29167867 45.5464859 298.1875 51 C292.24926651 56.76143845 285.20656815 61.02500054 278.25 65.4375 C276.765 66.4275 276.765 66.4275 275.25 67.4375 C300.81847726 65.56428853 325.56625634 55.10544525 347.79150391 42.84106445 C349.00459229 42.17337036 349.00459229 42.17337036 350.2421875 41.4921875 C351.29962158 40.89639893 351.29962158 40.89639893 352.37841797 40.28857422 C354.25 39.4375 354.25 39.4375 357.25 39.4375 C357.35304253 46.33433983 357.4221383 53.23097513 357.46972656 60.12841797 C357.48960492 62.46540746 357.51671721 64.80234883 357.55175781 67.13916016 C358.22268712 113.09781799 358.22268712 113.09781799 345.80859375 125.96875 C341.29315943 129.4610267 335.94312831 131.38922932 330.6875 133.5 C329.60702393 133.94045654 328.52654785 134.38091309 327.41333008 134.8347168 C320.10214912 137.78022459 312.87119489 140.41009628 305.25 142.4375 C303.82905451 142.84766983 302.4085123 143.2592382 300.98828125 143.671875 C289.20525823 147.01782403 277.41389839 149.05795339 265.25 150.4375 C264.48623047 150.53248779 263.72246094 150.62747559 262.93554688 150.7253418 C236.66089307 153.60920869 208.06163645 153.14012615 182.25 147.4375 C181.46447754 147.26621582 180.67895508 147.09493164 179.86962891 146.91845703 C174.56519188 145.7067127 169.41821976 144.13047056 164.25 142.4375 C163.19619141 142.09976563 162.14238281 141.76203125 161.05664062 141.4140625 C144.91216511 136.20326907 129.41166196 130.21120702 114.13964844 122.82861328 C111.2207885 121.42343721 108.28865948 120.05019342 105.3515625 118.68359375 C96.08010335 114.34653326 86.9861449 109.8287086 78.0625 104.8125 C45.09536053 86.38364402 7.89356559 75.73042826 -29.75 85.4375 C-36.55613242 87.4003471 -43.17935325 89.79404825 -49.75 92.4375 C-49.87361526 87.93524209 -49.96434063 83.43397151 -50.0246582 78.93041992 C-50.04980078 77.39866939 -50.08392047 75.86703883 -50.12719727 74.33569336 C-50.18786942 72.13365116 -50.21620891 69.93319426 -50.23828125 67.73046875 C-50.26408768 67.04599167 -50.2898941 66.36151459 -50.31648254 65.65629578 C-50.31762695 63.71557617 -50.31762695 63.71557617 -49.75 60.4375 C-47.33939069 58.47754961 -45.88296429 57.4375 -42.75 57.4375 C-42.75 56.7775 -42.75 56.1175 -42.75 55.4375 C-45.06 56.4275 -47.37 57.4175 -49.75 58.4375 C-49.75 41.6075 -49.75 24.7775 -49.75 7.4375 C-32.65682776 1.73977592 -17.81454498 -0.12451564 0 0 Z " fill="#0088CA" transform="translate(358.75,386.5625)"/>
<path d="M0 0 C2.25761284 0.01610141 4.51343653 0.00004327 6.77099609 -0.01904297 C16.11268356 -0.03273262 24.68267647 0.97308047 33.75927734 3.39111328 C34.49694336 3.58447266 35.23460937 3.77783203 35.99462891 3.97705078 C45.43328968 6.62684895 54.06231562 10.74008841 62.70019531 15.30419922 C64.77729561 16.40062447 66.86297113 17.47911522 68.95068359 18.55517578 C76.20337348 22.31821407 83.30897784 26.26036816 90.32177734 30.45361328 C98.27551086 35.19786584 106.41562855 39.38088373 114.75927734 43.39111328 C115.52030762 43.76123535 116.28133789 44.13135742 117.06542969 44.51269531 C131.98564973 51.76731363 146.67826667 58.10524482 162.75927734 62.39111328 C163.85884766 62.71853516 164.95841797 63.04595703 166.09130859 63.38330078 C183.43181874 68.4044586 201.71628854 71.07062736 219.75927734 71.39111328 C220.70319336 71.41157715 221.64710938 71.43204102 222.61962891 71.453125 C257.17339316 72.10824964 294.72912745 69.5022982 326.75927734 55.39111328 C328.28285096 54.75938763 329.80773245 54.13081225 331.33349609 53.50439453 C333.03807052 52.80032406 334.74249586 52.09589255 336.44677734 51.39111328 C337.25566406 51.05877686 338.06455078 50.72644043 338.89794922 50.3840332 C342.63799329 48.81914028 346.21796029 47.1965173 349.71630859 45.14111328 C352.75927734 43.39111328 352.75927734 43.39111328 354.75927734 43.39111328 C353.86666017 54.28104277 351.61717536 69.26266978 343.81396484 77.42626953 C339.22415111 80.37854103 334.30461438 82.34075692 329.25927734 84.39111328 C328.17428955 84.83608154 327.08930176 85.2810498 325.97143555 85.73950195 C318.64162929 88.71089645 311.40673031 91.35672434 303.75927734 93.39111328 C302.33833186 93.80128311 300.91778965 94.21285148 299.49755859 94.62548828 C287.71453557 97.97143731 275.92317573 100.01156667 263.75927734 101.39111328 C262.99550781 101.48610107 262.23173828 101.58108887 261.44482422 101.67895508 C235.17017041 104.56282197 206.57091379 104.09373943 180.75927734 98.39111328 C179.97375488 98.2198291 179.18823242 98.04854492 178.37890625 97.87207031 C173.07446923 96.66032598 167.9274971 95.08408384 162.75927734 93.39111328 C161.70546875 93.05337891 160.65166016 92.71564453 159.56591797 92.36767578 C143.42144246 87.15688235 127.92093931 81.1648203 112.64892578 73.78222656 C109.73006584 72.37705049 106.79793682 71.0038067 103.86083984 69.63720703 C94.58938069 65.30014654 85.49542224 60.78232188 76.57177734 55.76611328 C43.60463788 37.3372573 6.40284293 26.68404155 -31.24072266 36.39111328 C-38.04685508 38.35396038 -44.67007591 40.74766153 -51.24072266 43.39111328 C-51.36433792 38.88885537 -51.45506328 34.38758479 -51.51538086 29.8840332 C-51.54052343 28.35228268 -51.57464312 26.82065211 -51.61791992 25.28930664 C-51.67859207 23.08726444 -51.70693156 20.88680754 -51.72900391 18.68408203 C-51.75481033 17.99960495 -51.78061676 17.31512787 -51.8072052 16.60990906 C-51.80834961 14.66918945 -51.80834961 14.66918945 -51.24072266 11.39111328 C-47.46716978 8.31142274 -42.93354179 7.20197988 -38.30322266 5.89111328 C-37.63226563 5.69130859 -36.96130859 5.49150391 -36.27001953 5.28564453 C-33.9366705 4.61037117 -31.59377228 3.99428938 -29.24072266 3.39111328 C-28.22671387 3.12347168 -27.21270508 2.85583008 -26.16796875 2.58007812 C-17.35208715 0.44922523 -9.01356939 -0.07620403 0 0 Z " fill="#2FCAE6" transform="translate(360.24072265625,435.60888671875)"/>
<path d="M0 0 C5.28380621 0.93243639 8.63269152 4.55600881 11.64453125 8.8046875 C12.44038751 10.00861972 13.22514781 11.21994341 14 12.4375 C14.64001953 13.42206177 14.64001953 13.42206177 15.29296875 14.42651367 C19.77085088 21.36607176 24.03915316 28.42207796 28.1875 35.5625 C28.75887695 36.53268066 28.75887695 36.53268066 29.34179688 37.52246094 C45.77053483 65.52785534 63.13341735 98.606069 63.5625 131.6875 C63.57676025 132.60176758 63.59102051 133.51603516 63.60571289 134.45800781 C63.55728427 140.85536867 63.55728427 140.85536867 61.8515625 144.1171875 C58.11660907 147.36116113 53.43880456 146.77284296 48.76660156 146.85961914 C47.90577972 146.87927231 47.04495789 146.89892548 46.15805054 146.91917419 C43.29815514 146.98324983 40.43816764 147.04056069 37.578125 147.09765625 C35.57484218 147.14073092 33.57156669 147.18414762 31.56829834 147.22789001 C27.35157725 147.31897271 23.1348059 147.40689381 18.91796875 147.49243164 C13.58087402 147.6007965 8.24393401 147.71526266 2.90701675 147.83200932 C-1.2440787 147.92236969 -5.39522631 148.01011796 -9.54639435 148.09707451 C-11.50906887 148.13833754 -13.47173131 148.18018025 -15.43437958 148.22267342 C-29.56208315 148.52573562 -43.68165661 148.6138218 -57.8125 148.5625 C-58.69853156 145.10445738 -58.98022456 143.03546662 -57.54003906 139.75146484 C-57.23467224 139.03702209 -56.92930542 138.32257935 -56.61468506 137.58648682 C-56.27262024 136.82318054 -55.93055542 136.05987427 -55.578125 135.2734375 C-55.22945374 134.46694763 -54.88078247 133.66045776 -54.52154541 132.82952881 C-53.77111219 131.09743795 -53.01478066 129.36789297 -52.25317383 127.64068604 C-51.04775242 124.90401859 -49.86030308 122.16018737 -48.67773438 119.41357422 C-46.1166943 113.46894871 -43.53867108 107.53175723 -40.95727539 101.59594727 C-32.46968021 82.04966721 -25.70844746 61.9805751 -18.95809937 41.7835083 C-15.87885269 32.58354541 -12.74909316 23.40414413 -9.48046875 14.26953125 C-9.15613358 13.34895432 -8.8317984 12.42837738 -8.49763489 11.47990417 C-8.18928207 10.62777847 -7.88092926 9.77565277 -7.56323242 8.89770508 C-7.29669357 8.15410233 -7.03015472 7.41049957 -6.75553894 6.6443634 C-5.11312636 3.01855486 -4.01836085 0.80367217 0 0 Z " fill="#0177BD" transform="translate(585.8125,259.4375)"/>
<path d="M0 0 C6.22054829 4.34992995 13.50015514 9.59829377 17.2734375 16.2890625 C17.25140785 19.76423914 16.51072199 21.02848898 14.1640625 23.60546875 C13.29265625 24.34667969 12.42125 25.08789062 11.5234375 25.8515625 C10.66234375 26.59535156 9.80125 27.33914063 8.9140625 28.10546875 C8.04265625 28.82605469 7.17125 29.54664063 6.2734375 30.2890625 C5.39171875 31.03929687 4.51 31.78953125 3.6015625 32.5625 C1.2734375 34.2890625 1.2734375 34.2890625 -1.2265625 34.3515625 C-3.85130315 33.23604772 -5.24329684 31.88513559 -7.1640625 29.8203125 C-9.12347617 27.9000871 -11.20583275 26.29263194 -13.4140625 24.6640625 C-14.18105469 24.09429688 -14.94804688 23.52453125 -15.73828125 22.9375 C-23.21341667 18.81396124 -30.78899381 17.7517142 -39.2265625 17.8515625 C-40.14928955 17.86131104 -41.0720166 17.87105957 -42.02270508 17.88110352 C-53.04072614 18.1691755 -59.48986951 21.20486531 -67.46875 28.87109375 C-76.68550071 38.74162782 -80.47380335 49.81858385 -80.2265625 63.2265625 C-80.21447754 64.27980713 -80.20239258 65.33305176 -80.18994141 66.41821289 C-79.87544855 78.7225077 -76.67936921 88.9763458 -68.06640625 98.03515625 C-58.67886033 106.61011277 -47.86377919 108.81654141 -35.421875 108.6015625 C-24.72868685 107.69727598 -14.46393416 104.38743732 -6.98828125 96.44140625 C-3.1018527 91.59060337 -1.38633175 87.27354331 1.2734375 81.2890625 C-11.2665625 81.2890625 -23.8065625 81.2890625 -36.7265625 81.2890625 C-38.53904171 77.66410408 -38.97520292 76.6938919 -38.921875 72.9609375 C-38.91542969 72.16171875 -38.90898438 71.3625 -38.90234375 70.5390625 C-38.87720703 69.3015625 -38.87720703 69.3015625 -38.8515625 68.0390625 C-38.84253906 67.19859375 -38.83351563 66.358125 -38.82421875 65.4921875 C-38.80072067 63.42435646 -38.76485158 61.35667255 -38.7265625 59.2890625 C-31.25071802 59.21945932 -23.77494377 59.16619908 -16.29884052 59.13362598 C-12.8271214 59.11799007 -9.35562447 59.09679038 -5.8840332 59.06274414 C-1.89011538 59.02382187 2.10357013 59.00933621 6.09765625 58.99609375 C7.34052902 58.98060989 8.58340179 58.96512604 9.86393738 58.94917297 C11.02476334 58.94894638 12.18558929 58.94871979 13.3815918 58.94848633 C14.91048286 58.93849358 14.91048286 58.93849358 16.47026062 58.92829895 C19.76968539 59.35292866 21.62632116 60.29670528 24.2734375 62.2890625 C28.52835344 72.01458465 26.48638646 83.54239853 23.2734375 93.2890625 C19.27956815 103.3809371 14.16760988 111.74480911 6.2734375 119.2890625 C5.64953125 119.93230469 5.025625 120.57554687 4.3828125 121.23828125 C-8.39967577 133.61796002 -25.72191225 135.71811526 -42.63671875 135.50390625 C-57.28321547 135.06600728 -71.05339084 130.13170946 -82.7265625 121.2890625 C-83.72429688 120.55623047 -83.72429688 120.55623047 -84.7421875 119.80859375 C-97.87053306 109.34209778 -106.34562006 91.66289187 -108.7265625 75.2890625 C-110.67273333 53.77875337 -106.24693848 33.91122341 -93.3515625 16.3515625 C-70.59499639 -10.54721003 -30.49501565 -19.26744582 0 0 Z " fill="#0178BD" transform="translate(783.7265625,696.7109375)"/>
<path d="M0 0 C12.84891628 9.62594397 21.78431142 21.57365351 24.3359375 37.75 C25.35401083 54.70483663 21.25213389 70.02019315 10.0859375 83.1875 C2.51808495 90.99906306 -6.32506816 95.63322051 -16.6640625 98.75 C-17.57865234 99.04003906 -17.57865234 99.04003906 -18.51171875 99.3359375 C-33.88987414 102.29434852 -48.73372735 98.09948777 -61.6640625 89.75 C-73.50250872 80.98690434 -80.51597368 69.0677185 -83.6640625 54.75 C-84.96942835 37.48356993 -82.71294777 23.72451311 -71.40625 10.01171875 C-53.19204094 -9.2859722 -22.86921685 -15.19549292 0 0 Z " fill="#0088C9" transform="translate(441.6640625,233.25)"/>
<path d="M0 0 C11.44498045 7.64671939 19.62960744 18.36743122 22.63671875 31.94921875 C24.04887238 43.43473498 24.51717731 56.46231908 20.046875 67.28515625 C19.71816406 68.11789062 19.38945313 68.950625 19.05078125 69.80859375 C12.97191661 83.48078066 1.78060093 91.92005724 -11.890625 97.22265625 C-26.26938583 101.98814566 -42.11792705 100.45150426 -55.6484375 94 C-67.75007581 87.35705175 -76.29274124 76.64134984 -80.6171875 63.5703125 C-82.13467412 58.23616246 -82.49208908 53.1866442 -82.453125 47.66015625 C-82.44740479 46.70520264 -82.44168457 45.75024902 -82.43579102 44.76635742 C-82.04640737 29.11365921 -76.59632173 15.40612583 -65.203125 4.41015625 C-47.75346711 -10.43666074 -19.50298985 -11.32514887 0 0 Z " fill="#0177BD" transform="translate(901.953125,732.71484375)"/>
<path d="M0 0 C1.68512695 -0.00483398 1.68512695 -0.00483398 3.40429688 -0.00976562 C22.090898 0.11093468 36.88669029 8.01504341 49.90234375 21.1015625 C54.84900217 26.82714259 54.84900217 26.82714259 54.76171875 30.37890625 C53.48596354 32.97766686 51.83184358 34.38323952 49.625 36.25 C48.81160156 36.93835938 47.99820313 37.62671875 47.16015625 38.3359375 C46.38542969 38.98820313 45.61070312 39.64046875 44.8125 40.3125 C44.23371094 40.86164062 43.65492188 41.41078125 43.05859375 41.9765625 C41.5625 43.375 41.5625 43.375 38.8125 45.3125 C35.81145701 45.1323426 34.30990123 44.80058223 32.14453125 42.67578125 C31.64308594 41.99902344 31.14164062 41.32226562 30.625 40.625 C25.15778181 33.97600321 17.16008627 29.04689824 8.49975586 28.04492188 C-5.72898056 27.09124962 -16.62310133 27.94077315 -27.82421875 37.58203125 C-37.32719021 47.30490619 -42.08352381 58.99081926 -42.625 72.375 C-42.41107186 85.81236154 -37.35165782 98.31176325 -28.34765625 108.3671875 C-19.06209893 117.21600081 -8.19721409 119.65328512 4.2421875 119.5234375 C14.93772302 118.89153496 23.29150382 114.2467042 30.5 106.4375 C30.99886719 105.84195313 31.49773437 105.24640625 32.01171875 104.6328125 C34.77328541 102.60806298 36.46084824 102.79811739 39.8125 103.3125 C42.23793176 104.82191359 44.26566431 106.25601984 46.4375 108.0625 C46.99695313 108.5059375 47.55640625 108.949375 48.1328125 109.40625 C51.21110999 111.8746961 54.08368533 114.46388371 56.8125 117.3125 C53.07393603 128.41136179 40.70968668 136.02140011 30.6875 141.0625 C13.54377096 148.39943488 -7.50391009 148.45588339 -24.875 142.0625 C-44.87882366 133.71138915 -57.56989728 121.1992755 -66.1875 101.3125 C-71.98051365 85.59610647 -74.31989563 66.29613358 -68.1875 50.3125 C-67.83558594 49.34183594 -67.48367187 48.37117187 -67.12109375 47.37109375 C-59.4798687 27.62495773 -46.16521953 14.21475634 -27.53515625 4.671875 C-18.3088936 0.92538795 -9.92383793 -0.14382374 0 0 Z " fill="#0178BD" transform="translate(183.1875,686.6875)"/>
<path d="M0 0 C8.81317181 6.67283008 11.95122279 15.82308453 13.79046631 26.43252563 C14.55727841 32.65867446 14.43037473 38.90662556 14.3828125 45.16796875 C14.37907297 46.63198145 14.37623045 48.09599669 14.37423706 49.56001282 C14.36667447 53.37563229 14.34709129 57.19109459 14.3248291 61.00665283 C14.30420988 64.9152209 14.2952013 68.82381486 14.28515625 72.73242188 C14.26383683 80.37376884 14.22979242 88.01498723 14.1875 95.65625 C9.82992831 97.93788679 6.48253666 97.98924594 1.625 97.96875 C0.85736328 97.98486328 0.08972656 98.00097656 -0.70117188 98.01757812 C-6.24882814 98.02241479 -6.24882814 98.02241479 -8.796875 96.3671875 C-10.4217923 93.62982681 -10.51794598 90.77852258 -10.8125 87.65625 C-11.76125 88.56375 -12.71 89.47125 -13.6875 90.40625 C-23.04668854 98.45286942 -34.88292383 99.37720195 -46.7421875 98.83544922 C-55.37013834 98.0886431 -63.72978066 94.91193767 -69.8125 88.65625 C-75.68249492 81.40153833 -77.33739434 73.65616819 -77.12109375 64.45703125 C-76.20628435 56.15426742 -72.19795757 48.99848201 -65.8125 43.65625 C-52.26226431 35.05595937 -37.30669003 34.46458367 -21.6875 34.59375 C-20.1096875 34.60051758 -20.1096875 34.60051758 -18.5 34.60742188 C-15.93743779 34.61906989 -13.37500123 34.63542447 -10.8125 34.65625 C-11.10282795 33.05869215 -11.40128066 31.46260951 -11.703125 29.8671875 C-11.86844727 28.97821777 -12.03376953 28.08924805 -12.20410156 27.17333984 C-13.39847482 22.23193201 -15.82628451 19.43263241 -19.75 16.34375 C-22.72638233 14.7037026 -24.46909696 13.96726424 -27.8125 13.65625 C-28.81796875 13.56150391 -28.81796875 13.56150391 -29.84375 13.46484375 C-35.6105402 13.15872989 -40.22574958 13.99261916 -44.8125 17.65625 C-47.10931026 20.50155227 -49.01743164 23.47408337 -50.8125 26.65625 C-55.33335539 26.11454987 -58.60547692 24.95414011 -62.5625 22.71875 C-63.50609375 22.19410156 -64.4496875 21.66945313 -65.421875 21.12890625 C-67.8125 19.65625 -67.8125 19.65625 -69.8125 17.65625 C-69.96683581 11.32848169 -65.95418996 7.00893171 -61.8125 2.65625 C-45.77945567 -11.47404004 -17.44965061 -11.40938693 0 0 Z " fill="#0278BD" transform="translate(576.8125,733.34375)"/>
<path d="M0 0 C1.15048828 0.01160156 1.15048828 0.01160156 2.32421875 0.0234375 C3.07574219 0.01570312 3.82726562 0.00796875 4.6015625 0 C9.14527877 0.01585939 12.79757185 0.55733078 17.07421875 2.2734375 C16.45802883 8.08720408 14.91223433 13.24839013 13.00390625 18.76171875 C12.6909259 19.68123322 12.37794556 20.60074768 12.05548096 21.54812622 C11.02681134 24.56308913 9.98856336 27.57463931 8.94921875 30.5859375 C8.22626888 32.69209376 7.5034516 34.79829553 6.78076172 36.90454102 C4.55921944 43.36571204 2.32010645 49.82069299 0.07421875 56.2734375 C-0.27133057 57.26670044 -0.61687988 58.25996338 -0.97290039 59.2833252 C-13.66665266 95.72721894 -13.66665266 95.72721894 -20.48828125 112.2734375 C-20.85743652 113.17376709 -21.2265918 114.07409668 -21.60693359 115.00170898 C-27.34255128 128.48445706 -34.01038889 138.63269219 -47.92578125 144.2734375 C-52.41353446 145.58971233 -56.78293385 145.45743611 -61.42578125 145.4609375 C-62.28042969 145.47318359 -63.13507813 145.48542969 -64.015625 145.49804688 C-64.84191406 145.49998047 -65.66820312 145.50191406 -66.51953125 145.50390625 C-67.26912109 145.50801514 -68.01871094 145.51212402 -68.79101562 145.51635742 C-71.20376982 145.24180454 -72.83037303 144.47094075 -74.92578125 143.2734375 C-74.95267574 140.31504395 -74.97256866 137.35689323 -74.98828125 134.3984375 C-74.99666016 133.55667969 -75.00503906 132.71492187 -75.01367188 131.84765625 C-75.01689453 131.04199219 -75.02011719 130.23632812 -75.0234375 129.40625 C-75.02867432 128.66262207 -75.03391113 127.91899414 -75.03930664 127.15283203 C-74.92578125 125.2734375 -74.92578125 125.2734375 -73.92578125 123.2734375 C-71.70264737 123.06731913 -69.47012631 122.95907279 -67.23828125 122.8984375 C-59.66963816 122.44554709 -56.49353098 120.78412612 -51.11328125 115.5234375 C-48.59935211 111.78845706 -47.92584528 108.69532582 -47.92578125 104.2734375 C-48.77630949 100.67505807 -48.77630949 100.67505807 -50.328125 97.12890625 C-50.59685425 96.45796936 -50.8655835 95.78703247 -51.14245605 95.09576416 C-51.72710606 93.64101738 -52.31979295 92.18947992 -52.91964722 90.74093628 C-54.56240817 86.77171428 -56.14461189 82.77818458 -57.73828125 78.7890625 C-58.07701767 77.94633286 -58.41575409 77.10360321 -58.76475525 76.2353363 C-62.81502328 66.12953007 -66.58758041 55.9217439 -70.36328125 45.7109375 C-71.01864771 43.94354747 -71.67416201 42.17621226 -72.32983398 40.40893555 C-73.27469116 37.86197166 -74.21786009 35.31445839 -75.15513611 32.76469421 C-76.73469602 28.46848625 -78.33971294 24.18461805 -79.98876953 19.91455078 C-80.48510643 18.61324974 -80.48510643 18.61324974 -80.99147034 17.28565979 C-81.62207067 15.63377178 -82.26107406 13.98505887 -82.90977478 12.3401947 C-83.18970779 11.60152664 -83.46964081 10.86285858 -83.75805664 10.10180664 C-84.00842178 9.45683731 -84.25878693 8.81186798 -84.51673889 8.14735413 C-85.02454668 5.82097047 -84.84085606 4.4672926 -83.92578125 2.2734375 C-79.46968194 0.78807106 -75.09467281 0.96718958 -70.42578125 0.8984375 C-69.46285156 0.86105469 -68.49992187 0.82367187 -67.5078125 0.78515625 C-66.12142578 0.76775391 -66.12142578 0.76775391 -64.70703125 0.75 C-63.86205078 0.73018066 -63.01707031 0.71036133 -62.14648438 0.68994141 C-59.92578125 1.2734375 -59.92578125 1.2734375 -58.412323 3.49472046 C-57.03169802 6.07545266 -55.93265021 8.5735414 -54.92041016 11.31640625 C-54.55638092 12.29512695 -54.19235168 13.27384766 -53.81729126 14.28222656 C-53.43285858 15.33120117 -53.0484259 16.38017578 -52.65234375 17.4609375 C-52.24672211 18.5550293 -51.84110046 19.64912109 -51.42318726 20.77636719 C-50.12766049 24.27366415 -48.83900927 27.77344627 -47.55078125 31.2734375 C-46.27060574 34.73792453 -44.98901536 38.20188558 -43.70721436 41.66577148 C-42.88603307 43.8851193 -42.06542554 46.10467952 -41.24542236 48.32446289 C-38.53155305 55.66433878 -35.77837662 62.98613505 -32.92578125 70.2734375 C-30.05276503 63.3407449 -27.55678151 56.34611608 -25.23828125 49.2109375 C-22.32859694 40.37836427 -19.3150344 31.58963673 -16.17578125 22.8359375 C-15.81137939 21.81298584 -15.44697754 20.79003418 -15.0715332 19.73608398 C-7.96009315 0.02797924 -7.96009315 0.02797924 0 0 Z " fill="#0177BD" transform="translate(330.92578125,726.7265625)"/>
<path d="M0 0 C1.55176314 -0.00102036 3.10352609 -0.0023625 4.6552887 -0.0039978 C8.80837795 -0.00668322 12.96142941 -0.00224652 17.1145134 0.00424194 C19.70745709 0.0078293 22.30039519 0.00943578 24.89334106 0.01049805 C61.87375154 0.02924355 98.84575988 0.50609528 135.8203125 1.1328125 C135.8203125 8.86214962 128.86199117 15.2417984 123.7578125 20.6953125 C118.30068924 25.98130646 111.95034934 29.98692849 105.54614258 34.02050781 C103.94776139 35.05067116 102.39688952 36.15355661 100.8515625 37.26171875 C97.37479474 39.40781637 93.9071846 40.65095241 90.0078125 41.7578125 C89.27804199 41.97018555 88.54827148 42.18255859 87.79638672 42.40136719 C81.01210201 44.27179405 74.22836473 45.13647436 67.234375 45.7734375 C63.83895518 46.0070552 63.83895518 46.0070552 60.8203125 47.1328125 C60.8203125 46.4728125 60.8203125 45.8128125 60.8203125 45.1328125 C60.16772461 45.14852295 59.51513672 45.1642334 58.84277344 45.18041992 C33.01112039 45.71650589 9.6149224 43.20811821 -13.453125 30.8671875 C-15.32708792 29.93710993 -15.32708792 29.93710993 -18.1796875 30.1328125 C-19.21779909 28.48961376 -20.21177455 26.81831608 -21.1796875 25.1328125 C-22.60044596 23.69875106 -24.06132798 22.30360708 -25.5546875 20.9453125 C-29.95982447 16.64094664 -33.38713471 12.09768644 -35.1796875 6.1328125 C-34.984375 3.90234375 -34.984375 3.90234375 -34.1796875 2.1328125 C-23.78476307 -1.33216231 -10.85119915 -0.01660796 0 0 Z " fill="#0079BE" transform="translate(533.1796875,416.8671875)"/>
<path d="M0 0 C3.54954661 2.8734425 6.03407171 6.03097134 8.37890625 9.92578125 C9.01828125 10.97765625 9.65765625 12.02953125 10.31640625 13.11328125 C11.37890625 15.92578125 11.37890625 15.92578125 11.62890625 18.55078125 C9.51690419 22.56358516 5.48655307 23.4426542 1.37890625 24.92578125 C0.30640625 25.33828125 -0.76609375 25.75078125 -1.87109375 26.17578125 C-4.72670128 26.9545833 -6.68225836 27.25231852 -9.62109375 26.92578125 C-11.578125 25.28125 -11.578125 25.28125 -13.43359375 23.11328125 C-19.55270174 16.71088122 -24.31944135 15.77614501 -33.12109375 15.48828125 C-41.23244144 15.67372956 -45.73144756 17.03613506 -51.43359375 22.73828125 C-55.87648165 29.21220361 -57.18334793 34.38520292 -57.12109375 42.11328125 C-57.11464844 42.94754639 -57.10820312 43.78181152 -57.1015625 44.64135742 C-56.86638662 52.64739431 -55.45891478 59.98737217 -49.68359375 65.9140625 C-43.45887949 70.85375052 -37.9248847 72.27197638 -30.12109375 72.23828125 C-29.00154297 72.26245117 -29.00154297 72.26245117 -27.859375 72.28710938 C-23.20359577 72.29122953 -20.52522279 71.68635011 -16.62109375 68.92578125 C-15.96109375 68.92578125 -15.30109375 68.92578125 -14.62109375 68.92578125 C-14.35296875 68.36890625 -14.08484375 67.81203125 -13.80859375 67.23828125 C-12.51986728 64.72865602 -11.09182897 62.33243889 -9.62109375 59.92578125 C-5.37124757 60.54289963 -1.44452887 61.50717534 2.62890625 62.86328125 C4.18351562 63.37181641 4.18351562 63.37181641 5.76953125 63.890625 C8.37890625 64.92578125 8.37890625 64.92578125 10.37890625 66.92578125 C10.37890625 74.33099792 6.49338346 79.51997209 1.625 84.84375 C-9.95490255 95.79509834 -22.5288944 97.33831171 -37.6953125 97.13671875 C-50.73809626 96.73857838 -63.2089914 91.1070938 -72.65625 82.12109375 C-83.83562903 69.63041579 -86.50658574 54.32686966 -85.80029297 38.09619141 C-84.61130978 23.695564 -77.11434928 10.57280649 -66.62109375 0.92578125 C-60.82017342 -3.39754616 -54.6152314 -6.27053576 -47.62109375 -8.07421875 C-46.91597656 -8.25726562 -46.21085937 -8.4403125 -45.484375 -8.62890625 C-29.34521289 -11.13895329 -13.66517501 -9.28913643 0 0 Z " fill="#0278BD" transform="translate(434.62109375,735.07421875)"/>
<path d="M0 0 C2.63115369 2.63115369 2.25122867 3.78216649 2.25396729 7.4526062 C2.25960693 8.61072815 2.26524658 9.7688501 2.27105713 10.96206665 C2.26700867 12.23899384 2.26296021 13.51592102 2.25878906 14.83154297 C2.26149806 16.18493844 2.26505847 17.53833244 2.26940918 18.89172363 C2.27854814 22.57361112 2.27498232 26.25538686 2.26865101 29.93727636 C2.26359671 33.78713634 2.26828106 37.63698658 2.27142334 41.48684692 C2.27506553 47.95495322 2.27025819 54.4230139 2.26074219 60.89111328 C2.24986633 68.36989088 2.25337585 75.84855935 2.264395 83.32733428 C2.27347166 89.74437865 2.27475102 96.16139017 2.26951766 102.57843888 C2.26639886 106.41270175 2.26598596 110.24691336 2.27259064 114.08117294 C2.27836866 117.68775281 2.27435889 121.29419214 2.26280212 124.90075684 C2.25889602 126.856128 2.26483798 128.81151105 2.27105713 130.76687622 C2.26541748 131.93063782 2.25977783 133.09439941 2.25396729 134.29342651 C2.25321323 135.30480116 2.25245918 136.3161758 2.25168228 137.35819817 C1.99507708 140.05167376 1.37920227 141.69694663 0 144 C-3.97915159 144.02886984 -7.95827653 144.04675406 -11.9375 144.0625 C-13.07380859 144.07087891 -14.21011719 144.07925781 -15.38085938 144.08789062 C-16.46044922 144.09111328 -17.54003906 144.09433594 -18.65234375 144.09765625 C-19.65257568 144.10289307 -20.65280762 144.10812988 -21.68334961 144.11352539 C-24 144 -24 144 -25 143 C-25.10077861 141.1950158 -25.13076825 139.38605535 -25.13371277 137.57826233 C-25.13797775 136.40179642 -25.14224274 135.22533051 -25.14663696 134.01321411 C-25.14595718 132.05966507 -25.14595718 132.05966507 -25.14526367 130.06665039 C-25.14825361 128.69045419 -25.15165576 127.31425882 -25.15544128 125.93806458 C-25.16430231 122.19017069 -25.16662028 118.44229961 -25.16725707 114.69439626 C-25.16820444 111.57047451 -25.17188075 108.44655814 -25.17542917 105.32263845 C-25.18358172 97.95507979 -25.18601267 90.58753336 -25.18530273 83.2199707 C-25.18470173 75.60882918 -25.19525622 67.99775848 -25.2110464 60.38663489 C-25.22410277 53.86179331 -25.22948743 47.33697493 -25.22884732 40.81212038 C-25.22859177 36.91082965 -25.23147419 33.00960182 -25.24202538 29.10832405 C-25.25167446 25.44021765 -25.25180764 21.7722347 -25.24450874 18.10412407 C-25.24295684 16.11018149 -25.25133186 14.11623901 -25.25994873 12.12231445 C-25.25575424 10.94302872 -25.25155975 9.76374298 -25.24723816 8.54872131 C-25.24778293 7.51945558 -25.24832769 6.49018984 -25.24888897 5.42973423 C-25 3 -25 3 -23 1 C-15.47108175 -0.25481971 -7.60989837 -0.5962603 0 0 Z " fill="#0078BD" transform="translate(485,687)"/>
<path d="M0 0 C0.66 0 1.32 0 2 0 C2.37697021 0.72888428 2.75394043 1.45776855 3.14233398 2.20874023 C4.58387713 4.99505067 6.02620158 7.78095514 7.46893311 10.56665039 C8.11497665 11.81452529 8.76068762 13.06257243 9.40606689 14.31079102 C12.8173619 20.90831915 16.24678291 27.4920197 19.79858398 34.01538086 C28.28712298 49.66594413 38.01923457 67.69576972 36 86 C35.10546875 88.7890625 35.10546875 88.7890625 34 91 C31.60208288 92.19895856 30.11060136 92.12920015 27.43359375 92.1328125 C26.48419922 92.13474609 25.53480469 92.13667969 24.55664062 92.13867188 C23.52732422 92.13416016 22.49800781 92.12964844 21.4375 92.125 C20.38369141 92.12306641 19.32988281 92.12113281 18.24414062 92.11914062 C6.48491935 92.05670228 -5.25557983 91.5632528 -17 91 C-20.36538582 80.90384255 -13.06056356 63.87187558 -10.62573242 53.921875 C-6.28243377 36.08435316 -3.06358138 18.09581671 0 0 Z " fill="#FAFBF1" transform="translate(589,297)"/>
<path d="M0 0 C7.28370455 3.84195405 10.85246917 9.72119244 13.37109375 17.4140625 C15.74236311 27.78334205 14.26831485 38.46805166 9.25 47.8125 C4.91075006 53.01959993 0.38572963 57.12819508 -6.546875 57.7734375 C-21.51798078 58.10540707 -21.51798078 58.10540707 -26.9375 53.4375 C-34.31169015 46.08026201 -36.19604219 37.53506195 -36.3125 27.375 C-36.26357776 21.27957253 -35.56786058 15.96990159 -32.9375 10.4375 C-32.56625 9.550625 -32.195 8.66375 -31.8125 7.75 C-24.13350581 -1.72075951 -11.25247049 -4.48565263 0 0 Z " fill="#FCFCF2" transform="translate(883.9375,750.5625)"/>
<path d="M0 0 C18.15 0 36.3 0 55 0 C56.7680198 3.5360396 56.18464913 7.60571255 56.1875 11.5 C56.19974609 12.38042969 56.21199219 13.26085937 56.22460938 14.16796875 C56.22654297 15.00972656 56.22847656 15.85148438 56.23046875 16.71875 C56.23457764 17.49154297 56.23868652 18.26433594 56.24291992 19.06054688 C56 21 56 21 54 23 C51.76086426 23.25396729 51.76086426 23.25396729 48.93945312 23.25878906 C47.35771301 23.26824554 47.35771301 23.26824554 45.74401855 23.27789307 C44.60130493 23.2738446 43.45859131 23.26979614 42.28125 23.265625 C40.52802429 23.26849518 40.52802429 23.26849518 38.73937988 23.27142334 C36.26456487 23.27278626 33.78974274 23.26908241 31.31494141 23.26074219 C27.51578795 23.25004446 23.71710741 23.26063418 19.91796875 23.2734375 C17.51822812 23.27211592 15.11848778 23.26955357 12.71875 23.265625 C11.00467957 23.27169769 11.00467957 23.27169769 9.25598145 23.27789307 C8.20148804 23.27158875 7.14699463 23.26528442 6.06054688 23.25878906 C5.1294812 23.25719788 4.19841553 23.25560669 3.23913574 23.25396729 C1 23 1 23 -1 21 C-1.24291992 19.06054688 -1.24291992 19.06054688 -1.23046875 16.71875 C-1.22853516 15.87699219 -1.22660156 15.03523437 -1.22460938 14.16796875 C-1.21236328 13.28753906 -1.20011719 12.40710938 -1.1875 11.5 C-1.18685547 10.61957031 -1.18621094 9.73914063 -1.18554688 8.83203125 C-1.14040057 2.28080115 -1.14040057 2.28080115 0 0 Z " fill="#0175BC" transform="translate(606,764)"/>
<path d="M0 0 C1.09505859 0.01804687 2.19011719 0.03609375 3.31835938 0.0546875 C5.98403462 0.10124951 8.6477664 0.16661683 11.3125 0.25 C11.18922111 1.83790012 11.05571349 3.42500804 10.91796875 5.01171875 C10.80811646 6.33755981 10.80811646 6.33755981 10.69604492 7.69018555 C9.92046219 12.86649679 7.29954112 16.57551275 3.4375 20.0625 C-3.65609103 25.02801372 -11.28816648 25.06604899 -19.6875 24.25 C-23.07098906 23.06943008 -24.93418092 21.27725329 -27.0625 18.375 C-28.31615932 14.1125583 -28.09815149 11.22774164 -26.375 7.125 C-19.50597464 -0.22325969 -9.45595891 -0.30110831 0 0 Z " fill="#F7FAF1" transform="translate(554.6875,785.75)"/>
<path d="M0 0 C1.06543706 -0.00453111 2.13087413 -0.00906223 3.22859716 -0.01373065 C6.78716754 -0.02635788 10.34558454 -0.02475531 13.9041748 -0.02310181 C16.46064449 -0.02908824 19.01711237 -0.03589405 21.57357788 -0.04345703 C27.79158517 -0.05928262 34.00953659 -0.06556514 40.22756213 -0.06668179 C45.28730823 -0.06763421 50.34704189 -0.07175423 55.40678406 -0.07808304 C69.77690702 -0.09568936 84.14700018 -0.10492331 98.51713401 -0.10342209 C99.29100005 -0.10334218 100.06486609 -0.10326227 100.86218262 -0.10317993 C102.02441275 -0.10305729 102.02441275 -0.10305729 103.21012229 -0.10293217 C115.75038423 -0.10212031 128.29052576 -0.1212344 140.83075291 -0.14945666 C153.73131355 -0.17825875 166.63181562 -0.19199282 179.53240919 -0.19026911 C186.76519323 -0.18960755 193.99785117 -0.19499633 201.23060608 -0.21662521 C208.0400035 -0.23685856 214.84913173 -0.23608878 221.65854263 -0.22159195 C224.14807144 -0.21951033 226.63761711 -0.22416582 229.12711716 -0.23631287 C246.61824018 -0.31608118 266.76012742 -0.21220543 281.19909668 11.26742554 C277.37112993 10.86448167 274.20096443 9.90643437 270.69909668 8.39242554 C256.01286117 2.45588429 241.42685949 2.83742667 225.84118652 2.87924194 C223.28719357 2.87517136 220.73320237 2.86982676 218.17921448 2.86331177 C211.99141128 2.85110236 205.80375142 2.85281976 199.61594652 2.86154969 C194.58347984 2.86835295 189.55104372 2.86923161 184.51857376 2.86597824 C183.79956601 2.86551854 183.08055826 2.86505884 182.3397624 2.86458521 C180.87867564 2.86362594 179.41758889 2.8626533 177.95650215 2.86166744 C164.29068415 2.85313479 150.62492674 2.86291482 136.95911868 2.87906854 C125.25490137 2.89247553 113.55077333 2.89013637 101.84655762 2.87631226 C88.22314856 2.86022865 74.59979244 2.85395255 60.97637522 2.86314905 C59.52157951 2.8641046 58.06678379 2.86504772 56.61198807 2.86597824 C55.89637366 2.86644107 55.18075925 2.86690389 54.44345956 2.86738075 C49.42098654 2.86996188 44.39854734 2.86561876 39.37607956 2.85853958 C32.60767201 2.84920826 25.83945824 2.85592737 19.07105827 2.87322235 C16.59275147 2.87717651 14.11443044 2.87607159 11.63612938 2.86943436 C8.24273518 2.86118671 4.84987313 2.87157957 1.45651245 2.88647461 C0.48547872 2.87978244 -0.48555501 2.87309028 -1.48601401 2.86619532 C-11.53596052 2.9512462 -20.89015806 5.44782558 -29.98840332 9.64242554 C-30.66258301 9.94479126 -31.3367627 10.24715698 -32.03137207 10.5586853 C-37.10344367 12.86489286 -42.02654985 15.38955136 -46.80090332 18.26742554 C-45.11818591 13.21927331 -40.18248023 11.57579851 -35.63781738 9.18148804 C-24.07672901 3.42860196 -12.92503268 -0.04063234 0 0 Z " fill="#0572BA" transform="translate(390.8009033203125,185.73257446289063)"/>
<path d="M0 0 C0.66 0.33 1.32 0.66 2 1 C2.02280384 29.85036929 2.04050516 58.70073751 2.05106533 87.55111404 C2.05231606 90.95578828 2.05361038 94.3604625 2.05493164 97.76513672 C2.05532511 98.78186719 2.05532511 98.78186719 2.05572652 99.81913766 C2.06007994 110.79983336 2.06796569 121.78052383 2.0771528 132.76121643 C2.08649844 144.02519887 2.09198268 155.28917869 2.09408849 166.5531652 C2.09539444 172.88131711 2.09847299 179.20945717 2.10573006 185.53760529 C2.11250099 191.48988849 2.11461475 197.44215491 2.11310768 203.3944416 C2.11338352 205.58261519 2.11538229 207.77078932 2.11920547 209.95895958 C2.12415943 212.93972191 2.12299192 215.92042036 2.12025452 218.90118408 C2.12462378 220.20857493 2.12462378 220.20857493 2.12908131 221.54237771 C2.12709026 222.3410727 2.12509921 223.13976769 2.12304783 223.96266556 C2.12342755 224.6507188 2.12380727 225.33877203 2.1241985 226.04767537 C1.99159118 228.13218151 1.56535156 229.99303888 1 232 C0.34 232 -0.32 232 -1 232 C-0.67 155.44 -0.34 78.88 0 0 Z " fill="#0774B9" transform="translate(737,258)"/>
<path d="M0 0 C3.82654457 3.82654457 3.13167737 9.59846721 3.17167664 14.74864197 C3.17802574 15.40219793 3.18437485 16.0557539 3.19091636 16.72911459 C3.21085587 18.90525373 3.22397998 21.08137801 3.23706055 23.25756836 C3.24992351 24.82343356 3.26317826 26.38929559 3.27679443 27.95515442 C3.31231169 32.19890912 3.34159504 36.44268459 3.36918616 40.68649745 C3.38671722 43.33961182 3.40558925 45.99271318 3.42493629 48.6458149 C3.49242397 57.9063452 3.55481975 67.16689409 3.61254883 76.42749023 C3.66645221 85.05263789 3.73156505 93.67765195 3.80188721 102.30267996 C3.86182141 109.71512045 3.91386644 117.12758941 3.95981437 124.54012972 C3.98737374 128.96411799 4.0181161 133.38802758 4.05682945 137.81193352 C4.09297086 141.97252685 4.11927658 146.13306899 4.1381073 150.29377556 C4.14666104 151.81795639 4.15868527 153.34212242 4.17449379 154.86624527 C4.19558227 156.95236077 4.20395895 159.03816735 4.20927429 161.12437439 C4.2171934 162.29002395 4.22511251 163.4556735 4.2332716 164.65664577 C3.97174654 168.40494136 3.14662949 171.43287728 2 175 C1.67 175 1.34 175 1 175 C0.67 117.25 0.34 59.5 0 0 Z " fill="#006AB6" transform="translate(715,257)"/>
<path d="M0 0 C1.4540625 0.0309375 1.4540625 0.0309375 2.9375 0.0625 C2.9375 0.3925 2.9375 0.7225 2.9375 1.0625 C1.2875 1.0625 -0.3625 1.0625 -2.0625 1.0625 C-2.0625 46.9325 -2.0625 92.8025 -2.0625 140.0625 C6.3525 140.5575 6.3525 140.5575 14.9375 141.0625 C14.9375 141.3925 14.9375 141.7225 14.9375 142.0625 C11.95827407 142.08933987 8.97928705 142.10926037 6 142.125 C5.14986328 142.13337891 4.29972656 142.14175781 3.42382812 142.15039062 C2.61494141 142.15361328 1.80605469 142.15683594 0.97265625 142.16015625 C0.2237915 142.16539307 -0.52507324 142.17062988 -1.29663086 142.17602539 C-3.0625 142.0625 -3.0625 142.0625 -4.0625 141.0625 C-4.16109695 139.25520354 -4.18882123 137.44401702 -4.18948364 135.6340332 C-4.19371338 133.8671666 -4.19371338 133.8671666 -4.19802856 132.06460571 C-4.19600433 130.76066864 -4.1939801 129.45673157 -4.19189453 128.11328125 C-4.19324855 126.73546299 -4.19502849 125.35764509 -4.19720459 123.97982788 C-4.20177884 120.22786453 -4.1999894 116.47592855 -4.1968255 112.72396469 C-4.19430186 108.80596592 -4.19663945 104.88796956 -4.19821167 100.9699707 C-4.20003335 94.38915585 -4.19762709 87.80835221 -4.19287109 81.22753906 C-4.18742847 73.60844557 -4.18919113 65.98937883 -4.1946975 58.37028599 C-4.19922867 51.84036562 -4.19987916 45.31045332 -4.19725883 38.78053188 C-4.19569607 34.87538146 -4.19550225 30.97024362 -4.19879532 27.06509399 C-4.20167409 23.39455532 -4.19969825 19.7240513 -4.19390106 16.05351639 C-4.19193786 14.05580951 -4.19492733 12.05809972 -4.19802856 10.06039429 C-4.19520874 8.88248322 -4.19238892 7.70457214 -4.18948364 6.4909668 C-4.18910662 5.46077927 -4.18872959 4.43059174 -4.18834114 3.3691864 C-3.99493175 -0.17603585 -3.62677258 0.07401577 0 0 Z " fill="#025FAE" transform="translate(464.0625,688.9375)"/>
<path d="M0 0 C2 2 2 2 2.24050903 4.74612427 C2.23606781 5.91416595 2.23162659 7.08220764 2.22705078 8.28564453 C2.22734283 8.92967224 2.22763489 9.57369995 2.22793579 10.23724365 C2.22654074 12.36923627 2.21097174 14.50088082 2.1953125 16.6328125 C2.19158298 18.10968841 2.18873572 19.58656678 2.18673706 21.06344604 C2.17909574 24.95317398 2.15944308 28.84275288 2.1373291 32.73242188 C2.11688135 36.70050032 2.10773764 40.66860282 2.09765625 44.63671875 C2.07619756 52.42454716 2.04205572 60.21225271 2 68 C0.02 68.495 0.02 68.495 -2 69 C-2.33 68.34 -2.66 67.68 -3 67 C-2.01 67 -1.02 67 0 67 C0 44.89 0 22.78 0 0 Z " fill="#046DB5" transform="translate(589,761)"/>
<path d="M0 0 C3.40170958 1.70085479 3.95095325 5.69147409 5.1953125 9.109375 C5.50422928 9.94005997 5.81314606 10.77074493 6.13142395 11.62660217 C7.135939 14.33198838 8.13057423 17.04089084 9.125 19.75 C9.80601792 21.59099954 10.48773937 23.43173898 11.17016602 25.2722168 C12.18242329 28.00234049 13.19423892 30.73261479 14.20332336 33.46391296 C17.02861381 41.10616865 19.93027286 48.71684607 22.91650391 56.29785156 C24.09697023 59.34443226 25 61.70153384 25 65 C24.34 65 23.68 65 23 65 C19.79331322 56.90823293 16.87641865 48.79048211 14.2109375 40.5078125 C13.21749365 37.63002999 12.09664828 34.88280879 10.87451172 32.09814453 C8.85882903 27.26208171 7.14759669 22.3039624 5.375 17.375 C4.96765625 16.25609375 4.5603125 15.1371875 4.140625 13.984375 C3.75132812 12.90414062 3.36203125 11.82390625 2.9609375 10.7109375 C2.60821777 9.73431152 2.25549805 8.75768555 1.89208984 7.75146484 C1.05673664 5.17499233 0.46933428 2.66482295 0 0 Z " fill="#0E6CB4" transform="translate(273,735)"/>
<path d="M0 0 C2.38207593 2.87972411 3.52586032 5.30374917 4.5625 8.875 C10.10257731 24.67056393 22.08876587 35.49329802 36.765625 42.65234375 C39.56664846 43.81943686 42.01243634 44.55635803 45 45 C45 45.66 45 46.32 45 47 C45.99 47.33 46.98 47.66 48 48 C42.08846631 47.53020924 37.79315438 46.3718805 32.625 43.5 C31.97724609 43.14542725 31.32949219 42.79085449 30.66210938 42.42553711 C16.54642458 34.40924392 7.0132653 21.91425687 1 7 C0.3046875 3.0703125 0.3046875 3.0703125 0 0 Z " fill="#0967B1" transform="translate(116,781)"/>
<path d="M0 0 C-0.81404297 0.47179687 -0.81404297 0.47179687 -1.64453125 0.953125 C-6.09931133 3.53241083 -6.09931133 3.53241083 -9.625 7.1875 C-11 9 -11 9 -14.0625 10 C-17.05460919 10.66788694 -17.05460919 10.66788694 -18.0625 12.75 C-18.371875 13.4925 -18.68125 14.235 -19 15 C-22.10600353 18.94546394 -25.40133189 22.49129859 -29 26 C-29.928125 26.928125 -30.85625 27.85625 -31.8125 28.8125 C-32.534375 29.534375 -33.25625 30.25625 -34 31 C-32.31522733 20.16213401 -17.60597817 9.3382533 -9.33984375 2.94140625 C-3.50342868 -1.16780956 -3.50342868 -1.16780956 0 0 Z " fill="#0A6EB7" transform="translate(339,181)"/>
<path d="M0 0 C1.5240413 0.40477556 3.04409347 0.82457462 4.5625 1.25 C5.83287109 1.59804688 5.83287109 1.59804688 7.12890625 1.953125 C10 3 10 3 17 7 C17 23.83 17 40.66 17 58 C16.67 58 16.34 58 16 58 C15.67 41.5 15.34 25 15 8 C10.71 6.35 6.42 4.7 2 3 C1.34 2.67 0.68 2.34 0 2 C0 1.34 0 0.68 0 0 Z " fill="#005FB2" transform="translate(351,570)"/>
<path d="M0 0 C-1.28197266 0.52400391 -1.28197266 0.52400391 -2.58984375 1.05859375 C-3.69457031 1.51363281 -4.79929687 1.96867187 -5.9375 2.4375 C-7.59072266 3.11619141 -7.59072266 3.11619141 -9.27734375 3.80859375 C-11.86568916 4.74424608 -11.86568916 4.74424608 -13 6 C-14.42554686 15.57404311 -14.10291316 25.34903241 -14 35 C-14.99 35.495 -14.99 35.495 -16 36 C-16.12361526 31.49774209 -16.21434063 26.99647151 -16.2746582 22.49291992 C-16.29980078 20.96116939 -16.33392047 19.42953883 -16.37719727 17.89819336 C-16.43786942 15.69615116 -16.46620891 13.49569426 -16.48828125 11.29296875 C-16.51408768 10.60849167 -16.5398941 9.92401459 -16.56648254 9.21879578 C-16.56762695 7.27807617 -16.56762695 7.27807617 -16 4 C-11.45667042 0.30352822 -5.69877031 -1.74579397 0 0 Z " fill="#35D4EA" transform="translate(325,443)"/>
<path d="M0 0 C12.50544113 4.51767245 23.44274144 16.41483321 31 27 C30.34 27.33 29.68 27.66 29 28 C26.24200902 26.62100451 25.56147404 24.62327638 24 22 C23.443125 21.443125 22.88625 20.88625 22.3125 20.3125 C21.879375 19.879375 21.44625 19.44625 21 19 C21 18.34 21 17.68 21 17 C20.43925781 16.75894531 19.87851562 16.51789063 19.30078125 16.26953125 C16.52556993 14.7382177 14.49968649 12.85403695 12.1875 10.6875 C9.18692812 7.92697387 6.2246832 5.3263584 2.875 3 C1.92625 2.34 0.9775 1.68 0 1 C0 0.67 0 0.34 0 0 Z " fill="#0B6EB6" transform="translate(687,181)"/>
<path d="M0 0 C2.54261188 2.4409074 4.85429885 4.998088 7.125 7.6875 C14.4367444 16.02599999 21.54791084 22.0456925 32 26 C32 26.66 32 27.32 32 28 C18.875656 24.54622526 8.6769895 15.03250616 1.21484375 4.1015625 C0 2 0 2 0 0 Z " fill="#0D6CB4" transform="translate(686,799)"/>
<path d="M0 0 C4.76889319 -0.54748623 7.19523426 0.39540484 10.953125 3.359375 C11.50484375 3.81828125 12.0565625 4.2771875 12.625 4.75 C13.18445313 5.1934375 13.74390625 5.636875 14.3203125 6.09375 C17.39860999 8.5621961 20.27118533 11.15138371 23 14 C21.52670958 19.00918744 18.72484762 21.51807722 15 25 C14.34 24.67 13.68 24.34 13 24 C15.31 21.36 17.62 18.72 20 16 C17.88297033 11.76594066 16.45485228 10.55649837 12.6875 7.875 C11.27017578 6.85019531 11.27017578 6.85019531 9.82421875 5.8046875 C7.22079704 4.14109023 4.95690637 2.88162368 2 2 C1.01 2.33 0.02 2.66 -1 3 C-0.67 2.01 -0.34 1.02 0 0 Z " fill="#0B66B2" transform="translate(217,790)"/>
<path d="M0 0 C2.37354905 2.15298872 3.6901054 4.09159603 4.97265625 7.01953125 C5.31490234 7.79490234 5.65714844 8.57027344 6.00976562 9.36914062 C6.35716797 10.17544922 6.70457031 10.98175781 7.0625 11.8125 C7.41376953 12.60720703 7.76503906 13.40191406 8.12695312 14.22070312 C13.62271103 26.78095133 13.62271103 26.78095133 12 31 C12 30.34 12 29.68 12 29 C11.34 29 10.68 29 10 29 C9.773125 27.9275 9.54625 26.855 9.3125 25.75 C7.54570163 18.65756655 4.49326002 11.93502832 1.1875 5.4375 C0 3 0 3 0 0 Z " fill="#0E6FB7" transform="translate(724,219)"/>
<path d="M0 0 C4.32174354 3.9713319 7.67537356 7.59142239 8.25 13.625 C6.13360272 17.64615483 2.17566343 18.6594981 -2 20 C-4.36568038 20.5152117 -6.58044097 20.79408008 -9 21 C-6.81385576 18.81385576 -5.46120051 18.31743465 -2.5625 17.375 C-1.38880859 16.98441406 -1.38880859 16.98441406 -0.19140625 16.5859375 C2 16 2 16 5 16 C4.58866958 10.03570884 3.62966256 6.91760734 0 2 C0 1.34 0 0.68 0 0 Z " fill="#0766B2" transform="translate(438,740)"/>
<path d="M0 0 C1.02083333 0.875 2.04166667 1.75 3.0625 2.625 C4.03123047 3.44484375 4.03123047 3.44484375 5.01953125 4.28125 C6.25429974 5.35284396 7.46538169 6.45316403 8.63671875 7.59375 C13.45733924 12.1692542 18.70221365 14.06397165 25 16 C24.67 16.66 24.34 17.32 24 18 C14.29291198 15.45387855 5.87106472 10.29339212 0 2 C0 1.34 0 0.68 0 0 Z " fill="#0E6CB3" transform="translate(359,811)"/>
<path d="M0 0 C0.33 0 0.66 0 1 0 C1 4.95 1 9.9 1 15 C6.61 15.33 12.22 15.66 18 16 C18 16.33 18 16.66 18 17 C15.02077407 17.02683987 12.04178705 17.04676037 9.0625 17.0625 C7.78729492 17.07506836 7.78729492 17.07506836 6.48632812 17.08789062 C5.67744141 17.09111328 4.86855469 17.09433594 4.03515625 17.09765625 C3.2862915 17.10289307 2.53742676 17.10812988 1.76586914 17.11352539 C0 17 0 17 -1 16 C-1.09942806 13.87691847 -1.12969184 11.75040328 -1.125 9.625 C-1.12757813 8.46226562 -1.13015625 7.29953125 -1.1328125 6.1015625 C-1 3 -1 3 0 0 Z " fill="#0564B0" transform="translate(461,814)"/>
<path d="M0 0 C-1.08667969 0.56267578 -1.08667969 0.56267578 -2.1953125 1.13671875 C-11.78205846 6.14751048 -11.78205846 6.14751048 -19 14 C-19.66 14 -20.32 14 -21 14 C-18.34775913 7.6938741 -12.3516169 3.4642143 -6.6875 -0.0625 C-3.76424079 -1.08224159 -2.8540811 -0.87022089 0 0 Z M-22 14 C-21.67 14.66 -21.34 15.32 -21 16 C-21.99 17.32 -22.98 18.64 -24 20 C-23.125 15.125 -23.125 15.125 -22 14 Z " fill="#0965B2" transform="translate(852,731)"/>
<path d="M0 0 C3.36179774 1.44077046 5.59156268 3.24750021 8 6 C8 6.66 8 7.32 8 8 C10.33165034 8.33498301 10.33165034 8.33498301 13 8 C15.18777466 6.0624994 15.18777466 6.0624994 17 4 C17.66 4 18.32 4 19 4 C19 3.34 19 2.68 19 2 C20.32 1.67 21.64 1.34 23 1 C20.01499954 5.01826985 17.09979025 8.15524758 13 11 C9.62246919 10.88015213 8.27881301 10.25302402 5.76171875 7.96875 C5.07722656 7.1540625 4.39273438 6.339375 3.6875 5.5 C2.99011719 4.6853125 2.29273438 3.870625 1.57421875 3.03125 C0 1 0 1 0 0 Z " fill="#0A67B1" transform="translate(209,721)"/>
<path d="M0 0 C0.66 0.66 1.32 1.32 2 2 C-2.63652991 10.93529936 -7.55225792 17.22660076 -15 24 C-15.66 23.67 -16.32 23.34 -17 23 C-16.43410156 22.44570313 -15.86820313 21.89140625 -15.28515625 21.3203125 C-14.55167969 20.59585938 -13.81820312 19.87140625 -13.0625 19.125 C-12.33160156 18.40570312 -11.60070312 17.68640625 -10.84765625 16.9453125 C-8.94332001 15.12972808 -8.94332001 15.12972808 -8 13 C-7.34 13 -6.68 13 -6 13 C-5.7525 12.34 -5.505 11.68 -5.25 11 C-3.68182955 7.23639093 -1.85494954 3.6288576 0 0 Z " fill="#0967B1" transform="translate(802,795)"/>
<path d="M0 0 C-1.4562545 0.67119549 -2.91507867 1.33681807 -4.375 2 C-5.18710937 2.37125 -5.99921875 2.7425 -6.8359375 3.125 C-9 4 -9 4 -11 4 C-11 4.66 -11 5.32 -11 6 C-11.9075 6.4125 -12.815 6.825 -13.75 7.25 C-16.79665618 8.89050718 -18.71126806 10.44718361 -21 13 C-21.66 12.67 -22.32 12.34 -23 12 C-7.97331223 -2.68160725 -7.97331223 -2.68160725 0 0 Z " fill="#0A69B5" transform="translate(385,730)"/>
<path d="M0 0 C4.03420177 0.55224572 6.12391234 2.60438981 9.0625 5.3125 C9.91972656 6.09238281 10.77695312 6.87226562 11.66015625 7.67578125 C13.71644401 9.71833754 15.49476838 11.527472 17 14 C17 15.32 17 16.64 17 18 C16.34 18 15.68 18 15 18 C14.79375 17.29875 14.5875 16.5975 14.375 15.875 C12.80420543 12.59061135 10.90859326 10.74965753 8.2421875 8.33203125 C7 7 7 7 7 5 C6.401875 4.731875 5.80375 4.46375 5.1875 4.1875 C3.02775192 3.01506533 1.64209744 1.80630718 0 0 Z " fill="#0F6BB3" transform="translate(784,699)"/>
<path d="M0 0 C2.40179198 2.22518963 4.03886604 4.52950403 5.75 7.3125 C8.62922247 11.73210649 11.88631562 14.76630481 16 18 C16.66 18.66 17.32 19.32 18 20 C11.49494947 19.25656565 8.24831172 15.47193298 4.25 10.625 C1.58490302 7.12742153 0.11586374 4.51868577 0 0 Z " fill="#0C6BB3" transform="translate(705,781)"/>
<path d="M0 0 C7.70811775 0.24864896 12.82560545 2.36643282 19 7 C21.625 9.875 21.625 9.875 23 12 C22.01 12 21.02 12 20 12 C19.773125 11.38125 19.54625 10.7625 19.3125 10.125 C17.54981271 7.27112534 16.17456625 7.08070341 13 6 C11.47372696 5.34588298 9.9532672 4.67810638 8.4375 4 C7.69371094 3.67 6.94992187 3.34 6.18359375 3 C4.09748581 2.04464466 2.04553285 1.03900081 0 0 Z " fill="#0F6BB3" transform="translate(560,728)"/>
<path d="M0 0 C-3.70467232 2.35689041 -7.40969767 4.09629594 -11.5 5.6875 C-12.6034375 6.12449219 -13.706875 6.56148438 -14.84375 7.01171875 C-17.79364014 7.93538484 -19.94181757 8.21110588 -23 8 C-19.49616201 5.664108 -15.8977159 4.02581489 -12.0625 2.3125 C-11.34642578 1.97927734 -10.63035156 1.64605469 -9.89257812 1.30273438 C-9.19712891 0.99271484 -8.50167969 0.68269531 -7.78515625 0.36328125 C-7.15488525 0.07751221 -6.52461426 -0.20825684 -5.87524414 -0.50268555 C-3.59166894 -1.10828933 -2.21508048 -0.73508901 0 0 Z " fill="#0D80C5" transform="translate(698,437)"/>
<path d="M0 0 C0.33 0.33 0.66 0.66 1 1 C2.41327947 1.15620555 3.8335459 1.25056173 5.25390625 1.31640625 C6.10791016 1.35830078 6.96191406 1.40019531 7.84179688 1.44335938 C8.73962891 1.48267578 9.63746094 1.52199219 10.5625 1.5625 C11.46419922 1.60568359 12.36589844 1.64886719 13.29492188 1.69335938 C15.52978485 1.79978142 17.76476308 1.90179988 20 2 C20 2.33 20 2.66 20 3 C-1.72340426 3.38297872 -1.72340426 3.38297872 -11 1 C-6.80117625 -1.79921583 -4.87872887 -0.86558093 0 0 Z " fill="#2688C0" transform="translate(736,829)"/>
<path d="M0 0 C3 1 3 1 5 4 C10.29001534 6.99076031 15.89168518 9.50473123 22 10 C22 10.66 22 11.32 22 12 C14.06762212 11.55931234 7.51040404 8.9253367 1.375 3.8125 C0 2 0 2 0 0 Z " fill="#1372B6" transform="translate(506,819)"/>
<path d="M0 0 C5.73842251 -0.20413361 10.60539047 -0.27141454 16 2 C15.67 3.65 15.34 5.3 15 7 C14.67 5.68 14.34 4.36 14 3 C9.05 2.67 4.1 2.34 -1 2 C-0.67 1.34 -0.34 0.68 0 0 Z " fill="#0367B2" transform="translate(332,727)"/>
<path d="M0 0 C0.99 0.33 1.98 0.66 3 1 C2.278125 1.556875 1.55625 2.11375 0.8125 2.6875 C-1.97865112 4.98244648 -4.47974967 7.4134273 -7 10 C-8 11 -9 12 -10 13 C-10.66 12.67 -11.32 12.34 -12 12 C-9.57204224 6.65849292 -4.99845988 2.91576827 0 0 Z " fill="#0C6FB7" transform="translate(707,698)"/>
<path d="M0 0 C0.66 0 1.32 0 2 0 C6.13244055 5.10061233 9.37138211 11.00675121 12 17 C11.67 17.66 11.34 18.32 11 19 C9.15929441 16.21312902 7.32871822 13.41974873 5.5 10.625 C4.97535156 9.8309375 4.45070313 9.036875 3.91015625 8.21875 C3.41386719 7.45820313 2.91757812 6.69765625 2.40625 5.9140625 C1.94541016 5.2123291 1.48457031 4.5105957 1.00976562 3.78759766 C0 2 0 2 0 0 Z " fill="#0D6CB4" transform="translate(696,217)"/>
<path d="M0 0 C2.74917214 1.37458607 3.01411102 2.96513017 4.25 5.75 C6.52310396 10.4861987 8.71912327 13.01334182 13 16 C12.34 16.33 11.68 16.66 11 17 C5.32413415 13.31945041 1.95049106 10.58290734 0 4 C0 2.68 0 1.36 0 0 Z " fill="#0B69B2" transform="translate(848,790)"/>
<path d="M0 0 C0.33 0.99 0.66 1.98 1 3 C-0.16828969 4.66898528 -1.34647927 6.33238358 -2.5859375 7.94921875 C-4.94484314 11.37028356 -6.44263341 15.16313595 -8 19 C-8.93045933 16.44855176 -9.08564091 15.25993522 -8.22265625 12.640625 C-7.83980469 11.85171875 -7.45695313 11.0628125 -7.0625 10.25 C-6.49208984 9.05117188 -6.49208984 9.05117188 -5.91015625 7.828125 C-5.60980469 7.22484375 -5.30945313 6.6215625 -5 6 C-4.34 6 -3.68 6 -3 6 C-2.690625 5.195625 -2.38125 4.39125 -2.0625 3.5625 C-1 1 -1 1 0 0 Z " fill="#0B6BB3" transform="translate(150,727)"/>
<path d="M0 0 C0.66 0 1.32 0 2 0 C1.67 5.61 1.34 11.22 1 17 C0.34 16.67 -0.32 16.34 -1 16 C-1.02712153 14.083412 -1.04645097 12.1667127 -1.0625 10.25 C-1.07410156 9.18265625 -1.08570313 8.1153125 -1.09765625 7.015625 C-1.01510087 4.46631499 -0.74617558 2.42066409 0 0 Z " fill="#1276BA" transform="translate(287,247)"/>
<path d="M0 0 C4.85670173 0.41730344 7.45136075 2.8000858 10.8125 6.0625 C11.56563477 6.77116211 11.56563477 6.77116211 12.33398438 7.49414062 C13.56422789 8.65408452 14.78327065 9.82588815 16 11 C15.34 11.66 14.68 12.32 14 13 C13.34 11.68 12.68 10.36 12 9 C11.34 9 10.68 9 10 9 C8.31066078 7.3563186 6.64740076 5.6857124 5 4 C3.35135455 2.64444707 1.68996005 1.30368347 0 0 Z " fill="#097DC3" transform="translate(438,233)"/>
<path d="M0 0 C1.27617187 0.02320313 2.55234375 0.04640625 3.8671875 0.0703125 C5.78917969 0.09738281 5.78917969 0.09738281 7.75 0.125 C9.23113281 0.15980469 9.23113281 0.15980469 10.7421875 0.1953125 C10.7421875 1.1853125 10.7421875 2.1753125 10.7421875 3.1953125 C5.4621875 2.8653125 0.1821875 2.5353125 -5.2578125 2.1953125 C-3.2578125 0.1953125 -3.2578125 0.1953125 0 0 Z " fill="#1273B6" transform="translate(474.2578125,686.8046875)"/>
<path d="M0 0 C1.15224028 0.92961422 2.29659176 1.8690125 3.4375 2.8125 C4.07558594 3.33457031 4.71367187 3.85664063 5.37109375 4.39453125 C7 6 7 6 8 9 C5.36 8.34 2.72 7.68 0 7 C0 4.66666667 0 2.33333333 0 0 Z " fill="#CEECED" transform="translate(507,437)"/>
<path d="M0 0 C0.99 0.33 1.98 0.66 3 1 C2.61471495 7.16456078 0.52913975 10.98627748 -3 16 C-3.33 15.01 -3.66 14.02 -4 13 C-2.99083338 11.27465062 -1.97798943 9.55100526 -0.92578125 7.8515625 C0.39910578 5.20178844 0.28303909 2.90115065 0 0 Z " fill="#106DB4" transform="translate(442,801)"/>
<path d="M0 0 C0.66 0.99 1.32 1.98 2 3 C0.71034824 4.37562854 -0.62689293 5.70766393 -2 7 C-2.66 7 -3.32 7 -4 7 C-4 7.99 -4 8.98 -4 10 C-4.99 10.33 -5.98 10.66 -7 11 C-6.40716379 7.60807637 -5.23256811 5.7892243 -2.9375 3.25 C-2.38964844 2.63640625 -1.84179688 2.0228125 -1.27734375 1.390625 C-0.85582031 0.93171875 -0.43429687 0.4728125 0 0 Z " fill="#0A6EB6" transform="translate(511,777)"/>
<path d="M0 0 C6.22725067 1.65391768 11.53962558 3.55759004 17 7 C16.67 7.66 16.34 8.32 16 9 C14.08259417 8.21012527 12.16610359 7.41802852 10.25 6.625 C9.18265625 6.18414063 8.1153125 5.74328125 7.015625 5.2890625 C4.62444074 4.26692415 2.30616817 3.19786405 0 2 C0 1.34 0 0.68 0 0 Z " fill="#096CB6" transform="translate(351,570)"/>
<path d="M0 0 C0.94875 0.04125 1.8975 0.0825 2.875 0.125 C2.875 0.785 2.875 1.445 2.875 2.125 C0.565 2.455 -1.745 2.785 -4.125 3.125 C-4.269375 3.888125 -4.41375 4.65125 -4.5625 5.4375 C-5.125 8.125 -5.125 8.125 -6.125 11.125 C-6.785 11.125 -7.445 11.125 -8.125 11.125 C-7.67417531 9.66432801 -7.21406463 8.20651968 -6.75 6.75 C-6.49476563 5.93789063 -6.23953125 5.12578125 -5.9765625 4.2890625 C-4.60251788 0.79722434 -3.78804955 0.15152198 0 0 Z " fill="#1875B8" transform="translate(586.125,259.875)"/>
<path d="M0 0 C-2.79738782 1.5067748 -5.40322432 2.48224115 -8.5 3.1875 C-9.2528125 3.36667969 -10.005625 3.54585937 -10.78125 3.73046875 C-13.14833379 4.01801942 -14.74544015 3.72248395 -17 3 C-11.17521449 -0.03901852 -6.51791392 -0.3540919 0 0 Z " fill="#0A67B3" transform="translate(175,688)"/>
<path d="M0 0 C0.99 0.33 1.98 0.66 3 1 C1.47005208 2.23697917 -0.05989583 3.47395833 -1.58984375 4.7109375 C-3.13266437 5.9666391 -3.13266437 5.9666391 -4 8 C-4.66 8 -5.32 8 -6 8 C-6.28875 8.61875 -6.5775 9.2375 -6.875 9.875 C-8 12 -8 12 -10 14 C-9.54261927 9.31808451 -7.80889606 7.36895826 -4.4375 4.1875 C-3.61121094 3.39730469 -2.78492188 2.60710937 -1.93359375 1.79296875 C-1.29550781 1.20128906 -0.65742188 0.60960937 0 0 Z " fill="#077AC3" transform="translate(377,237)"/>
<path d="M0 0 C3.91939465 3.80411834 7.49102731 7.81576108 11 12 C10.01 12 9.02 12 8 12 C5.95703125 9.8828125 5.95703125 9.8828125 3.8125 7.125 C3.09707031 6.22007812 2.38164062 5.31515625 1.64453125 4.3828125 C0 2 0 2 0 0 Z " fill="#0D70B6" transform="translate(307,535)"/>
<path d="M0 0 C1.43410153 3.78819273 0.51009497 6.06521279 -0.9375 9.75 C-1.31777344 10.73484375 -1.69804687 11.7196875 -2.08984375 12.734375 C-2.39019531 13.48203125 -2.69054687 14.2296875 -3 15 C-3.66 15 -4.32 15 -5 15 C-4.43174347 9.45949887 -2.37113483 4.96284034 0 0 Z " fill="#1684C6" transform="translate(364,252)"/>
<path d="M0 0 C0.66 0.66 1.32 1.32 2 2 C0.71344735 3.81613362 -0.57939995 5.62780954 -1.875 7.4375 C-2.95394531 8.95150391 -2.95394531 8.95150391 -4.0546875 10.49609375 C-6 13 -6 13 -8 14 C-6.46162154 10.80375738 -4.71133468 7.78394426 -2.875 4.75 C-2.33617187 3.85796875 -1.79734375 2.9659375 -1.2421875 2.046875 C-0.62730469 1.03367187 -0.62730469 1.03367187 0 0 Z " fill="#0D6EB6" transform="translate(721,527)"/>
<path d="M0 0 C0.66 0 1.32 0 2 0 C2.53394179 1.4117783 3.05165104 2.82970244 3.5625 4.25 C3.85253906 5.03890625 4.14257812 5.8278125 4.44140625 6.640625 C5.04522837 9.19103452 4.8473932 10.55322229 4 13 C4 12.34 4 11.68 4 11 C3.34 11 2.68 11 2 11 C1.34 7.37 0.68 3.74 0 0 Z " fill="#1877BA" transform="translate(732,237)"/>
<path d="M0 0 C0.66 0.33 1.32 0.66 2 1 C0.19587357 4.26460973 -0.83394693 5.88929795 -4 8 C-4 4 -4 4 -2 1.75 C-1.01 0.88375 -1.01 0.88375 0 0 Z " fill="#0C70B6" transform="translate(892,799)"/>
<path d="M0 0 C1 1.33333333 2 2.66666667 3 4 C3.86625 5.0209375 3.86625 5.0209375 4.75 6.0625 C5.1625 6.701875 5.575 7.34125 6 8 C5.67 8.99 5.34 9.98 5 11 C3.96680187 9.7391988 2.94875621 8.46596742 1.9375 7.1875 C1.08478516 6.12595703 1.08478516 6.12595703 0.21484375 5.04296875 C-0.18605469 4.36878906 -0.58695312 3.69460938 -1 3 C-0.67 2.01 -0.34 1.02 0 0 Z " fill="#0C81C4" transform="translate(367,305)"/>
<path d="M0 0 C1.48117801 0.28127421 2.95993249 0.57533732 4.4375 0.875 C5.67306641 1.11863281 5.67306641 1.11863281 6.93359375 1.3671875 C7.61550781 1.57601562 8.29742187 1.78484375 9 2 C9.33 2.66 9.66 3.32 10 4 C8.02 4.33 6.04 4.66 4 5 C3.67 4.34 3.34 3.68 3 3 C2.01 2.67 1.02 2.34 0 2 C0 1.34 0 0.68 0 0 Z " fill="#057CC4" transform="translate(422,226)"/>
<path d="M0 0 C1.84765625 0.33984375 1.84765625 0.33984375 4.0625 0.9375 C5.16271484 1.22947266 5.16271484 1.22947266 6.28515625 1.52734375 C7.13400391 1.76130859 7.13400391 1.76130859 8 2 C8 2.66 8 3.32 8 4 C8.99 4.33 9.98 4.66 11 5 C2.42857143 4.28571429 2.42857143 4.28571429 -1 1 C-0.67 0.67 -0.34 0.34 0 0 Z " fill="#106FB4" transform="translate(153,824)"/>
<path d="M0 0 C0.66 0 1.32 0 2 0 C2.8638129 1.45264038 3.71580454 2.9123163 4.5625 4.375 C5.27599609 5.59316406 5.27599609 5.59316406 6.00390625 6.8359375 C6.33261719 7.55007813 6.66132812 8.26421875 7 9 C6.67 9.66 6.34 10.32 6 11 C4.9944239 9.54550599 3.99569565 8.08627557 3 6.625 C2.443125 5.81289063 1.88625 5.00078125 1.3125 4.1640625 C0 2 0 2 0 0 Z " fill="#0B6AB1" transform="translate(824,801)"/>
<path d="M0 0 C0.66 0.66 1.32 1.32 2 2 C0.5437455 2.67119549 -0.91507867 3.33681807 -2.375 4 C-3.59316406 4.556875 -3.59316406 4.556875 -4.8359375 5.125 C-7 6 -7 6 -9 6 C-9 5.34 -9 4.68 -9 4 C-6.03 2.68 -3.06 1.36 0 0 Z " fill="#0F83C7" transform="translate(436,325)"/>
<path d="M0 0 C0.66 0.33 1.32 0.66 2 1 C0.35 4.3 -1.3 7.6 -3 11 C-3.66 10.34 -4.32 9.68 -5 9 C-4.3566152 7.686298 -3.71021785 6.37407102 -3.0625 5.0625 C-2.70285156 4.33160156 -2.34320313 3.60070312 -1.97265625 2.84765625 C-1 1 -1 1 0 0 Z " fill="#1273B8" transform="translate(320,228)"/>
<path d="M0 0 C3 1 3 1 5 4 C6.96752828 5.06246527 8.96587579 6.07137808 11 7 C10.01 7.33 9.02 7.66 8 8 C4.17275043 5.89110738 1.50139512 4.20390632 0 0 Z " fill="#0B68B1" transform="translate(506,819)"/>
<path d="M0 0 C0.66 0 1.32 0 2 0 C2 0.66 2 1.32 2 2 C-0.1875 4.1875 -0.1875 4.1875 -3 6 C-5.8125 5.75 -5.8125 5.75 -8 5 C-7.67 4.34 -7.34 3.68 -7 3 C-5.33499557 2.65846063 -3.66821323 2.32550502 -2 2 C-1.34 1.34 -0.68 0.68 0 0 Z " fill="#0966B1" transform="translate(788,725)"/>
<path d="M0 0 C0 0.66 0 1.32 0 2 C-0.61875 2.45375 -1.2375 2.9075 -1.875 3.375 C-4.13442278 5.10279389 -4.92750301 6.40813228 -6 9 C-6.99 8.34 -7.98 7.68 -9 7 C-7.88121617 5.82737096 -6.75476949 4.66204862 -5.625 3.5 C-4.68527344 2.52546875 -4.68527344 2.52546875 -3.7265625 1.53125 C-2 0 -2 0 0 0 Z " fill="#1B78B7" transform="translate(139,703)"/>
<path d="M0 0 C1.06505018 3.19515053 1.27693153 3.99008996 0 7 C-2.5625 9.25 -2.5625 9.25 -5 11 C-4.32902328 6.80639551 -2.1441606 3.59665648 0 0 Z " fill="#096BB3" transform="translate(284,835)"/>
<path d="M0 0 C2.1723491 3.25852365 4.07119658 6.59244728 6 10 C5.01 10 4.02 10 3 10 C0.39749195 6.62637846 -0.36265043 4.23092172 0 0 Z " fill="#1272B9" transform="translate(367,628)"/>
<path d="M0 0 C0.68707555 2.49064888 1 4.37886292 1 7 C-0.98 7 -2.96 7 -5 7 C-4.67 6.34 -4.34 5.68 -4 5 C-3.34 5 -2.68 5 -2 5 C-1.34 3.35 -0.68 1.7 0 0 Z " fill="#0E7FBD" transform="translate(484,824)"/>
<path d="M0 0 C0.66 0.33 1.32 0.66 2 1 C-0.64 2.98 -3.28 4.96 -6 7 C-6.66 6.67 -7.32 6.34 -8 6 C-5.36 4.02 -2.72 2.04 0 0 Z " fill="#0B69B4" transform="translate(406,625)"/>
<path d="M0 0 C0.99 0.33 1.98 0.66 3 1 C2.690625 1.598125 2.38125 2.19625 2.0625 2.8125 C0.89790296 5.08956772 0.89790296 5.08956772 0 8 C-0.66 8 -1.32 8 -2 8 C-1.34 5.36 -0.68 2.72 0 0 Z " fill="#1272B7" transform="translate(557,330)"/>
<path d="M0 0 C3.03869411 1.51934706 3.64410306 3.98004772 5 7 C5 7.66 5 8.32 5 9 C4.01 8.67 3.02 8.34 2 8 C0.5522078 5.10441559 0 3.25811062 0 0 Z " fill="#0377C1" transform="translate(361,295)"/>
<path d="M0 0 C0.66 0 1.32 0 2 0 C2.66 1.65 3.32 3.3 4 5 C2.68 5.99 1.36 6.98 0 8 C0 5.36 0 2.72 0 0 Z " fill="#EEF8F3" transform="translate(589,297)"/>
<path d="M0 0 C2 3 2 3 1.625 5.6875 C1.41875 6.450625 1.2125 7.21375 1 8 C0.01 8 -0.98 8 -2 8 C-1.47731534 5.23723823 -0.89130413 2.6739124 0 0 Z " fill="#177ABA" transform="translate(292,232)"/>
</svg>
