<svg width="150" height="150" viewBox="0 0 150 150" fill="none" xmlns="http://www.w3.org/2000/svg">
<g clip-path="url(#clip0_1456_2693)">
<path d="M0 0C49.5 0 99 0 150 0C150 49.5 150 99 150 150C100.5 150 51 150 0 150C0 100.5 0 51 0 0Z" fill="white"/>
<path d="M57.754 23.8564C57.9035 23.856 58.0529 23.8556 58.2069 23.8551C58.7067 23.8538 59.2065 23.8536 59.7062 23.8534C60.0651 23.8527 60.4239 23.852 60.7828 23.8512C61.7574 23.8493 62.7321 23.8483 63.7067 23.8477C64.3167 23.8473 64.9266 23.8466 65.5366 23.846C67.229 23.8442 68.9214 23.8427 70.6139 23.8422C70.7762 23.8422 70.7762 23.8422 70.9418 23.8421C71.1045 23.8421 71.1045 23.8421 71.2705 23.842C71.4903 23.8419 71.71 23.8419 71.9298 23.8418C72.0388 23.8418 72.1478 23.8417 72.2601 23.8417C74.0218 23.8411 75.7834 23.8386 77.545 23.8352C79.3584 23.8317 81.1719 23.8299 82.9853 23.8297C84.0015 23.8296 85.0177 23.8287 86.0339 23.8261C86.9917 23.8235 87.9494 23.8233 88.9072 23.8246C89.2565 23.8247 89.6057 23.8241 89.955 23.8226C92.9649 23.8108 95.8065 23.9572 98.584 25.1954C98.7368 25.2616 98.8895 25.3279 99.0469 25.3962C103.348 27.3966 106.112 31.0825 107.779 35.4138C108.369 37.2832 108.296 39.2324 108.295 41.1686C108.295 41.4924 108.296 41.8163 108.298 42.1401C108.3 43.0151 108.301 43.8901 108.301 44.7651C108.301 45.313 108.302 45.8609 108.303 46.4088C108.305 48.225 108.307 50.0412 108.306 51.8574C108.306 51.955 108.306 52.0526 108.306 52.1531C108.306 52.2508 108.306 52.3486 108.306 52.4492C108.306 54.0317 108.309 55.6142 108.313 57.1966C108.317 58.8273 108.319 60.458 108.319 62.0887C108.319 63.0019 108.32 63.9151 108.323 64.8282C108.326 65.6877 108.326 66.5471 108.324 67.4066C108.323 67.7202 108.324 68.0338 108.326 68.3474C108.349 72.6283 107.077 76.6252 104.15 79.834C104.05 79.9462 103.95 80.0584 103.847 80.1739C102.533 81.5681 100.888 82.6623 99.17 83.4961C98.9808 83.5902 98.9808 83.5902 98.7877 83.6861C95.6523 85.121 92.4516 85.0578 89.083 85.0311C88.4029 85.0267 87.7229 85.0275 87.0428 85.0279C85.0276 85.0282 83.0125 85.0214 80.9974 85.0118C79.4251 85.0045 77.8529 84.9994 76.2805 85.0014C75.4745 85.0021 74.6687 84.9982 73.8627 84.9906C73.3607 84.9869 72.8587 84.9875 72.3567 84.9893C72.1257 84.9893 71.8947 84.9875 71.6638 84.9838C70.1282 84.9602 69.0823 85.2192 67.8223 86.1329C67.611 86.2756 67.3997 86.4183 67.1883 86.5609C66.9963 86.6983 66.8048 86.8364 66.6138 86.9751C66.3995 87.1286 66.1851 87.282 65.9707 87.4352C65.811 87.5495 65.811 87.5495 65.6482 87.6661C65.1563 88.0155 64.6584 88.356 64.1602 88.6963C62.2361 90.0143 60.3392 91.3695 58.4507 92.7378C58.3519 92.8092 58.2531 92.8805 58.1513 92.954C57.9578 93.0942 57.7649 93.2352 57.5725 93.377C56.7445 93.9824 56.0936 94.1898 55.0782 94.043C54.369 93.7401 54.003 93.3305 53.7063 92.6154C53.5111 91.9222 53.5606 91.2012 53.5704 90.4868C53.571 90.3159 53.5717 90.145 53.5723 89.969C53.5747 89.4257 53.5803 88.8825 53.5859 88.3393C53.5881 87.9699 53.5901 87.6006 53.5919 87.2312C53.5967 86.328 53.604 85.4248 53.6133 84.5215C53.5249 84.5033 53.4366 84.485 53.3455 84.4662C53.1699 84.4288 53.1699 84.4288 52.9907 84.3906C52.8751 84.3663 52.7595 84.342 52.6405 84.317C52.1029 84.1794 51.631 83.9449 51.1414 83.6884C51.0402 83.6364 50.9391 83.5843 50.8349 83.5307C46.944 81.5 43.8618 78.2734 42.5078 74.0415C42.3034 73.3373 42.1241 72.6279 41.9598 71.9134C41.9167 71.7267 41.8696 71.5408 41.8184 71.3561C41.6994 70.8298 41.7275 70.2929 41.7285 69.7557C41.728 69.5583 41.728 69.5583 41.7275 69.3568C41.7266 68.9147 41.7267 68.4726 41.7268 68.0305C41.7264 67.7138 41.7259 67.3971 41.7253 67.0804C41.724 66.219 41.7237 65.3576 41.7236 64.4961C41.7235 63.9573 41.7232 63.4186 41.7228 62.8798C41.7214 60.9984 41.7208 59.117 41.7209 57.2357C41.721 55.4853 41.7195 53.735 41.7172 51.9846C41.7153 50.4801 41.7145 48.9755 41.7146 47.471C41.7146 46.5732 41.7142 45.6755 41.7126 44.7778C41.7112 43.9319 41.7112 43.0859 41.7123 42.2399C41.7124 41.931 41.7121 41.6221 41.7112 41.3132C41.6996 37.0274 42.4301 33.0221 45.4102 29.7364C45.5105 29.6172 45.6107 29.4981 45.714 29.3753C47.0993 27.7613 48.667 26.6055 50.5372 25.6348C50.6875 25.5549 50.8378 25.4751 50.9926 25.3928C53.0997 24.3419 55.4115 23.8543 57.754 23.8564Z" fill="#007EC2"/>
<path d="M57.4068 27.5009C57.5626 27.5004 57.7184 27.4998 57.8789 27.4992C58.3984 27.4977 58.9178 27.4983 59.4373 27.4989C59.8108 27.4982 60.1844 27.4975 60.5579 27.4966C61.4658 27.4949 62.3737 27.4945 63.2816 27.4948C64.0201 27.4951 64.7587 27.4948 65.4973 27.4942C65.6027 27.4941 65.708 27.494 65.8165 27.4939C66.0306 27.4938 66.2446 27.4936 66.4586 27.4934C68.464 27.4918 70.4693 27.4921 72.4746 27.493C74.3056 27.4938 76.1366 27.4921 77.9675 27.4894C79.851 27.4865 81.7344 27.4853 83.6179 27.4859C84.6739 27.4861 85.7299 27.4858 86.786 27.4837C87.7797 27.4818 88.7734 27.4821 89.7672 27.4841C90.1308 27.4844 90.4944 27.484 90.858 27.4828C94.9239 27.4702 98.289 28.2781 101.341 31.1606C103.103 33.0293 104.203 35.4566 104.736 37.9395C104.762 38.0481 104.787 38.1567 104.814 38.2685C104.894 38.7393 104.901 39.1831 104.9 39.6609C104.901 39.8072 104.901 39.8072 104.901 39.9565C104.901 40.2821 104.9 40.6078 104.899 40.9335C104.899 41.1674 104.899 41.4013 104.9 41.6352C104.9 42.2695 104.899 42.9038 104.898 43.5381C104.897 44.2012 104.897 44.8643 104.897 45.5275C104.896 46.7829 104.895 48.0384 104.893 49.2938C104.892 50.7232 104.891 52.1526 104.89 53.582C104.889 56.5222 104.886 59.4623 104.883 62.4024C104.506 62.5908 104.13 62.7791 103.753 62.9674C103.647 63.0205 103.541 63.0736 103.432 63.1283C100.79 64.4493 98.1968 65.5757 95.3156 66.2751C95.0809 66.332 95.0809 66.332 94.8415 66.3902C94.1258 66.5561 93.4648 66.7027 92.7246 66.6504C93.1553 66.1882 93.6007 65.8603 94.1345 65.5243C95.7058 64.4902 97.3091 63.177 97.9981 61.377C92.4545 61.283 86.9115 61.2147 81.3671 61.2124C80.9896 61.2122 80.6121 61.2117 80.2347 61.2111C79.6358 61.2102 79.037 61.2102 78.4382 61.2108C78.2196 61.211 78.0009 61.2109 77.7823 61.2106C75.4081 61.1288 75.4081 61.1288 73.0957 61.5235C73.1668 62.9098 74.226 63.874 75.182 64.7685C75.4395 65.0391 75.4395 65.0391 75.4395 65.3321C71.1935 64.3969 67.241 61.8037 63.5648 59.583C61.6276 58.4181 59.637 57.6007 57.4219 57.129C57.3054 57.1029 57.189 57.0768 57.069 57.0499C55.6121 56.7626 54.1492 56.7784 52.6703 56.7811C52.5335 56.7809 52.3968 56.7808 52.2559 56.7807C50.3817 56.7826 48.5716 56.8412 46.7522 57.3386C46.4163 57.427 46.0791 57.5037 45.7398 57.5782C45.5642 57.6169 45.5642 57.6169 45.385 57.6563C45.2966 57.6757 45.2083 57.695 45.1172 57.7149C45.1103 55.4011 45.1052 53.0873 45.102 50.7736C45.1005 49.699 45.0985 48.6245 45.0951 47.55C45.0922 46.6125 45.0903 45.6751 45.0896 44.7376C45.0893 44.242 45.0884 43.7465 45.0862 43.2509C45.0687 38.7071 45.6026 34.5686 48.8411 31.116C51.1423 28.8999 54.2013 27.4886 57.4068 27.5009Z" fill="white"/>
<path d="M52.5513 56.6254C52.7542 56.626 52.7542 56.626 52.9612 56.6267C54.9306 56.6363 56.8444 56.6883 58.7402 57.2754C58.8428 57.3068 58.9454 57.3382 59.0511 57.3705C61.2884 58.0826 63.3016 59.2407 65.3046 60.4431C68.5248 62.3749 71.8491 64.1841 75.4394 65.332C75.3463 65.2255 75.3463 65.2255 75.2512 65.1169C75.07 64.9098 74.8892 64.7025 74.7087 64.4949C74.5196 64.28 74.3279 64.0673 74.1331 63.8575C73.5815 63.2565 73.1908 62.7481 72.9492 61.9629C72.9675 61.615 72.9675 61.615 73.0957 61.3769C74.6184 60.8694 76.5129 61.0621 78.1025 61.0645C78.3298 61.0644 78.5571 61.0642 78.7844 61.0639C79.3928 61.0635 80.0011 61.0642 80.6095 61.0651C80.9893 61.0657 81.3691 61.0659 81.749 61.0661C87.166 61.0688 92.5818 61.1387 97.998 61.2305C97.998 62.3627 96.9788 63.2972 96.2311 64.0961C95.3612 64.94 94.3296 65.5646 93.3105 66.2109C93.093 66.356 93.093 66.356 92.8711 66.5039C96.6165 66.2295 100.242 64.6974 103.497 62.9009C103.675 62.8031 103.675 62.8031 103.856 62.7033C104.011 62.616 104.011 62.616 104.169 62.527C104.443 62.4023 104.443 62.4023 104.883 62.4023C104.898 63.4126 104.908 64.4229 104.915 65.4332C104.918 65.7756 104.922 66.1179 104.927 66.4602C105.025 73.1924 105.025 73.1924 103.207 75.0778C102.545 75.5894 101.762 75.8718 100.992 76.181C100.834 76.2455 100.675 76.3101 100.512 76.3765C99.4412 76.808 98.382 77.1932 97.2656 77.4902C97.0575 77.5503 96.8494 77.6106 96.6413 77.671C94.9153 78.1612 93.1881 78.46 91.4062 78.6621C91.2944 78.676 91.1825 78.6899 91.0672 78.7043C87.2184 79.1267 83.029 79.058 79.248 78.2227C79.133 78.1976 79.0179 78.1725 78.8993 78.1466C78.1223 77.9691 77.3684 77.7382 76.6113 77.4902C76.4569 77.4408 76.3026 77.3913 76.1435 77.3403C73.7786 76.577 71.508 75.6993 69.2709 74.6178C68.8434 74.412 68.4139 74.2108 67.9836 74.0107C66.6255 73.3753 65.2934 72.7136 63.9862 71.9788C59.157 69.2792 53.7075 67.7187 48.1933 69.1406C47.1964 69.4281 46.2262 69.7788 45.2637 70.166C45.2456 69.5065 45.2323 68.8471 45.2234 68.1874C45.2197 67.9631 45.2147 67.7387 45.2084 67.5144C45.1995 67.1918 45.1954 66.8695 45.1921 66.5468C45.1884 66.4466 45.1846 66.3463 45.1807 66.243C45.1805 65.9587 45.1805 65.9587 45.2637 65.4785C45.6168 65.1914 45.8301 65.0391 46.289 65.0391C46.289 64.9424 46.289 64.8457 46.289 64.7461C45.9507 64.8911 45.6123 65.0361 45.2637 65.1855C45.2637 62.7202 45.2637 60.2549 45.2637 57.7148C47.7675 56.8802 49.9417 56.6071 52.5513 56.6254Z" fill="#0088CA"/>
<path d="M52.7696 63.8099C53.1003 63.8123 53.4308 63.8099 53.7615 63.8071C55.1299 63.8051 56.3853 63.9525 57.7148 64.3067C57.8229 64.335 57.9309 64.3633 58.0423 64.3925C59.4249 64.7807 60.6889 65.3832 61.9542 66.0518C62.2585 66.2124 62.564 66.3704 62.8698 66.528C63.9322 67.0792 64.9731 67.6567 66.0004 68.2709C67.1655 68.9659 68.3579 69.5786 69.5801 70.1661C69.6915 70.2203 69.803 70.2745 69.9179 70.3304C72.1035 71.393 74.2557 72.3214 76.6113 72.9493C76.7724 72.9972 76.9335 73.0452 77.0994 73.0946C79.6395 73.8301 82.3179 74.2207 84.9609 74.2676C85.0992 74.2706 85.2375 74.2736 85.3799 74.2767C90.4415 74.3727 95.9428 73.9909 100.635 71.9239C100.858 71.8313 101.081 71.7393 101.305 71.6475C101.555 71.5444 101.804 71.4412 102.054 71.3379C102.172 71.2893 102.291 71.2406 102.413 71.1904C102.961 70.9612 103.485 70.7235 103.998 70.4224C104.443 70.1661 104.443 70.1661 104.736 70.1661C104.606 71.7613 104.276 73.9558 103.133 75.1517C102.461 75.5841 101.74 75.8716 101.001 76.1719C100.842 76.2371 100.683 76.3023 100.519 76.3694C99.4457 76.8047 98.3859 77.1923 97.2656 77.4903C97.0575 77.5504 96.8494 77.6106 96.6413 77.6711C94.9153 78.1612 93.1881 78.4601 91.4062 78.6622C91.2944 78.6761 91.1825 78.69 91.0672 78.7043C87.2184 79.1268 83.029 79.058 79.248 78.2227C79.133 78.1976 79.0179 78.1725 78.8993 78.1467C78.1223 77.9692 77.3684 77.7383 76.6113 77.4903C76.457 77.4408 76.3026 77.3913 76.1435 77.3404C73.7786 76.5771 71.508 75.6993 69.2709 74.6179C68.8434 74.412 68.4139 74.2109 67.9836 74.0107C66.6255 73.3754 65.2934 72.7136 63.9862 71.9788C59.157 69.2793 53.7075 67.7187 48.1933 69.1407C47.1964 69.4282 46.2262 69.7788 45.2637 70.1661C45.2456 69.5065 45.2323 68.8472 45.2234 68.1875C45.2197 67.9631 45.2147 67.7387 45.2084 67.5144C45.1995 67.1919 45.1954 66.8695 45.1921 66.5469C45.1884 66.4466 45.1846 66.3463 45.1807 66.243C45.1805 65.9587 45.1805 65.9587 45.2637 65.4786C45.8164 65.0274 46.4805 64.8649 47.1588 64.6729C47.2571 64.6436 47.3554 64.6144 47.4566 64.5842C47.7984 64.4853 48.1416 64.395 48.4863 64.3067C48.6349 64.2675 48.7834 64.2283 48.9364 64.1879C50.2278 63.8757 51.4493 63.7988 52.7696 63.8099Z" fill="#2FCAE6"/>
<path d="M85.8124 38.0035C86.5864 38.1401 87.077 38.6709 87.5182 39.2933C87.6347 39.4696 87.7497 39.6471 87.8632 39.8254C87.957 39.9697 87.957 39.9697 88.0526 40.1168C88.7085 41.1333 89.3338 42.1669 89.9414 43.2129C90.0251 43.355 90.0251 43.355 90.1105 43.5C92.5171 47.6023 95.0605 52.4478 95.1233 57.2937C95.1254 57.4276 95.1275 57.5616 95.1297 57.6995C95.1226 58.6367 95.1226 58.6367 94.8727 59.1145C94.3256 59.5896 93.6404 59.5035 92.956 59.5162C92.8299 59.5191 92.7038 59.5219 92.5739 59.5249C92.1549 59.5343 91.736 59.5427 91.317 59.551C91.0236 59.5574 90.7301 59.5637 90.4367 59.5701C89.819 59.5835 89.2013 59.5963 88.5836 59.6089C87.8018 59.6248 87.02 59.6415 86.2382 59.6586C85.6302 59.6719 85.0221 59.6847 84.414 59.6974C84.1265 59.7035 83.839 59.7096 83.5515 59.7158C81.482 59.7602 79.4137 59.7731 77.3438 59.7656C77.214 59.2591 77.1727 58.956 77.3837 58.4749C77.4284 58.3703 77.4732 58.2656 77.5193 58.1578C77.5694 58.046 77.6195 57.9342 77.6711 57.819C77.7222 57.7008 77.7732 57.5827 77.8259 57.461C77.9358 57.2073 78.0466 56.9539 78.1581 56.7009C78.3347 56.3 78.5087 55.8981 78.6819 55.4958C79.057 54.625 79.4347 53.7553 79.8128 52.8858C81.0561 50.0225 82.0465 47.0827 83.0354 44.1242C83.4864 42.7765 83.9449 41.4319 84.4237 40.0938C84.4712 39.959 84.5187 39.8241 84.5676 39.6852C84.6128 39.5603 84.658 39.4355 84.7045 39.3069C84.7436 39.198 84.7826 39.0891 84.8228 38.9768C85.0634 38.4457 85.2238 38.1213 85.8124 38.0035Z" fill="#0177BD"/>
<path d="M114.804 102.057C115.715 102.694 116.781 103.463 117.334 104.443C117.331 104.952 117.222 105.138 116.879 105.515C116.751 105.624 116.623 105.732 116.492 105.844C116.366 105.953 116.239 106.062 116.11 106.174C115.982 106.28 115.854 106.385 115.723 106.494C115.594 106.604 115.464 106.714 115.331 106.827C114.99 107.08 114.99 107.08 114.624 107.089C114.24 106.926 114.036 106.728 113.754 106.426C113.467 106.144 113.162 105.909 112.839 105.67C112.726 105.587 112.614 105.503 112.498 105.417C111.403 104.813 110.294 104.658 109.058 104.672C108.922 104.674 108.787 104.675 108.648 104.677C107.034 104.719 106.089 105.163 104.921 106.286C103.571 107.732 103.016 109.355 103.052 111.319C103.054 111.473 103.055 111.628 103.057 111.787C103.103 113.589 103.571 115.091 104.833 116.418C106.208 117.674 107.792 117.997 109.615 117.966C111.181 117.833 112.685 117.348 113.78 116.184C114.349 115.474 114.601 114.842 114.99 113.965C113.153 113.965 111.316 113.965 109.424 113.965C109.158 113.434 109.094 113.292 109.102 112.745C109.103 112.628 109.104 112.511 109.105 112.39C109.109 112.209 109.109 112.209 109.113 112.024C109.114 111.901 109.115 111.778 109.117 111.651C109.12 111.348 109.125 111.045 109.131 110.742C110.226 110.732 111.321 110.724 112.416 110.719C112.925 110.717 113.433 110.714 113.942 110.709C114.527 110.703 115.112 110.701 115.697 110.699C115.879 110.697 116.061 110.695 116.249 110.692C116.419 110.692 116.589 110.692 116.764 110.692C116.988 110.691 116.988 110.691 117.216 110.689C117.7 110.752 117.972 110.89 118.359 111.182C118.983 112.606 118.684 114.295 118.213 115.723C117.628 117.201 116.879 118.426 115.723 119.531C115.631 119.626 115.54 119.72 115.446 119.817C113.573 121.63 111.036 121.938 108.558 121.907C106.413 121.842 104.396 121.12 102.686 119.824C102.539 119.717 102.539 119.717 102.39 119.607C100.467 118.074 99.2258 115.484 98.877 113.086C98.5919 109.935 99.2402 107.025 101.129 104.453C104.463 100.512 110.337 99.2349 114.804 102.057Z" fill="#0178BD"/>
<path d="M64.6969 34.1675C66.579 35.5775 67.8879 37.3277 68.2617 39.6973C68.4108 42.1809 67.81 44.4243 66.1743 46.3531C65.0657 47.4974 63.7703 48.1762 62.2558 48.6328C62.1219 48.6753 62.1219 48.6753 61.9852 48.7186C59.7325 49.152 57.5581 48.5375 55.664 47.3144C53.9299 46.0308 52.9025 44.2848 52.4414 42.1875C52.2502 39.6582 52.5807 37.6427 54.237 35.634C56.9051 32.8072 61.3469 31.9416 64.6969 34.1675Z" fill="#0088C9"/>
<path d="M132.122 107.331C133.799 108.451 134.998 110.022 135.438 112.011C135.645 113.694 135.713 115.602 135.059 117.188C135.01 117.31 134.962 117.432 134.913 117.557C134.022 119.56 132.383 120.796 130.38 121.573C128.274 122.271 125.952 122.046 123.97 121.101C122.198 120.128 120.946 118.558 120.313 116.643C120.091 115.862 120.038 115.122 120.044 114.313C120.045 114.173 120.046 114.033 120.047 113.889C120.104 111.596 120.902 109.588 122.571 107.977C125.127 105.803 129.265 105.672 132.122 107.331Z" fill="#0177BD"/>
<path d="M26.8341 100.589C27.0809 100.588 27.0809 100.588 27.3328 100.588C30.0701 100.605 32.2374 101.763 34.144 103.68C34.8686 104.519 34.8686 104.519 34.8558 105.039C34.6689 105.42 34.4266 105.626 34.1034 105.899C33.9842 106 33.8651 106.101 33.7423 106.205C33.6288 106.3 33.5153 106.396 33.3984 106.494C33.3136 106.575 33.2288 106.655 33.1415 106.738C32.9223 106.943 32.9223 106.943 32.5195 107.227C32.0799 107.2 31.8599 107.152 31.5428 106.84C31.4693 106.741 31.3958 106.642 31.3202 106.54C30.5193 105.566 29.3478 104.844 28.0792 104.697C25.9949 104.557 24.3991 104.682 22.7583 106.094C21.3662 107.518 20.6695 109.23 20.5902 111.191C20.6215 113.159 21.3626 114.99 22.6816 116.463C24.0418 117.759 25.6333 118.116 27.4555 118.097C29.0222 118.005 30.2459 117.324 31.3019 116.18C31.3749 116.093 31.448 116.006 31.5233 115.916C31.9278 115.619 32.175 115.647 32.666 115.723C33.0213 115.944 33.3183 116.154 33.6364 116.418C33.7184 116.483 33.8004 116.548 33.8848 116.615C34.3357 116.977 34.7565 117.356 35.1562 117.773C34.6086 119.399 32.7974 120.514 31.3293 121.252C28.818 122.327 25.7349 122.335 23.1903 121.399C20.26 120.176 18.401 118.343 17.1386 115.43C16.2901 113.127 15.9474 110.3 16.8457 107.959C16.8972 107.817 16.9488 107.675 17.0019 107.528C18.1212 104.636 20.0716 102.671 22.8006 101.273C24.1521 100.725 25.3804 100.568 26.8341 100.589Z" fill="#0178BD"/>
<path d="M84.4941 107.423C85.785 108.401 86.2447 109.741 86.5141 111.295C86.6265 112.207 86.6079 113.123 86.6009 114.04C86.6004 114.254 86.5999 114.469 86.5997 114.683C86.5985 115.242 86.5957 115.801 86.5924 116.36C86.5894 116.932 86.5881 117.505 86.5866 118.078C86.5835 119.197 86.5785 120.316 86.5723 121.436C85.934 121.77 85.4436 121.777 84.7321 121.774C84.6196 121.777 84.5072 121.779 84.3913 121.781C83.5787 121.782 83.5787 121.782 83.2055 121.54C82.9674 121.139 82.9533 120.721 82.9102 120.264C82.7712 120.397 82.6322 120.53 82.489 120.667C81.1181 121.845 79.3843 121.981 77.6471 121.901C76.3832 121.792 75.1586 121.327 74.2676 120.41C73.4078 119.347 73.1653 118.213 73.197 116.865C73.331 115.649 73.9182 114.601 74.8536 113.818C76.8384 112.559 79.0292 112.472 81.3172 112.491C81.5483 112.492 81.5483 112.492 81.7841 112.493C82.1595 112.495 82.5348 112.497 82.9102 112.5C82.8677 112.266 82.8239 112.032 82.7797 111.799C82.7555 111.668 82.7313 111.538 82.7063 111.404C82.5314 110.68 82.1758 110.27 81.601 109.818C81.165 109.577 80.9097 109.469 80.42 109.424C80.2727 109.41 80.2727 109.41 80.1224 109.396C79.2777 109.351 78.6016 109.473 77.9297 110.01C77.5933 110.427 77.3138 110.862 77.0508 111.328C76.3886 111.249 75.9093 111.079 75.3296 110.751C75.1914 110.675 75.0532 110.598 74.9108 110.518C74.5606 110.303 74.5606 110.303 74.2676 110.01C74.245 109.083 74.8328 108.45 75.4395 107.813C77.7881 105.743 81.938 105.752 84.4941 107.423Z" fill="#0278BD"/>
<path d="M48.4755 106.454C48.644 106.456 48.644 106.456 48.816 106.458C48.9261 106.456 49.0361 106.455 49.1496 106.454C49.8152 106.456 50.3502 106.536 50.9766 106.787C50.8864 107.639 50.6599 108.395 50.3804 109.202C50.3345 109.337 50.2887 109.472 50.2414 109.611C50.0908 110.052 49.9387 110.493 49.7864 110.934C49.6805 111.243 49.5746 111.552 49.4688 111.86C49.1434 112.807 48.8154 113.752 48.4864 114.697C48.4358 114.843 48.3851 114.988 48.333 115.138C46.4736 120.477 46.4736 120.477 45.4743 122.9C45.4202 123.032 45.3661 123.164 45.3104 123.3C44.4703 125.275 43.4935 126.762 41.4551 127.588C40.7977 127.781 40.1577 127.761 39.4776 127.762C39.3524 127.764 39.2272 127.765 39.0982 127.767C38.9772 127.768 38.8561 127.768 38.7314 127.768C38.6216 127.769 38.5118 127.769 38.3987 127.77C38.0453 127.73 37.807 127.617 37.5001 127.441C37.4961 127.008 37.4932 126.575 37.4909 126.141C37.4897 126.018 37.4884 125.895 37.4872 125.768C37.4867 125.65 37.4862 125.532 37.4857 125.41C37.485 125.301 37.4842 125.192 37.4834 125.08C37.5001 124.805 37.5001 124.805 37.6465 124.512C37.9722 124.482 38.2992 124.466 38.6262 124.457C39.7348 124.39 40.2001 124.147 40.9882 123.376C41.3565 122.829 41.4551 122.376 41.4551 121.729C41.3305 121.201 41.3305 121.201 41.1032 120.682C41.0639 120.584 41.0245 120.485 40.9839 120.384C40.8983 120.171 40.8115 119.958 40.7236 119.746C40.483 119.165 40.2512 118.58 40.0178 117.995C39.9681 117.872 39.9185 117.749 39.8674 117.621C39.2741 116.141 38.7215 114.646 38.1684 113.15C38.0724 112.891 37.9764 112.632 37.8803 112.373C37.7419 112 37.6038 111.627 37.4665 111.254C37.2351 110.624 37 109.997 36.7584 109.371C36.6857 109.181 36.6857 109.181 36.6115 108.986C36.5192 108.744 36.4255 108.503 36.3305 108.262C36.2895 108.154 36.2485 108.045 36.2063 107.934C36.1696 107.839 36.1329 107.745 36.0951 107.648C36.0207 107.307 36.0476 107.108 36.1817 106.787C36.8344 106.57 37.4753 106.596 38.1592 106.586C38.3003 106.58 38.4413 106.575 38.5867 106.569C38.7898 106.567 38.7898 106.567 38.9969 106.564C39.1207 106.561 39.2445 106.558 39.372 106.555C39.6973 106.641 39.6973 106.641 39.919 106.966C40.1213 107.344 40.2823 107.71 40.4305 108.112C40.4839 108.255 40.5372 108.399 40.5921 108.546C40.6484 108.7 40.7047 108.854 40.7628 109.012C40.8222 109.172 40.8816 109.332 40.9428 109.498C41.1326 110.01 41.3214 110.522 41.5101 111.035C41.6976 111.543 41.8853 112.05 42.0731 112.557C42.1934 112.883 42.3136 113.208 42.4337 113.533C42.8312 114.608 43.2345 115.681 43.6524 116.748C44.0732 115.733 44.4389 114.708 44.7785 113.663C45.2047 112.369 45.6462 111.081 46.106 109.799C46.1594 109.649 46.2128 109.5 46.2678 109.345C47.3095 106.458 47.3095 106.458 48.4755 106.454Z" fill="#0177BD"/>
<path d="M78.1025 61.0645C78.3298 61.0643 78.5571 61.0642 78.7844 61.0639C79.3928 61.0635 80.0011 61.0642 80.6095 61.0651C80.9893 61.0656 81.3692 61.0659 81.749 61.066C87.166 61.0688 92.5819 61.1386 97.998 61.2304C97.998 62.3627 96.9788 63.2972 96.2311 64.096C95.4317 64.8704 94.5015 65.4571 93.5634 66.048C93.3292 66.1989 93.102 66.3604 92.8757 66.5228C92.3664 66.8371 91.8584 67.0192 91.2872 67.1814C91.1803 67.2125 91.0734 67.2436 90.9633 67.2756C89.9695 67.5496 88.9758 67.6763 87.9513 67.7696C87.4539 67.8038 87.4539 67.8038 87.0117 67.9687C87.0117 67.872 87.0117 67.7754 87.0117 67.6757C86.9161 67.6781 86.8205 67.6804 86.722 67.6827C82.9381 67.7613 79.5109 67.3938 76.1318 65.5861C75.8573 65.4498 75.8573 65.4498 75.4395 65.4785C75.2874 65.2378 75.1418 64.993 75 64.7461C74.7919 64.536 74.5779 64.3316 74.3591 64.1327C73.7138 63.5021 73.2118 62.8366 72.9492 61.9629C72.9778 61.6361 72.9778 61.6361 73.0957 61.3769C74.6184 60.8694 76.513 61.0621 78.1025 61.0645Z" fill="#0079BE"/>
<path d="M63.6652 107.677C64.1851 108.098 64.5491 108.56 64.8925 109.131C64.9862 109.285 65.0799 109.439 65.1763 109.598C65.332 110.01 65.332 110.01 65.3686 110.394C65.0592 110.982 64.4689 111.111 63.8671 111.328C63.71 111.389 63.5529 111.449 63.3911 111.511C62.9728 111.625 62.6863 111.669 62.2558 111.621C61.9691 111.38 61.9691 111.38 61.6973 111.063C60.801 110.125 60.1027 109.988 58.8134 109.946C57.6252 109.973 56.9662 110.172 56.1309 111.008C55.4801 111.956 55.2887 112.714 55.2978 113.846C55.2988 113.968 55.2997 114.09 55.3007 114.216C55.3351 115.389 55.5413 116.464 56.3873 117.332C57.2991 118.056 58.1098 118.264 59.2529 118.259C59.4169 118.262 59.4169 118.262 59.5842 118.266C60.2662 118.266 60.6585 118.178 61.2304 117.773C61.3271 117.773 61.4238 117.773 61.5234 117.773C61.5627 117.692 61.6019 117.61 61.6424 117.526C61.8312 117.159 62.0404 116.808 62.2558 116.455C62.8784 116.546 63.4536 116.687 64.0503 116.885C64.278 116.96 64.278 116.96 64.5103 117.036C64.8925 117.188 64.8925 117.188 65.1855 117.481C65.1855 118.565 64.6163 119.325 63.9032 120.105C62.2069 121.709 60.365 121.935 58.1434 121.906C56.2328 121.848 54.406 121.023 53.0222 119.706C51.3845 117.877 50.9933 115.635 51.0968 113.257C51.2709 111.148 52.3691 109.226 53.9062 107.813C54.756 107.179 55.6649 106.758 56.6894 106.494C56.7927 106.467 56.896 106.441 57.0024 106.413C59.3665 106.045 61.6634 106.316 63.6652 107.677Z" fill="#0278BD"/>
<path d="M71.0449 100.635C71.4303 101.02 71.3747 101.189 71.3751 101.726C71.3759 101.896 71.3767 102.066 71.3776 102.241C71.377 102.428 71.3764 102.615 71.3758 102.807C71.3762 103.006 71.3767 103.204 71.3773 103.402C71.3787 103.941 71.3782 104.481 71.3772 105.02C71.3765 105.584 71.3772 106.148 71.3776 106.712C71.3782 107.659 71.3775 108.607 71.3761 109.554C71.3745 110.65 71.375 111.745 71.3766 112.841C71.3779 113.781 71.3781 114.721 71.3774 115.661C71.3769 116.223 71.3768 116.784 71.3778 117.346C71.3787 117.874 71.3781 118.402 71.3764 118.931C71.3758 119.217 71.3767 119.504 71.3776 119.79C71.3768 119.961 71.3759 120.131 71.3751 120.307C71.375 120.455 71.3749 120.603 71.3748 120.756C71.3372 121.15 71.2469 121.391 71.0449 121.729C70.462 121.733 69.8792 121.735 69.2963 121.738C69.1298 121.739 68.9634 121.74 68.7919 121.741C68.6337 121.742 68.4756 121.742 68.3126 121.743C68.1661 121.744 68.0196 121.744 67.8686 121.745C67.5293 121.729 67.5293 121.729 67.3828 121.582C67.368 121.318 67.3636 121.053 67.3632 120.788C67.3626 120.616 67.362 120.443 67.3613 120.266C67.3614 119.979 67.3614 119.979 67.3615 119.688C67.3611 119.486 67.3606 119.284 67.36 119.083C67.3587 118.534 67.3584 117.985 67.3583 117.436C67.3582 116.978 67.3576 116.521 67.3571 116.063C67.3559 114.984 67.3556 113.904 67.3557 112.825C67.3557 111.71 67.3542 110.595 67.3519 109.48C67.35 108.525 67.3492 107.569 67.3493 106.613C67.3493 106.042 67.3489 105.47 67.3474 104.899C67.3459 104.361 67.3459 103.824 67.347 103.287C67.3472 102.995 67.346 102.703 67.3447 102.411C67.3453 102.238 67.346 102.065 67.3466 101.887C67.3465 101.736 67.3464 101.585 67.3463 101.43C67.3828 101.074 67.3828 101.074 67.6758 100.781C68.7786 100.597 69.9302 100.547 71.0449 100.635Z" fill="#0078BD"/>
<path d="M86.2793 43.5059C86.376 43.5059 86.4727 43.5059 86.5723 43.5059C86.6275 43.6126 86.6827 43.7194 86.7396 43.8294C86.9508 44.2376 87.162 44.6456 87.3734 45.0537C87.468 45.2365 87.5626 45.4193 87.6571 45.6022C88.1568 46.5686 88.6592 47.533 89.1795 48.4886C90.4229 50.7811 91.8485 53.4222 91.5527 56.1035C91.4217 56.5121 91.4217 56.5121 91.2598 56.8359C90.9085 57.0116 90.69 57.0013 90.2979 57.0019C90.1588 57.0022 90.0198 57.0024 89.8765 57.0027C89.7257 57.0021 89.5749 57.0014 89.4196 57.0007C89.2652 57.0004 89.1108 57.0002 88.9518 56.9999C87.2292 56.9907 85.5094 56.9184 83.7891 56.8359C83.2961 55.357 84.3661 52.8621 84.7228 51.4046C85.359 48.7917 85.8305 46.1566 86.2793 43.5059Z" fill="#FAFBF1"/>
<path d="M129.483 109.946C130.55 110.509 131.073 111.37 131.442 112.497C131.789 114.016 131.573 115.581 130.838 116.949C130.202 117.712 129.54 118.314 128.524 118.409C126.331 118.457 126.331 118.457 125.537 117.773C124.457 116.696 124.181 115.444 124.164 113.956C124.171 113.063 124.273 112.285 124.658 111.475C124.713 111.345 124.767 111.215 124.823 111.081C125.948 109.694 127.835 109.289 129.483 109.946Z" fill="#FCFCF2"/>
<path d="M88.7695 111.914C91.4282 111.914 94.0869 111.914 96.8261 111.914C97.0851 112.432 96.9997 113.028 97.0001 113.599C97.0019 113.728 97.0037 113.857 97.0055 113.989C97.0058 114.113 97.0061 114.236 97.0064 114.363C97.007 114.476 97.0076 114.59 97.0082 114.706C96.9726 114.99 96.9726 114.99 96.6796 115.283C96.3516 115.32 96.3516 115.32 95.9383 115.321C95.7066 115.322 95.7066 115.322 95.4703 115.324C95.3029 115.323 95.1355 115.323 94.963 115.322C94.7062 115.323 94.7062 115.323 94.4442 115.323C94.0817 115.323 93.7191 115.323 93.3566 115.321C92.8001 115.32 92.2437 115.321 91.6872 115.323C91.3356 115.323 90.9841 115.323 90.6326 115.322C90.3815 115.323 90.3815 115.323 90.1253 115.324C89.9709 115.323 89.8164 115.322 89.6573 115.321C89.5209 115.321 89.3845 115.321 89.244 115.32C88.916 115.283 88.916 115.283 88.623 114.99C88.5874 114.706 88.5874 114.706 88.5892 114.363C88.5895 114.24 88.5898 114.116 88.5901 113.989C88.5919 113.86 88.5937 113.732 88.5955 113.599C88.5956 113.47 88.5957 113.341 88.5958 113.208C88.6024 112.248 88.6024 112.248 88.7695 111.914Z" fill="#0175BC"/>
<path d="M81.2531 115.1C81.4135 115.103 81.5739 115.105 81.7391 115.108C82.1296 115.115 82.5198 115.124 82.9102 115.137C82.8921 115.369 82.8726 115.602 82.8524 115.834C82.8363 116.028 82.8363 116.028 82.8199 116.227C82.7063 116.985 82.3223 117.528 81.7566 118.039C80.7175 118.766 79.5995 118.772 78.3691 118.652C77.8735 118.479 77.6006 118.217 77.2888 117.792C77.1052 117.167 77.1371 116.745 77.3895 116.144C78.3957 115.067 79.8679 115.056 81.2531 115.1Z" fill="#F7FAF1"/>
<path d="M57.2462 27.2069C57.4023 27.2062 57.5584 27.2056 57.7192 27.2049C58.2404 27.203 58.7617 27.2033 59.283 27.2035C59.6575 27.2026 60.0319 27.2016 60.4064 27.2005C61.3173 27.1982 62.2281 27.1973 63.1389 27.1971C63.8801 27.197 64.6213 27.1964 65.3625 27.1955C67.4675 27.1929 69.5724 27.1915 71.6774 27.1917C71.7908 27.1918 71.9042 27.1918 72.021 27.1918C72.1912 27.1918 72.1912 27.1918 72.3649 27.1918C74.2018 27.1919 76.0388 27.1891 77.8757 27.185C79.7655 27.1808 81.6552 27.1788 83.5449 27.179C84.6044 27.1791 85.6639 27.1783 86.7234 27.1752C87.7208 27.1722 88.7183 27.1723 89.7157 27.1744C90.0804 27.1747 90.4451 27.1741 90.8098 27.1723C93.3719 27.1606 96.3224 27.1758 98.4375 28.8574C97.8768 28.7984 97.4124 28.658 96.8994 28.4362C94.7481 27.5666 92.6115 27.6225 90.3284 27.6287C89.9543 27.6281 89.5802 27.6273 89.2061 27.6263C88.2997 27.6245 87.3933 27.6248 86.4868 27.6261C85.7497 27.6271 85.0125 27.6272 84.2753 27.6267C84.17 27.6266 84.0647 27.6266 83.9562 27.6265C83.7421 27.6264 83.5281 27.6262 83.3141 27.6261C81.3122 27.6248 79.3104 27.6263 77.3086 27.6286C75.5941 27.6306 73.8796 27.6302 72.1652 27.6282C70.1695 27.6259 68.1739 27.6249 66.1783 27.6263C65.9652 27.6264 65.7521 27.6266 65.539 27.6267C65.4342 27.6268 65.3293 27.6268 65.2213 27.6269C64.4856 27.6273 63.7499 27.6267 63.0142 27.6256C62.0227 27.6243 61.0313 27.6252 60.0398 27.6278C59.6768 27.6284 59.3138 27.6282 58.9507 27.6272C58.4537 27.626 57.9567 27.6275 57.4596 27.6297C57.3173 27.6287 57.1751 27.6278 57.0285 27.6267C55.5564 27.6392 54.1861 28.0049 52.8534 28.6194C52.7546 28.6636 52.6559 28.7079 52.5541 28.7536C51.8112 29.0914 51.09 29.4612 50.3906 29.8828C50.6371 29.1433 51.3601 28.9026 52.0258 28.5518C53.7194 27.7091 55.3529 27.2009 57.2462 27.2069Z" fill="#0572BA"/>
<path d="M107.959 37.793C108.056 37.8413 108.152 37.8896 108.252 37.9395C108.255 42.1656 108.258 46.3917 108.259 50.6178C108.26 51.1166 108.26 51.6153 108.26 52.114C108.26 52.263 108.26 52.263 108.26 52.4149C108.261 54.0234 108.262 55.6319 108.263 57.2404C108.265 58.8904 108.265 60.5404 108.266 62.1904C108.266 63.1174 108.266 64.0444 108.267 64.9713C108.268 65.8432 108.269 66.7152 108.269 67.5871C108.269 67.9076 108.269 68.2281 108.269 68.5487C108.27 68.9853 108.27 69.4219 108.27 69.8586C108.27 70.0501 108.27 70.0501 108.271 70.2455C108.271 70.3625 108.27 70.4795 108.27 70.6C108.27 70.7008 108.27 70.8016 108.27 70.9054C108.251 71.2108 108.188 71.4834 108.105 71.7773C108.009 71.7773 107.912 71.7773 107.812 71.7773C107.861 60.5625 107.909 49.3477 107.959 37.793Z" fill="#0774B9"/>
<path d="M104.736 37.6465C105.297 38.207 105.195 39.0525 105.201 39.8069C105.202 39.9027 105.203 39.9984 105.204 40.097C105.207 40.4158 105.209 40.7346 105.211 41.0534C105.212 41.2827 105.214 41.5121 105.216 41.7415C105.222 42.3631 105.226 42.9848 105.23 43.6064C105.232 43.9951 105.235 44.3837 105.238 44.7723C105.248 46.1289 105.257 47.4854 105.266 48.8419C105.273 50.1054 105.283 51.3688 105.293 52.6322C105.302 53.718 105.31 54.8038 105.316 55.8897C105.32 56.5377 105.325 57.1857 105.331 57.8338C105.336 58.4432 105.34 59.0527 105.342 59.6622C105.344 59.8854 105.346 60.1087 105.348 60.332C105.351 60.6376 105.352 60.9431 105.353 61.2487C105.354 61.4194 105.355 61.5902 105.356 61.7661C105.318 62.3152 105.197 62.7587 105.029 63.2812C104.981 63.2812 104.933 63.2812 104.883 63.2812C104.834 54.8218 104.786 46.3623 104.736 37.6465Z" fill="#006AB6"/>
<path d="M67.9779 100.919C68.1909 100.923 68.1909 100.923 68.4082 100.928C68.4082 100.976 68.4082 101.024 68.4082 101.074C68.1665 101.074 67.9248 101.074 67.6758 101.074C67.6758 107.793 67.6758 114.513 67.6758 121.436C68.9085 121.508 68.9085 121.508 70.166 121.582C70.166 121.63 70.166 121.679 70.166 121.729C69.7296 121.732 69.2932 121.735 68.8568 121.738C68.7323 121.739 68.6078 121.74 68.4795 121.741C68.361 121.742 68.2425 121.742 68.1204 121.743C68.0107 121.744 67.901 121.744 67.788 121.745C67.5293 121.729 67.5293 121.729 67.3828 121.582C67.3684 121.317 67.3643 121.052 67.3642 120.787C67.3636 120.528 67.3636 120.528 67.363 120.264C67.3633 120.073 67.3636 119.882 67.3639 119.685C67.3637 119.483 67.3634 119.282 67.3631 119.08C67.3624 118.53 67.3627 117.98 67.3632 117.431C67.3635 116.857 67.3632 116.283 67.3629 115.709C67.3627 114.745 67.363 113.781 67.3637 112.817C67.3645 111.701 67.3643 110.585 67.3635 109.469C67.3628 108.512 67.3627 107.556 67.3631 106.599C67.3633 106.027 67.3633 105.455 67.3629 104.883C67.3624 104.346 67.3627 103.808 67.3636 103.27C67.3639 102.978 67.3634 102.685 67.363 102.392C67.3634 102.22 67.3638 102.047 67.3642 101.869C67.3643 101.718 67.3643 101.568 67.3644 101.412C67.3927 100.893 67.4467 100.929 67.9779 100.919Z" fill="#025FAE"/>
<path d="M86.2793 111.475C86.5723 111.768 86.5723 111.768 86.6075 112.17C86.6068 112.341 86.6062 112.512 86.6055 112.688C86.6056 112.783 86.6056 112.877 86.6057 112.974C86.6055 113.287 86.6032 113.599 86.6009 113.911C86.6003 114.127 86.5999 114.344 86.5996 114.56C86.5985 115.13 86.5956 115.7 86.5924 116.269C86.5894 116.851 86.588 117.432 86.5866 118.013C86.5834 119.154 86.5784 120.295 86.5723 121.436C86.2822 121.508 86.2822 121.508 85.9863 121.582C85.938 121.485 85.8896 121.389 85.8398 121.289C85.9849 121.289 86.1299 121.289 86.2793 121.289C86.2793 118.05 86.2793 114.812 86.2793 111.475Z" fill="#046DB5"/>
<path d="M39.9902 107.666C40.4885 107.915 40.569 108.5 40.7513 109C40.7965 109.122 40.8418 109.244 40.8884 109.369C41.0355 109.765 41.1812 110.162 41.3269 110.559C41.4267 110.829 41.5265 111.098 41.6265 111.368C41.7748 111.768 41.923 112.168 42.0708 112.568C42.4847 113.687 42.9097 114.802 43.3471 115.913C43.5201 116.359 43.6523 116.704 43.6523 117.188C43.5557 117.188 43.459 117.188 43.3594 117.188C42.8896 116.002 42.4624 114.813 42.0719 113.6C41.9264 113.178 41.7622 112.776 41.5832 112.368C41.2879 111.659 41.0372 110.933 40.7776 110.211C40.7179 110.047 40.6582 109.883 40.5968 109.715C40.5397 109.556 40.4827 109.398 40.424 109.235C40.3723 109.092 40.3206 108.949 40.2674 108.801C40.145 108.424 40.059 108.056 39.9902 107.666Z" fill="#0E6CB4"/>
<path d="M16.9922 114.404C17.3411 114.826 17.5087 115.181 17.6605 115.704C18.4721 118.018 20.2278 119.604 22.3778 120.652C22.7881 120.823 23.1464 120.931 23.584 120.996C23.584 121.093 23.584 121.189 23.584 121.289C23.729 121.337 23.874 121.386 24.0234 121.436C23.1575 121.367 22.5283 121.197 21.7712 120.776C21.6764 120.724 21.5815 120.672 21.4837 120.619C19.416 119.445 18.0195 117.614 17.1387 115.43C17.0368 114.854 17.0368 114.854 16.9922 114.404Z" fill="#0967B1"/>
<path d="M49.6582 26.5137C49.539 26.5828 49.539 26.5828 49.4173 26.6533C48.7647 27.0311 48.7647 27.0311 48.2483 27.5665C48.0469 27.832 48.0469 27.832 47.5983 27.9785C47.16 28.0764 47.16 28.0764 47.0123 28.3814C46.967 28.4901 46.9217 28.5989 46.875 28.711C46.42 29.2889 45.9373 29.8083 45.4102 30.3223C45.2742 30.4582 45.1382 30.5942 44.9982 30.7343C44.8924 30.84 44.7867 30.9458 44.6777 31.0547C44.9245 29.4671 47.0792 27.8816 48.2901 26.9446C49.145 26.3426 49.145 26.3426 49.6582 26.5137Z" fill="#0A6EB7"/>
<path d="M51.416 83.4961C51.6393 83.5554 51.8619 83.6169 52.0844 83.6792C52.2704 83.7302 52.2704 83.7302 52.4603 83.7822C52.8809 83.9355 52.8809 83.9355 53.9062 84.5215C53.9062 86.9868 53.9062 89.4521 53.9062 91.9922C53.8579 91.9922 53.8096 91.9922 53.7598 91.9922C53.7114 89.5752 53.6631 87.1582 53.6133 84.668C52.9849 84.4263 52.3564 84.1846 51.709 83.9355C51.6123 83.8872 51.5156 83.8389 51.416 83.7891C51.416 83.6924 51.416 83.5957 51.416 83.4961Z" fill="#005FB2"/>
<path d="M47.6074 64.8925C47.4196 64.9693 47.4196 64.9693 47.228 65.0476C47.0662 65.1143 46.9044 65.1809 46.7377 65.2496C46.4955 65.349 46.4955 65.349 46.2484 65.4504C45.8693 65.5875 45.8693 65.5875 45.7031 65.7714C45.4943 67.1739 45.5416 68.6058 45.5566 70.0195C45.4116 70.092 45.4116 70.092 45.2637 70.166C45.2456 69.5065 45.2323 68.8471 45.2234 68.1874C45.2197 67.963 45.2147 67.7387 45.2084 67.5143C45.1995 67.1918 45.1954 66.8694 45.1921 66.5468C45.1884 66.4465 45.1846 66.3463 45.1807 66.2429C45.1805 65.9587 45.1805 65.9587 45.2637 65.4785C45.9292 64.937 46.7726 64.6368 47.6074 64.8925Z" fill="#35D4EA"/>
<path d="M100.635 26.5137C102.467 27.1754 104.069 28.9182 105.176 30.4688C105.079 30.5171 104.982 30.5654 104.883 30.6152C104.479 30.4132 104.379 30.1206 104.15 29.7363C104.069 29.6548 103.987 29.5732 103.903 29.4891C103.84 29.4257 103.776 29.3622 103.711 29.2969C103.711 29.2002 103.711 29.1035 103.711 29.0039C103.629 28.9686 103.547 28.9333 103.462 28.8969C103.056 28.6726 102.759 28.3966 102.42 28.0792C101.981 27.6748 101.547 27.2939 101.056 26.9531C100.917 26.8564 100.778 26.7598 100.635 26.6602C100.635 26.6118 100.635 26.5635 100.635 26.5137Z" fill="#0B6EB6"/>
<path d="M100.488 117.041C100.861 117.399 101.199 117.773 101.532 118.167C102.603 119.389 103.645 120.27 105.176 120.85C105.176 120.946 105.176 121.043 105.176 121.143C103.253 120.637 101.759 119.243 100.666 117.642C100.488 117.334 100.488 117.334 100.488 117.041Z" fill="#0D6CB4"/>
<path d="M31.7871 115.723C32.4857 115.642 32.8411 115.781 33.3916 116.215C33.4724 116.282 33.5532 116.349 33.6365 116.418C33.7184 116.483 33.8004 116.548 33.8848 116.615C34.3357 116.977 34.7565 117.356 35.1562 117.773C34.9404 118.507 34.53 118.875 33.9844 119.385C33.8877 119.336 33.791 119.288 33.6914 119.238C34.0298 118.852 34.3682 118.465 34.7168 118.066C34.4067 117.446 34.1975 117.269 33.6456 116.876C33.438 116.726 33.438 116.726 33.2262 116.573C32.8448 116.329 32.5132 116.145 32.0801 116.016C31.9351 116.064 31.79 116.112 31.6406 116.162C31.689 116.017 31.7373 115.872 31.7871 115.723Z" fill="#0B66B2"/>
<path d="M106.055 32.0801C106.402 32.3955 106.595 32.6794 106.783 33.1083C106.833 33.2219 106.883 33.3355 106.935 33.4525C106.986 33.5706 107.037 33.6887 107.089 33.8104C107.141 33.9268 107.192 34.0432 107.245 34.1632C108.05 36.0031 108.05 36.0031 107.812 36.6211C107.812 36.5244 107.812 36.4277 107.812 36.3281C107.716 36.3281 107.619 36.3281 107.52 36.3281C107.486 36.171 107.453 36.0139 107.419 35.8521C107.16 34.8131 106.713 33.8284 106.229 32.8766C106.055 32.5195 106.055 32.5195 106.055 32.0801Z" fill="#0E6FB7"/>
<path d="M64.1602 108.398C64.7932 108.98 65.2845 109.51 65.3687 110.394C65.0586 110.983 64.4789 111.132 63.8672 111.328C63.5207 111.404 63.1962 111.444 62.8418 111.475C63.162 111.154 63.3602 111.082 63.7848 110.944C63.9567 110.886 63.9567 110.886 64.1321 110.828C64.4531 110.742 64.4531 110.742 64.8926 110.742C64.8323 109.869 64.6918 109.412 64.1602 108.691C64.1602 108.595 64.1602 108.498 64.1602 108.398Z" fill="#0766B2"/>
<path d="M52.5879 118.799C52.7374 118.927 52.887 119.055 53.0365 119.183C53.1784 119.303 53.1784 119.303 53.3232 119.426C53.504 119.583 53.6815 119.744 53.853 119.911C54.5592 120.581 55.3275 120.859 56.25 121.143C56.2017 121.239 56.1533 121.336 56.1035 121.436C54.6816 121.063 53.4479 120.307 52.5879 119.092C52.5879 118.995 52.5879 118.898 52.5879 118.799Z" fill="#0E6CB3"/>
<path d="M67.5293 119.238C67.5777 119.238 67.626 119.238 67.6758 119.238C67.6758 119.963 67.6758 120.688 67.6758 121.436C68.4976 121.484 69.3194 121.532 70.1661 121.582C70.1661 121.63 70.1661 121.679 70.1661 121.729C69.7297 121.732 69.2933 121.735 68.8569 121.738C68.6701 121.74 68.6701 121.74 68.4795 121.741C68.361 121.742 68.2425 121.742 68.1204 121.743C68.0107 121.744 67.901 121.744 67.788 121.745C67.5293 121.729 67.5293 121.729 67.3829 121.582C67.3683 121.271 67.3639 120.96 67.3645 120.648C67.3642 120.478 67.3638 120.308 67.3634 120.132C67.3829 119.678 67.3829 119.678 67.5293 119.238Z" fill="#0564B0"/>
<path d="M124.805 107.08C124.646 107.163 124.646 107.163 124.483 107.247C123.079 107.981 123.079 107.981 122.021 109.131C121.925 109.131 121.828 109.131 121.729 109.131C122.117 108.207 122.995 107.588 123.825 107.071C124.253 106.922 124.387 106.953 124.805 107.08ZM121.582 109.131C121.63 109.228 121.679 109.324 121.729 109.424C121.583 109.617 121.438 109.811 121.289 110.01C121.417 109.296 121.417 109.296 121.582 109.131Z" fill="#0965B2"/>
<path d="M30.6152 105.615C31.1077 105.826 31.4343 106.091 31.7871 106.494C31.7871 106.591 31.7871 106.688 31.7871 106.787C32.1287 106.836 32.1287 106.836 32.5195 106.787C32.84 106.503 32.84 106.503 33.1055 106.201C33.2021 106.201 33.2988 106.201 33.3984 106.201C33.3984 106.104 33.3984 106.008 33.3984 105.908C33.5918 105.86 33.7852 105.812 33.9844 105.762C33.5471 106.35 33.1201 106.81 32.5195 107.227C32.0248 107.209 31.828 107.117 31.4592 106.783C31.359 106.663 31.2587 106.544 31.1554 106.421C31.0532 106.302 30.9511 106.182 30.8458 106.059C30.6152 105.762 30.6152 105.762 30.6152 105.615Z" fill="#0A67B1"/>
<path d="M117.48 116.455C117.577 116.552 117.674 116.648 117.773 116.748C117.094 118.057 116.374 118.979 115.283 119.971C115.187 119.922 115.09 119.874 114.99 119.824C115.073 119.743 115.156 119.662 115.241 119.578C115.349 119.472 115.456 119.366 115.567 119.257C115.674 119.151 115.781 119.046 115.891 118.937C116.17 118.671 116.17 118.671 116.309 118.359C116.405 118.359 116.502 118.359 116.602 118.359C116.638 118.263 116.674 118.166 116.711 118.066C116.941 117.515 117.209 116.987 117.48 116.455Z" fill="#0967B1"/>
<path d="M56.3965 106.934C56.1832 107.032 55.9695 107.129 55.7556 107.227C55.6367 107.281 55.5177 107.335 55.3951 107.391C55.0781 107.52 55.0781 107.52 54.7852 107.52C54.7852 107.616 54.7852 107.713 54.7852 107.813C54.6522 107.873 54.5193 107.933 54.3823 107.996C53.936 108.236 53.6556 108.464 53.3203 108.838C53.2236 108.79 53.127 108.741 53.0273 108.691C55.2285 106.541 55.2285 106.541 56.3965 106.934Z" fill="#0A69B5"/>
<path d="M114.844 102.393C115.435 102.473 115.741 102.774 116.171 103.171C116.297 103.285 116.422 103.399 116.552 103.517C116.853 103.816 117.113 104.081 117.334 104.443C117.334 104.637 117.334 104.83 117.334 105.029C117.237 105.029 117.141 105.029 117.041 105.029C117.011 104.927 116.981 104.824 116.949 104.718C116.719 104.237 116.442 103.967 116.051 103.613C115.869 103.418 115.869 103.418 115.869 103.125C115.782 103.086 115.694 103.046 115.604 103.006C115.287 102.834 115.084 102.657 114.844 102.393Z" fill="#0F6BB3"/>
<path d="M103.271 114.404C103.623 114.73 103.863 115.068 104.114 115.475C104.536 116.123 105.013 116.567 105.615 117.041C105.712 117.138 105.809 117.234 105.908 117.334C104.955 117.225 104.48 116.671 103.894 115.961C103.504 115.448 103.288 115.066 103.271 114.404Z" fill="#0C6BB3"/>
<path d="M82.0312 106.641C83.1604 106.677 83.91 106.987 84.8145 107.666C85.199 108.087 85.199 108.087 85.4004 108.398C85.2554 108.398 85.1104 108.398 84.9609 108.398C84.9277 108.308 84.8945 108.217 84.8602 108.124C84.602 107.706 84.4006 107.678 83.9355 107.52C83.712 107.424 83.4892 107.326 83.2672 107.227C83.1583 107.178 83.0493 107.13 82.937 107.08C82.6315 106.94 82.3309 106.793 82.0312 106.641Z" fill="#0F6BB3"/>
<path d="M102.246 64.0137C101.703 64.359 101.161 64.6138 100.562 64.8468C100.4 64.9109 100.238 64.9749 100.072 65.0408C99.6396 65.1761 99.3249 65.2165 98.877 65.1856C99.3902 64.8434 99.9173 64.6034 100.479 64.3525C100.584 64.3037 100.689 64.2548 100.797 64.2045C100.899 64.1591 101.001 64.1137 101.106 64.0669C101.198 64.0251 101.29 63.9832 101.385 63.9401C101.72 63.8514 101.922 63.906 102.246 64.0137Z" fill="#0D80C5"/>
<path d="M107.812 121.436C107.861 121.484 107.909 121.532 107.959 121.582C108.166 121.605 108.374 121.619 108.582 121.628C108.707 121.635 108.832 121.641 108.961 121.647C109.093 121.653 109.224 121.659 109.36 121.664C109.492 121.671 109.624 121.677 109.76 121.684C110.087 121.699 110.415 121.714 110.742 121.729C110.742 121.777 110.742 121.825 110.742 121.875C107.56 121.931 107.56 121.931 106.201 121.582C106.816 121.172 107.098 121.309 107.812 121.436Z" fill="#2688C0"/>
<path d="M74.1211 119.971C74.5605 120.117 74.5605 120.117 74.8535 120.557C75.6284 120.995 76.449 121.363 77.3438 121.436C77.3438 121.532 77.3438 121.629 77.3438 121.729C76.1818 121.664 75.2213 121.278 74.3225 120.529C74.1211 120.264 74.1211 120.264 74.1211 119.971Z" fill="#1372B6"/>
<path d="M48.6328 106.494C49.4734 106.464 50.1863 106.454 50.9766 106.787C50.9282 107.029 50.8799 107.27 50.8301 107.519C50.7817 107.326 50.7334 107.133 50.6836 106.934C49.9585 106.885 49.2334 106.837 48.4863 106.787C48.5347 106.69 48.583 106.594 48.6328 106.494Z" fill="#0367B2"/>
<path d="M103.564 102.246C103.709 102.294 103.854 102.343 104.004 102.393C103.898 102.474 103.792 102.556 103.683 102.64C103.275 102.976 102.908 103.332 102.539 103.711C102.393 103.857 102.246 104.004 102.1 104.15C102.003 104.102 101.906 104.054 101.807 104.004C102.162 103.221 102.832 102.673 103.564 102.246Z" fill="#0C6FB7"/>
<path d="M101.953 31.7871C102.05 31.7871 102.146 31.7871 102.246 31.7871C102.851 32.5343 103.326 33.3994 103.711 34.2773C103.663 34.374 103.614 34.4707 103.564 34.5703C103.295 34.1621 103.027 33.7529 102.759 33.3435C102.682 33.2272 102.605 33.1109 102.526 32.991C102.453 32.8796 102.381 32.7682 102.306 32.6534C102.238 32.5506 102.171 32.4478 102.101 32.3419C101.953 32.0801 101.953 32.0801 101.953 31.7871Z" fill="#0D6CB4"/>
<path d="M124.219 115.723C124.621 115.924 124.66 116.157 124.841 116.565C125.174 117.259 125.496 117.629 126.123 118.066C126.026 118.115 125.93 118.163 125.83 118.213C124.999 117.674 124.504 117.273 124.219 116.309C124.219 116.115 124.219 115.922 124.219 115.723Z" fill="#0B69B2"/>
<path d="M21.9726 106.494C22.0209 106.639 22.0693 106.784 22.1191 106.934C21.948 107.178 21.7754 107.422 21.5938 107.659C21.2483 108.16 21.0289 108.715 20.8007 109.277C20.6644 108.904 20.6417 108.729 20.7681 108.346C20.8242 108.23 20.8803 108.115 20.9381 107.996C21.0216 107.82 21.0216 107.82 21.1069 107.641C21.1509 107.552 21.1949 107.464 21.2402 107.373C21.3369 107.373 21.4335 107.373 21.5331 107.373C21.5785 107.255 21.6238 107.137 21.6705 107.016C21.8261 106.641 21.8261 106.641 21.9726 106.494Z" fill="#0B6BB3"/>
<path d="M42.041 36.1816C42.1377 36.1816 42.2344 36.1816 42.334 36.1816C42.2857 37.0034 42.2373 37.8252 42.1875 38.6719C42.0908 38.6235 41.9942 38.5752 41.8946 38.5254C41.8906 38.2446 41.8877 37.9639 41.8854 37.6831C41.8837 37.5268 41.882 37.3704 41.8802 37.2093C41.8923 36.8359 41.9317 36.5362 42.041 36.1816Z" fill="#1276BA"/>
<path d="M64.1602 34.1309C64.8716 34.192 65.2517 34.541 65.744 35.0189C65.8543 35.1227 65.8543 35.1227 65.9669 35.2286C66.1471 35.3985 66.3257 35.5702 66.5039 35.7422C66.4072 35.8389 66.3105 35.9355 66.2109 36.0352C66.1143 35.8418 66.0176 35.6484 65.918 35.4492C65.8213 35.4492 65.7246 35.4492 65.625 35.4492C65.3775 35.2084 65.1339 34.9637 64.8926 34.7168C64.6511 34.5182 64.4077 34.3218 64.1602 34.1309Z" fill="#097DC3"/>
<path d="M69.4714 100.606C69.6583 100.61 69.8452 100.613 70.0378 100.617C70.3194 100.62 70.3194 100.62 70.6066 100.625C70.8236 100.63 70.8236 100.63 71.0449 100.635C71.0449 100.78 71.0449 100.925 71.0449 101.074C70.2715 101.026 69.498 100.978 68.7012 100.928C68.9941 100.635 68.9941 100.635 69.4714 100.606Z" fill="#1273B6"/>
<path d="M74.2676 64.0137C74.4364 64.1498 74.604 64.2875 74.7711 64.4257C74.8646 64.5021 74.9581 64.5786 75.0544 64.6574C75.293 64.8926 75.293 64.8926 75.4395 65.332C75.0527 65.2354 74.666 65.1387 74.2676 65.0391C74.2676 64.6973 74.2676 64.3555 74.2676 64.0137Z" fill="#CEECED"/>
<path d="M64.7461 117.334C64.8911 117.382 65.0361 117.431 65.1855 117.48C65.1291 118.383 64.8236 118.943 64.3066 119.678C64.2583 119.533 64.21 119.388 64.1602 119.238C64.308 118.986 64.4563 118.733 64.6105 118.484C64.8046 118.096 64.7876 117.759 64.7461 117.334Z" fill="#106DB4"/>
<path d="M74.8535 113.818C74.9502 113.963 75.0469 114.108 75.1465 114.258C74.9576 114.459 74.7617 114.654 74.5605 114.844C74.4639 114.844 74.3672 114.844 74.2676 114.844C74.2676 114.989 74.2676 115.134 74.2676 115.283C74.1226 115.332 73.9775 115.38 73.8281 115.43C73.915 114.933 74.087 114.666 74.4232 114.294C74.5035 114.205 74.5837 114.115 74.6664 114.022C74.7282 113.955 74.7899 113.888 74.8535 113.818Z" fill="#0A6EB6"/>
<path d="M51.416 83.4961C52.3282 83.7384 53.1064 84.0172 53.9062 84.5215C53.8579 84.6182 53.8096 84.7148 53.7598 84.8145C53.4789 84.6987 53.1982 84.5827 52.9175 84.4666C52.7611 84.402 52.6048 84.3374 52.4437 84.2709C52.0934 84.1211 51.7538 83.9645 51.416 83.7891C51.416 83.6924 51.416 83.5957 51.416 83.4961Z" fill="#096CB6"/>
<path d="M85.8582 38.0676C85.9971 38.0737 86.1361 38.0797 86.2793 38.0859C86.2793 38.1826 86.2793 38.2793 86.2793 38.3789C85.9409 38.4272 85.6025 38.4756 85.2539 38.5254C85.2328 38.6372 85.2116 38.749 85.1898 38.8641C85.1074 39.2578 85.1074 39.2578 84.9609 39.6973C84.8643 39.6973 84.7676 39.6973 84.668 39.6973C84.734 39.4833 84.8014 39.2698 84.8694 39.0564C84.9068 38.9374 84.9442 38.8185 84.9827 38.6959C85.184 38.1844 85.3033 38.0898 85.8582 38.0676Z" fill="#1875B8"/>
<path d="M25.6348 100.781C25.225 101.002 24.8433 101.145 24.3896 101.248C24.2794 101.274 24.1691 101.301 24.0555 101.328C23.7087 101.37 23.4748 101.327 23.1445 101.221C23.9978 100.776 24.68 100.729 25.6348 100.781Z" fill="#0A67B3"/>
<path d="M55.2246 34.7168C55.3696 34.7651 55.5146 34.8135 55.6641 34.8633C55.4399 35.0445 55.2158 35.2257 54.9917 35.4069C54.7657 35.5908 54.7657 35.5908 54.6387 35.8887C54.542 35.8887 54.4453 35.8887 54.3457 35.8887C54.3034 35.9793 54.2611 36.0699 54.2175 36.1633C54.0527 36.4746 54.0527 36.4746 53.7598 36.7676C53.8268 36.0818 54.0807 35.7962 54.5746 35.3302C54.6956 35.2144 54.8167 35.0987 54.9414 34.9794C55.0348 34.8928 55.1283 34.8061 55.2246 34.7168Z" fill="#077AC3"/>
<path d="M44.9707 78.3691C45.5448 78.9264 46.068 79.514 46.582 80.127C46.437 80.127 46.292 80.127 46.1426 80.127C45.8433 79.8168 45.8433 79.8168 45.5292 79.4128C45.4244 79.2803 45.3196 79.1477 45.2116 79.0112C44.9707 78.6621 44.9707 78.6621 44.9707 78.3691Z" fill="#0D70B6"/>
<path d="M53.3203 36.9141C53.5304 37.469 53.395 37.8025 53.183 38.3423C53.1273 38.4865 53.0716 38.6308 53.0142 38.7794C52.9702 38.889 52.9262 38.9985 52.8809 39.1113C52.7842 39.1113 52.6875 39.1113 52.5879 39.1113C52.6711 38.2997 52.973 37.641 53.3203 36.9141Z" fill="#1684C6"/>
<path d="M105.615 77.1973C105.712 77.2939 105.809 77.3906 105.908 77.4902C105.72 77.7563 105.53 78.0217 105.341 78.2867C105.183 78.5085 105.183 78.5085 105.021 78.7348C104.736 79.1016 104.736 79.1016 104.443 79.248C104.669 78.7798 104.925 78.3375 105.194 77.8931C105.273 77.7624 105.352 77.6317 105.433 77.4971C105.523 77.3487 105.523 77.3487 105.615 77.1973Z" fill="#0D6EB6"/>
<path d="M107.227 34.7168C107.323 34.7168 107.42 34.7168 107.52 34.7168C107.598 34.9236 107.674 35.1313 107.748 35.3394C107.791 35.4549 107.833 35.5705 107.877 35.6895C107.966 36.0631 107.937 36.2627 107.812 36.6211C107.812 36.5244 107.812 36.4277 107.812 36.3281C107.716 36.3281 107.619 36.3281 107.52 36.3281C107.423 35.7964 107.326 35.2646 107.227 34.7168Z" fill="#1877BA"/>
<path d="M130.664 117.041C130.761 117.089 130.857 117.138 130.957 117.188C130.693 117.666 130.542 117.904 130.078 118.213C130.078 117.627 130.078 117.627 130.371 117.297C130.516 117.17 130.516 117.17 130.664 117.041Z" fill="#0C70B6"/>
<path d="M53.7598 44.6777C53.9062 44.873 54.0527 45.0684 54.1992 45.2637C54.3261 45.4132 54.3261 45.4132 54.4556 45.5658C54.516 45.6595 54.5764 45.7531 54.6387 45.8496C54.5903 45.9946 54.542 46.1396 54.4922 46.2891C54.3408 46.1044 54.1917 45.9179 54.0436 45.7306C53.9187 45.5751 53.9187 45.5751 53.7912 45.4165C53.7325 45.3177 53.6738 45.2189 53.6133 45.1172C53.6616 44.9722 53.71 44.8271 53.7598 44.6777Z" fill="#0C81C4"/>
<path d="M61.8164 33.1055C62.0334 33.1467 62.25 33.1897 62.4664 33.2336C62.6474 33.2693 62.6474 33.2693 62.8321 33.3057C62.932 33.3363 63.0318 33.3669 63.1348 33.3984C63.1831 33.4951 63.2314 33.5918 63.2812 33.6914C62.9912 33.7397 62.7012 33.7881 62.4023 33.8379C62.354 33.7412 62.3057 33.6445 62.2559 33.5449C62.1108 33.4966 61.9658 33.4482 61.8164 33.3984C61.8164 33.3018 61.8164 33.2051 61.8164 33.1055Z" fill="#057CC4"/>
<path d="M22.4121 120.703C22.6828 120.753 22.6828 120.753 23.0072 120.84C23.1684 120.883 23.1684 120.883 23.3328 120.927C23.4571 120.961 23.4571 120.961 23.584 120.996C23.584 121.093 23.584 121.189 23.584 121.289C23.729 121.337 23.874 121.386 24.0234 121.436C22.7679 121.331 22.7679 121.331 22.2656 120.85C22.314 120.801 22.3623 120.753 22.4121 120.703Z" fill="#106FB4"/>
<path d="M120.703 117.334C120.8 117.334 120.896 117.334 120.996 117.334C121.123 117.547 121.247 117.761 121.371 117.975C121.476 118.153 121.476 118.153 121.583 118.335C121.631 118.44 121.679 118.545 121.729 118.652C121.68 118.749 121.632 118.846 121.582 118.945C121.435 118.732 121.288 118.518 121.143 118.304C121.061 118.185 120.979 118.067 120.895 117.944C120.703 117.627 120.703 117.627 120.703 117.334Z" fill="#0B6AB1"/>
<path d="M63.8672 47.6074C63.9639 47.7041 64.0605 47.8008 64.1602 47.9004C63.9468 47.9987 63.7331 48.0962 63.5193 48.1934C63.3408 48.2749 63.3408 48.2749 63.1588 48.3582C62.8418 48.4863 62.8418 48.4863 62.5488 48.4863C62.5488 48.3896 62.5488 48.293 62.5488 48.1934C62.9839 48 63.4189 47.8066 63.8672 47.6074Z" fill="#0F83C7"/>
<path d="M46.875 33.3984C46.9717 33.4468 47.0684 33.4951 47.168 33.5449C46.9263 34.0283 46.6846 34.5117 46.4355 35.0098C46.3389 34.9131 46.2422 34.8164 46.1426 34.7168C46.2368 34.5244 46.3315 34.3321 46.4264 34.14C46.4791 34.0329 46.5318 33.9259 46.586 33.8156C46.7285 33.5449 46.7285 33.5449 46.875 33.3984Z" fill="#1273B8"/>
<path d="M74.1211 119.971C74.5605 120.117 74.5605 120.117 74.8535 120.557C75.1417 120.712 75.4345 120.86 75.7324 120.996C75.5874 121.044 75.4424 121.093 75.293 121.143C74.7323 120.834 74.341 120.587 74.1211 119.971Z" fill="#0B68B1"/>
<path d="M115.43 106.201C115.526 106.201 115.623 106.201 115.723 106.201C115.723 106.298 115.723 106.395 115.723 106.494C115.402 106.815 115.402 106.815 114.99 107.08C114.578 107.043 114.578 107.043 114.258 106.934C114.306 106.837 114.354 106.74 114.404 106.641C114.648 106.591 114.892 106.542 115.137 106.494C115.233 106.397 115.33 106.301 115.43 106.201Z" fill="#0966B1"/>
<path d="M20.3613 102.979C20.3613 103.075 20.3613 103.172 20.3613 103.271C20.2707 103.338 20.1801 103.404 20.0867 103.473C19.7557 103.726 19.6395 103.917 19.4824 104.297C19.3374 104.2 19.1924 104.104 19.043 104.004C19.2069 103.832 19.3719 103.661 19.5374 103.491C19.675 103.348 19.675 103.348 19.8154 103.203C20.0684 102.979 20.0684 102.979 20.3613 102.979Z" fill="#1B78B7"/>
<path d="M41.6016 122.314C41.7576 122.782 41.7886 122.899 41.6016 123.34C41.2262 123.669 41.2262 123.669 40.8691 123.926C40.9674 123.311 41.2875 122.841 41.6016 122.314Z" fill="#096BB3"/>
<path d="M53.7598 91.9922C54.078 92.4695 54.3561 92.9579 54.6387 93.457C54.4937 93.457 54.3486 93.457 54.1992 93.457C53.818 92.9628 53.7066 92.612 53.7598 91.9922Z" fill="#1272B9"/>
<path d="M70.8984 120.703C70.9991 121.068 71.0449 121.345 71.0449 121.729C70.7549 121.729 70.4648 121.729 70.166 121.729C70.2144 121.632 70.2627 121.535 70.3125 121.436C70.4092 121.436 70.5059 121.436 70.6055 121.436C70.7021 121.194 70.7988 120.952 70.8984 120.703Z" fill="#0E7FBD"/>
<path d="M59.4727 91.5527C59.5693 91.6011 59.666 91.6494 59.7656 91.6992C59.3789 91.9893 58.9922 92.2793 58.5938 92.5781C58.4971 92.5298 58.4004 92.4814 58.3008 92.4316C58.6875 92.1416 59.0742 91.8516 59.4727 91.5527Z" fill="#0B69B4"/>
<path d="M81.5918 48.3398C81.7368 48.3882 81.8818 48.4365 82.0312 48.4863C81.9859 48.5739 81.9406 48.6616 81.8939 48.7518C81.7233 49.0854 81.7233 49.0854 81.5918 49.5117C81.4951 49.5117 81.3984 49.5117 81.2988 49.5117C81.3955 49.125 81.4922 48.7383 81.5918 48.3398Z" fill="#1272B7"/>
<path d="M52.8809 43.2129C53.326 43.4355 53.4147 43.7959 53.6133 44.2383C53.6133 44.335 53.6133 44.4316 53.6133 44.5312C53.4683 44.4829 53.3232 44.4346 53.1738 44.3848C52.9617 43.9606 52.8809 43.6902 52.8809 43.2129Z" fill="#0377C1"/>
<path d="M86.2793 43.5059C86.376 43.5059 86.4727 43.5059 86.5723 43.5059C86.6689 43.7476 86.7656 43.9893 86.8652 44.2383C86.6719 44.3833 86.4785 44.5283 86.2793 44.6777C86.2793 44.291 86.2793 43.9043 86.2793 43.5059Z" fill="#EEF8F3"/>
<path d="M42.7734 33.9844C43.0664 34.4238 43.0664 34.4238 43.0115 34.8175C42.9813 34.9293 42.951 35.0411 42.9199 35.1562C42.7749 35.1562 42.6299 35.1562 42.4805 35.1562C42.557 34.7515 42.6429 34.3761 42.7734 33.9844Z" fill="#177ABA"/>
</g>
<rect x="0.5" y="0.5" width="149" height="149" rx="74.5" stroke="#1269C7"/>
<defs>
<clipPath id="clip0_1456_2693">
<rect width="150" height="150" rx="75" fill="white"/>
</clipPath>
</defs>
</svg>
