<svg width="83" height="83" viewBox="0 0 83 83" fill="none" xmlns="http://www.w3.org/2000/svg">
<g filter="url(#filter0_d_1127_29)">
<path d="M50.875 65.625L32.125 59.0625L17.5938 64.6875C16.5521 65.1042 15.5885 64.987 14.7031 64.3359C13.8177 63.6849 13.375 62.8125 13.375 61.7188V17.9688C13.375 17.2917 13.5703 16.6927 13.9609 16.1719C14.3516 15.651 14.8854 15.2604 15.5625 15L32.125 9.375L50.875 15.9375L65.4062 10.3125C66.4479 9.89583 67.4115 10.013 68.2969 10.6641C69.1823 11.3151 69.625 12.1875 69.625 13.2812V57.0312C69.625 57.7083 69.4297 58.3073 69.0391 58.8281C68.6484 59.349 68.1146 59.7396 67.4375 60L50.875 65.625ZM47.75 57.9688V21.4062L35.25 17.0312V53.5938L47.75 57.9688ZM54 57.9688L63.375 54.8438V17.8125L54 21.4062V57.9688ZM19.625 57.1875L29 53.5938V17.0312L19.625 20.1562V57.1875Z" fill="white"/>
</g>
<defs>
<filter id="filter0_d_1127_29" x="0" y="0" width="83" height="83" filterUnits="userSpaceOnUse" color-interpolation-filters="sRGB">
<feFlood flood-opacity="0" result="BackgroundImageFix"/>
<feColorMatrix in="SourceAlpha" type="matrix" values="0 0 0 0 0 0 0 0 0 0 0 0 0 0 0 0 0 0 127 0" result="hardAlpha"/>
<feOffset dy="4"/>
<feGaussianBlur stdDeviation="2"/>
<feComposite in2="hardAlpha" operator="out"/>
<feColorMatrix type="matrix" values="0 0 0 0 0 0 0 0 0 0 0 0 0 0 0 0 0 0 0.25 0"/>
<feBlend mode="normal" in2="BackgroundImageFix" result="effect1_dropShadow_1127_29"/>
<feBlend mode="normal" in="SourceGraphic" in2="effect1_dropShadow_1127_29" result="shape"/>
</filter>
</defs>
</svg>
