<svg width="50" height="50" viewBox="0 0 50 50" fill="none" xmlns="http://www.w3.org/2000/svg">
<path d="M12.1875 35.6251C13.9584 34.2709 15.9375 33.2032 18.125 32.422C20.3125 31.6407 22.6042 31.2501 25 31.2501C27.3959 31.2501 29.6875 31.6407 31.875 32.422C34.0625 33.2032 36.0417 34.2709 37.8125 35.6251C39.0278 34.2015 39.974 32.5869 40.6511 30.7813C41.3282 28.9758 41.6667 27.0487 41.6667 25.0001C41.6667 20.382 40.0434 16.4497 36.7969 13.2032C33.5504 9.95668 29.6181 8.33342 25 8.33342C20.382 8.33342 16.4497 9.95668 13.2031 13.2032C9.95662 16.4497 8.33335 20.382 8.33335 25.0001C8.33335 27.0487 8.6719 28.9758 9.34898 30.7813C10.0261 32.5869 10.9722 34.2015 12.1875 35.6251ZM25 27.0834C22.9514 27.0834 21.224 26.3803 19.8177 24.974C18.4115 23.5678 17.7084 21.8404 17.7084 19.7917C17.7084 17.7431 18.4115 16.0157 19.8177 14.6095C21.224 13.2032 22.9514 12.5001 25 12.5001C27.0486 12.5001 28.7761 13.2032 30.1823 14.6095C31.5886 16.0157 32.2917 17.7431 32.2917 19.7917C32.2917 21.8404 31.5886 23.5678 30.1823 24.974C28.7761 26.3803 27.0486 27.0834 25 27.0834ZM25 45.8334C22.1181 45.8334 19.4097 45.2865 16.875 44.1928C14.3403 43.099 12.1354 41.6147 10.2604 39.7397C8.38544 37.8647 6.90106 35.6598 5.80731 33.1251C4.71356 30.5904 4.16669 27.882 4.16669 25.0001C4.16669 22.1181 4.71356 19.4098 5.80731 16.8751C6.90106 14.3404 8.38544 12.1355 10.2604 10.2605C12.1354 8.3855 14.3403 6.90112 16.875 5.80737C19.4097 4.71362 22.1181 4.16675 25 4.16675C27.882 4.16675 30.5903 4.71362 33.125 5.80737C35.6597 6.90112 37.8646 8.3855 39.7396 10.2605C41.6146 12.1355 43.099 14.3404 44.1927 16.8751C45.2865 19.4098 45.8334 22.1181 45.8334 25.0001C45.8334 27.882 45.2865 30.5904 44.1927 33.1251C43.099 35.6598 41.6146 37.8647 39.7396 39.7397C37.8646 41.6147 35.6597 43.099 33.125 44.1928C30.5903 45.2865 27.882 45.8334 25 45.8334ZM25 41.6667C26.8403 41.6667 28.5764 41.3977 30.2084 40.8595C31.8403 40.3213 33.3334 39.5487 34.6875 38.5417C33.3334 37.5348 31.8403 36.7622 30.2084 36.224C28.5764 35.6858 26.8403 35.4167 25 35.4167C23.1597 35.4167 21.4236 35.6858 19.7917 36.224C18.1597 36.7622 16.6667 37.5348 15.3125 38.5417C16.6667 39.5487 18.1597 40.3213 19.7917 40.8595C21.4236 41.3977 23.1597 41.6667 25 41.6667ZM25 22.9167C25.9028 22.9167 26.6493 22.6216 27.2396 22.0313C27.8299 21.4411 28.125 20.6945 28.125 19.7917C28.125 18.889 27.8299 18.1424 27.2396 17.5522C26.6493 16.9619 25.9028 16.6667 25 16.6667C24.0972 16.6667 23.3507 16.9619 22.7604 17.5522C22.1702 18.1424 21.875 18.889 21.875 19.7917C21.875 20.6945 22.1702 21.4411 22.7604 22.0313C23.3507 22.6216 24.0972 22.9167 25 22.9167Z" fill="black"/>
</svg>
