<svg width="40" height="40" viewBox="0 0 40 40" fill="none" xmlns="http://www.w3.org/2000/svg">
<rect width="40" height="40" rx="10" fill="#1269C7"/>
<path d="M20 33.3334C21.4167 33.3334 22.7778 33.1181 24.0833 32.6875C25.3889 32.257 26.6111 31.6389 27.75 30.8334C26.6111 30.0278 25.3889 29.4098 24.0833 28.9792C22.7778 28.5487 21.4167 28.3334 20 28.3334C18.5833 28.3334 17.2222 28.5487 15.9167 28.9792C14.6111 29.4098 13.3889 30.0278 12.25 30.8334C13.3889 31.6389 14.6111 32.257 15.9167 32.6875C17.2222 33.1181 18.5833 33.3334 20 33.3334ZM24.4167 19.6667L22.0417 17.2917C22.1806 17.0695 22.2917 16.8334 22.375 16.5834C22.4583 16.3334 22.5 16.0834 22.5 15.8334C22.5 15.1389 22.2569 14.5487 21.7708 14.0625C21.2847 13.5764 20.6944 13.3334 20 13.3334C19.75 13.3334 19.5 13.375 19.25 13.4584C19 13.5417 18.7639 13.6528 18.5417 13.7917L16.1667 11.4167C16.6944 10.9445 17.2847 10.5903 17.9375 10.3542C18.5903 10.1181 19.2778 10 20 10C21.6111 10 22.9861 10.5695 24.125 11.7084C25.2639 12.8473 25.8333 14.2223 25.8333 15.8334C25.8333 16.5556 25.7153 17.2431 25.4792 17.8959C25.2431 18.5487 24.8889 19.1389 24.4167 19.6667ZM33.9167 29.1667L31.5 26.75C32.1111 25.7223 32.5694 24.6389 32.875 23.5C33.1806 22.3612 33.3333 21.1945 33.3333 20C33.3333 16.2778 32.0417 13.125 29.4583 10.5417C26.875 7.95837 23.7222 6.66671 20 6.66671C18.8056 6.66671 17.6389 6.81949 16.5 7.12504C15.3611 7.4306 14.2778 7.88893 13.25 8.50004L10.8333 6.08337C12.1944 5.19449 13.6528 4.51393 15.2083 4.04171C16.7639 3.56949 18.3611 3.33337 20 3.33337C22.3056 3.33337 24.4722 3.77087 26.5 4.64587C28.5278 5.52087 30.2917 6.70837 31.7917 8.20837C33.2917 9.70837 34.4792 11.4723 35.3542 13.5C36.2292 15.5278 36.6667 17.6945 36.6667 20C36.6667 21.6389 36.4306 23.2362 35.9583 24.7917C35.4861 26.3473 34.8056 27.8056 33.9167 29.1667ZM20 36.6667C17.6944 36.6667 15.5278 36.2292 13.5 35.3542C11.4722 34.4792 9.70833 33.2917 8.20833 31.7917C6.70833 30.2917 5.52083 28.5278 4.64583 26.5C3.77083 24.4723 3.33333 22.3056 3.33333 20C3.33333 18.3612 3.5625 16.7639 4.02083 15.2084C4.47917 13.6528 5.15278 12.1806 6.04167 10.7917L1.125 5.83337L3.5 3.45837L36.5 36.4584L34.125 38.8334L8.5 13.25C7.88889 14.2778 7.43056 15.3612 7.125 16.5C6.81944 17.6389 6.66667 18.8056 6.66667 20C6.66667 21.5834 6.93056 23.0973 7.45833 24.5417C7.98611 25.9862 8.75 27.3056 9.75 28.5C11.25 27.3612 12.8681 26.4931 14.6042 25.8959C16.3403 25.2987 18.1389 25 20 25C21.0556 25 22.1111 25.1112 23.1667 25.3334C24.2222 25.5556 25.25 25.8612 26.25 26.25L31.7917 31.7917C30.2083 33.375 28.4028 34.5834 26.375 35.4167C24.3472 36.25 22.2222 36.6667 20 36.6667Z" fill="white"/>
</svg>
