<svg width="55" height="55" viewBox="0 0 55 55" fill="none" xmlns="http://www.w3.org/2000/svg">
<rect x="0.5" y="0.5" width="54" height="54" rx="9.5" fill="white"/>
<rect x="0.5" y="0.5" width="54" height="54" rx="9.5" stroke="black"/>
<path d="M11.4583 45.8333V41.2499H16.0416V32.0833L2.29163 11.4583H34.375L20.625 32.0833V41.2499H25.2083V45.8333H11.4583ZM13.5208 20.6249H23.1458L26.3541 16.0416H10.3125L13.5208 20.6249ZM36.6666 45.8333C34.7569 45.8333 33.1336 45.1648 31.7968 43.828C30.46 42.4912 29.7916 40.868 29.7916 38.9583C29.7916 37.0485 30.46 35.4253 31.7968 34.0885C33.1336 32.7517 34.7569 32.0833 36.6666 32.0833C37.0868 32.0833 37.4878 32.1119 37.8698 32.1692C38.2517 32.2265 38.6145 32.3506 38.9583 32.5416V11.4583H50.4166V18.3333H43.5416V38.9583C43.5416 40.868 42.8732 42.4912 41.5364 43.828C40.1996 45.1648 38.5763 45.8333 36.6666 45.8333Z" fill="black"/>
</svg>
