<svg width="40" height="40" viewBox="0 0 40 40" fill="none" xmlns="http://www.w3.org/2000/svg">
<rect width="40" height="40" rx="10" fill="#1269C7"/>
<path d="M23.3333 21.6666H31.6666V18.3333H23.3333V21.6666ZM23.3333 16.6666H31.6666V13.3333H23.3333V16.6666ZM8.33325 26.6666H21.6666V25.75C21.6666 24.5 21.0555 23.5069 19.8333 22.7708C18.611 22.0347 16.9999 21.6666 14.9999 21.6666C12.9999 21.6666 11.3888 22.0347 10.1666 22.7708C8.94436 23.5069 8.33325 24.5 8.33325 25.75V26.6666ZM14.9999 20C15.9166 20 16.7013 19.6736 17.3541 19.0208C18.0069 18.368 18.3333 17.5833 18.3333 16.6666C18.3333 15.75 18.0069 14.9652 17.3541 14.3125C16.7013 13.6597 15.9166 13.3333 14.9999 13.3333C14.0833 13.3333 13.2985 13.6597 12.6458 14.3125C11.993 14.9652 11.6666 15.75 11.6666 16.6666C11.6666 17.5833 11.993 18.368 12.6458 19.0208C13.2985 19.6736 14.0833 20 14.9999 20ZM6.66658 33.3333C5.74992 33.3333 4.9652 33.0069 4.31242 32.3541C3.65964 31.7013 3.33325 30.9166 3.33325 30V9.99996C3.33325 9.08329 3.65964 8.29857 4.31242 7.64579C4.9652 6.99301 5.74992 6.66663 6.66658 6.66663H33.3333C34.2499 6.66663 35.0346 6.99301 35.6874 7.64579C36.3402 8.29857 36.6666 9.08329 36.6666 9.99996V30C36.6666 30.9166 36.3402 31.7013 35.6874 32.3541C35.0346 33.0069 34.2499 33.3333 33.3333 33.3333H6.66658ZM6.66658 30H33.3333V9.99996H6.66658V30Z" fill="white"/>
</svg>
