<svg width="50" height="50" viewBox="0 0 50 50" fill="none" xmlns="http://www.w3.org/2000/svg">
<path d="M25 45.8334C20.0347 45.8334 15.6423 44.2709 11.8229 41.1459C8.00343 38.0209 5.59024 34.0279 4.58329 29.1667H8.85413C9.82635 32.8473 11.8055 35.8508 14.7916 38.1772C17.7777 40.5036 21.1805 41.6667 25 41.6667C27.9861 41.6667 30.7638 40.9289 33.3333 39.4532C35.9027 37.9775 37.9166 35.9376 39.375 33.3334H33.3333V29.1667H45.8333V41.6667H41.6666V37.5001C39.6875 40.139 37.2395 42.1876 34.3229 43.6459C31.4062 45.1043 28.2986 45.8334 25 45.8334ZM25 31.2501C23.2638 31.2501 21.7882 30.6424 20.5729 29.4272C19.3576 28.2119 18.75 26.7362 18.75 25.0001C18.75 23.264 19.3576 21.7883 20.5729 20.573C21.7882 19.3577 23.2638 18.7501 25 18.7501C26.7361 18.7501 28.2118 19.3577 29.427 20.573C30.6423 21.7883 31.25 23.264 31.25 25.0001C31.25 26.7362 30.6423 28.2119 29.427 29.4272C28.2118 30.6424 26.7361 31.2501 25 31.2501ZM4.16663 20.8334V8.33342H8.33329V12.5001C10.3125 9.86119 12.7604 7.81258 15.677 6.35425C18.5937 4.89591 21.7013 4.16675 25 4.16675C29.9652 4.16675 34.3576 5.72925 38.177 8.85425C41.9965 11.9792 44.4097 15.9723 45.4166 20.8334H41.1458C40.1736 17.1529 38.1944 14.1494 35.2083 11.823C32.2222 9.49661 28.8194 8.33342 25 8.33342C22.0138 8.33342 19.2361 9.07126 16.6666 10.547C14.0972 12.0227 12.0833 14.0626 10.625 16.6667H16.6666V20.8334H4.16663Z" fill="#1269C7"/>
</svg>
