<svg width="55" height="55" viewBox="0 0 55 55" fill="none" xmlns="http://www.w3.org/2000/svg">
<rect x="0.5" y="0.5" width="54" height="54" rx="9.5" fill="white"/>
<rect x="0.5" y="0.5" width="54" height="54" rx="9.5" stroke="black"/>
<path d="M26.3406 7.33838C27.1301 6.88721 28.1048 6.88721 28.9023 7.33838L42.742 15.2419L43.0884 15.3789V15.4514L46.9471 17.6589C47.9621 18.239 48.4615 19.4314 48.1635 20.5593C47.8654 21.6873 46.8423 22.4768 45.6743 22.4768H9.5767C8.40862 22.4768 7.38555 21.6873 7.08749 20.5593C6.78943 19.4314 7.28888 18.239 8.3039 17.6589L12.1545 15.4514V15.3789L12.509 15.25L26.3406 7.33838ZM12.1545 25.0469H17.3102V40.5156H20.5324V25.0469H25.6881V40.5156H29.5548V25.0469H34.7105V40.5156H37.9327V25.0469H43.0884V40.8621C43.1367 40.8862 43.1851 40.9185 43.2334 40.9507L47.1001 43.5288C48.0426 44.1572 48.4696 45.3335 48.1393 46.4211C47.809 47.5088 46.8021 48.25 45.6662 48.25H9.5767C8.44085 48.25 7.44194 47.5088 7.11166 46.4211C6.78137 45.3335 7.20027 44.1572 8.15084 43.5288L12.0176 40.9507C12.0659 40.9185 12.1142 40.8943 12.1626 40.8621V25.0469H12.1545Z" fill="black"/>
</svg>
