<svg width="40" height="40" viewBox="0 0 40 40" fill="none" xmlns="http://www.w3.org/2000/svg">
<rect width="40" height="40" rx="10" fill="#1269C7"/>
<path d="M13.3334 30H26.6667V26.6667H13.3334V30ZM13.3334 23.3334H26.6667V20H13.3334V23.3334ZM10.0001 36.6667C9.08341 36.6667 8.29869 36.3403 7.64591 35.6875C6.99314 35.0348 6.66675 34.25 6.66675 33.3334V6.66671C6.66675 5.75004 6.99314 4.96532 7.64591 4.31254C8.29869 3.65976 9.08341 3.33337 10.0001 3.33337H23.3334L33.3334 13.3334V33.3334C33.3334 34.25 33.007 35.0348 32.3542 35.6875C31.7015 36.3403 30.9167 36.6667 30.0001 36.6667H10.0001ZM21.6667 15V6.66671H10.0001V33.3334H30.0001V15H21.6667Z" fill="white"/>
</svg>
