<svg width="40" height="40" viewBox="0 0 40 40" fill="none" xmlns="http://www.w3.org/2000/svg">
<path d="M13.3334 29.9999H26.6667V26.6666H13.3334V29.9999ZM13.3334 23.3333H26.6667V19.9999H13.3334V23.3333ZM10.0001 36.6666C9.08341 36.6666 8.29869 36.3402 7.64591 35.6874C6.99314 35.0346 6.66675 34.2499 6.66675 33.3333V6.66658C6.66675 5.74992 6.99314 4.9652 7.64591 4.31242C8.29869 3.65964 9.08341 3.33325 10.0001 3.33325H23.3334L33.3334 13.3333V33.3333C33.3334 34.2499 33.007 35.0346 32.3542 35.6874C31.7015 36.3402 30.9167 36.6666 30.0001 36.6666H10.0001ZM21.6667 14.9999V6.66658H10.0001V33.3333H30.0001V14.9999H21.6667Z" fill="#1F1F1F"/>
</svg>
