<svg width="55" height="55" viewBox="0 0 55 55" fill="none" xmlns="http://www.w3.org/2000/svg">
<rect x="0.5" y="0.5" width="54" height="54" rx="9.5" fill="#1269C7"/>
<rect x="0.5" y="0.5" width="54" height="54" rx="9.5" stroke="#1269C7"/>
<path d="M44.9167 48.125L30.3646 33.573L33.5729 30.3646L48.125 44.9167L44.9167 48.125ZM13.6354 46.5209C11.3438 44.2292 9.6441 41.6511 8.53646 38.7865C7.42882 35.9219 6.875 33 6.875 30.0209C6.875 27.0417 7.42882 24.1389 8.53646 21.3125C9.6441 18.4862 11.3438 15.9271 13.6354 13.6355C15.9271 11.3438 18.4957 9.63459 21.3411 8.50785C24.1866 7.38112 27.099 6.81775 30.0781 6.81775C33.0573 6.81775 35.9696 7.38112 38.8151 8.50785C41.6606 9.63459 44.2292 11.3438 46.5208 13.6355L13.6354 46.5209ZM14.0938 39.5313L17.1875 36.4375C16.5764 35.6355 15.9939 34.8143 15.4401 33.974C14.8863 33.1337 14.3802 32.2934 13.9219 31.4532C13.4635 30.6129 13.0625 29.7726 12.7188 28.9323C12.375 28.0921 12.0694 27.2709 11.8021 26.4688C11.3819 28.7223 11.3533 30.9757 11.7161 33.2292C12.079 35.4827 12.8715 37.5834 14.0938 39.5313ZM20.5104 33.2292L33.2292 20.3959C31.5868 19.1355 29.9349 18.1138 28.2734 17.3308C26.612 16.5478 25.0556 16.0131 23.6042 15.7266C22.1528 15.4401 20.8446 15.3924 19.6797 15.5834C18.5148 15.7743 17.6076 16.1945 16.9583 16.8438C16.309 17.5313 15.8889 18.4575 15.6979 19.6224C15.5069 20.7874 15.5547 22.1051 15.8411 23.5756C16.1276 25.046 16.6623 26.6025 17.4453 28.2448C18.2283 29.8872 19.25 31.5487 20.5104 33.2292ZM36.4375 17.1875L39.6458 14.0938C37.6215 12.8716 35.4826 12.0695 33.2292 11.6875C30.9757 11.3056 28.7222 11.3438 26.4688 11.8021C27.309 12.0695 28.1493 12.375 28.9896 12.7188C29.8299 13.0625 30.6701 13.454 31.5104 13.8933C32.3507 14.3325 33.1814 14.829 34.0026 15.3829C34.8238 15.9367 35.6354 16.5382 36.4375 17.1875Z" fill="white"/>
</svg>
