<svg width="55" height="55" viewBox="0 0 55 55" fill="none" xmlns="http://www.w3.org/2000/svg">
<rect x="0.5" y="0.5" width="54" height="54" rx="9.5" fill="#1269C7"/>
<rect x="0.5" y="0.5" width="54" height="54" rx="9.5" stroke="#1269C7"/>
<path d="M11.4583 45.8334V41.25H16.0416V32.0834L2.29163 11.4584H34.375L20.625 32.0834V41.25H25.2083V45.8334H11.4583ZM13.5208 20.625H23.1458L26.3541 16.0417H10.3125L13.5208 20.625ZM36.6666 45.8334C34.7569 45.8334 33.1336 45.165 31.7968 43.8282C30.46 42.4914 29.7916 40.8681 29.7916 38.9584C29.7916 37.0487 30.46 35.4254 31.7968 34.0886C33.1336 32.7518 34.7569 32.0834 36.6666 32.0834C37.0868 32.0834 37.4878 32.112 37.8698 32.1693C38.2517 32.2266 38.6145 32.3507 38.9583 32.5417V11.4584H50.4166V18.3334H43.5416V38.9584C43.5416 40.8681 42.8732 42.4914 41.5364 43.8282C40.1996 45.165 38.5763 45.8334 36.6666 45.8334Z" fill="white"/>
</svg>
