<svg width="55" height="55" viewBox="0 0 55 55" fill="none" xmlns="http://www.w3.org/2000/svg">
<rect x="0.5" y="0.5" width="54" height="54" rx="9.5" fill="white"/>
<rect x="0.5" y="0.5" width="54" height="54" rx="9.5" stroke="black"/>
<path d="M44.9167 48.1249L30.3646 33.5728L33.5729 30.3645L48.125 44.9166L44.9167 48.1249ZM13.6354 46.5208C11.3438 44.2291 9.6441 41.651 8.53646 38.7864C7.42882 35.9218 6.875 32.9999 6.875 30.0208C6.875 27.0416 7.42882 24.1388 8.53646 21.3124C9.6441 18.486 11.3438 15.927 13.6354 13.6353C15.9271 11.3437 18.4957 9.63447 21.3411 8.50773C24.1866 7.381 27.099 6.81763 30.0781 6.81763C33.0573 6.81763 35.9696 7.381 38.8151 8.50773C41.6606 9.63447 44.2292 11.3437 46.5208 13.6353L13.6354 46.5208ZM14.0938 39.5312L17.1875 36.4374C16.5764 35.6353 15.9939 34.8142 15.4401 33.9739C14.8863 33.1336 14.3802 32.2933 13.9219 31.453C13.4635 30.6128 13.0625 29.7725 12.7188 28.9322C12.375 28.0919 12.0694 27.2708 11.8021 26.4687C11.3819 28.7221 11.3533 30.9756 11.7161 33.2291C12.079 35.4826 12.8715 37.5833 14.0938 39.5312ZM20.5104 33.2291L33.2292 20.3958C31.5868 19.1353 29.9349 18.1136 28.2734 17.3306C26.612 16.5477 25.0556 16.0129 23.6042 15.7265C22.1528 15.44 20.8446 15.3923 19.6797 15.5833C18.5148 15.7742 17.6076 16.1944 16.9583 16.8437C16.309 17.5312 15.8889 18.4574 15.6979 19.6223C15.5069 20.7872 15.5547 22.105 15.8411 23.5754C16.1276 25.0459 16.6623 26.6023 17.4453 28.2447C18.2283 29.8871 19.25 31.5485 20.5104 33.2291ZM36.4375 17.1874L39.6458 14.0937C37.6215 12.8714 35.4826 12.0694 33.2292 11.6874C30.9757 11.3055 28.7222 11.3437 26.4688 11.802C27.309 12.0694 28.1493 12.3749 28.9896 12.7187C29.8299 13.0624 30.6701 13.4539 31.5104 13.8931C32.3507 14.3324 33.1814 14.8289 34.0026 15.3827C34.8238 15.9366 35.6354 16.5381 36.4375 17.1874Z" fill="black"/>
</svg>
