<svg width="40" height="40" viewBox="0 0 40 40" fill="none" xmlns="http://www.w3.org/2000/svg">
<path d="M23.3333 21.6667H31.6666V18.3334H23.3333V21.6667ZM23.3333 16.6667H31.6666V13.3334H23.3333V16.6667ZM8.33325 26.6667H21.6666V25.7501C21.6666 24.5001 21.0555 23.507 19.8333 22.7709C18.611 22.0348 16.9999 21.6667 14.9999 21.6667C12.9999 21.6667 11.3888 22.0348 10.1666 22.7709C8.94436 23.507 8.33325 24.5001 8.33325 25.7501V26.6667ZM14.9999 20.0001C15.9166 20.0001 16.7013 19.6737 17.3541 19.0209C18.0069 18.3681 18.3333 17.5834 18.3333 16.6667C18.3333 15.7501 18.0069 14.9654 17.3541 14.3126C16.7013 13.6598 15.9166 13.3334 14.9999 13.3334C14.0833 13.3334 13.2985 13.6598 12.6458 14.3126C11.993 14.9654 11.6666 15.7501 11.6666 16.6667C11.6666 17.5834 11.993 18.3681 12.6458 19.0209C13.2985 19.6737 14.0833 20.0001 14.9999 20.0001ZM6.66658 33.3334C5.74992 33.3334 4.9652 33.007 4.31242 32.3542C3.65964 31.7015 3.33325 30.9167 3.33325 30.0001V10.0001C3.33325 9.08341 3.65964 8.29869 4.31242 7.64591C4.9652 6.99314 5.74992 6.66675 6.66658 6.66675H33.3333C34.2499 6.66675 35.0346 6.99314 35.6874 7.64591C36.3402 8.29869 36.6666 9.08341 36.6666 10.0001V30.0001C36.6666 30.9167 36.3402 31.7015 35.6874 32.3542C35.0346 33.007 34.2499 33.3334 33.3333 33.3334H6.66658ZM6.66658 30.0001H33.3333V10.0001H6.66658V30.0001Z" fill="#1F1F1F"/>
</svg>
