<svg width="50" height="50" viewBox="0 0 50 50" fill="none" xmlns="http://www.w3.org/2000/svg">
<path d="M25 45.8333C20.0347 45.8333 15.6423 44.2708 11.8229 41.1458C8.00343 38.0208 5.59024 34.0277 4.58329 29.1666H8.85413C9.82635 32.8472 11.8055 35.8507 14.7916 38.177C17.7777 40.5034 21.1805 41.6666 25 41.6666C27.9861 41.6666 30.7638 40.9288 33.3333 39.4531C35.9027 37.9774 37.9166 35.9375 39.375 33.3333H33.3333V29.1666H45.8333V41.6666H41.6666V37.5C39.6875 40.1389 37.2395 42.1875 34.3229 43.6458C31.4062 45.1041 28.2986 45.8333 25 45.8333ZM25 31.25C23.2638 31.25 21.7882 30.6423 20.5729 29.427C19.3576 28.2118 18.75 26.7361 18.75 25C18.75 23.2638 19.3576 21.7882 20.5729 20.5729C21.7882 19.3576 23.2638 18.75 25 18.75C26.7361 18.75 28.2118 19.3576 29.427 20.5729C30.6423 21.7882 31.25 23.2638 31.25 25C31.25 26.7361 30.6423 28.2118 29.427 29.427C28.2118 30.6423 26.7361 31.25 25 31.25ZM4.16663 20.8333V8.33329H8.33329V12.5C10.3125 9.86107 12.7604 7.81246 15.677 6.35413C18.5937 4.89579 21.7013 4.16663 25 4.16663C29.9652 4.16663 34.3576 5.72913 38.177 8.85413C41.9965 11.9791 44.4097 15.9722 45.4166 20.8333H41.1458C40.1736 17.1527 38.1944 14.1493 35.2083 11.8229C32.2222 9.49649 28.8194 8.33329 25 8.33329C22.0138 8.33329 19.2361 9.07114 16.6666 10.5468C14.0972 12.0225 12.0833 14.0625 10.625 16.6666H16.6666V20.8333H4.16663Z" fill="white"/>
</svg>
