<svg width="40" height="40" viewBox="0 0 40 40" fill="none" xmlns="http://www.w3.org/2000/svg">
<rect width="40" height="40" rx="20" fill="#1269C7"/>
<path d="M25.8333 35C24.6759 35 23.6921 34.5625 22.8819 33.6875C22.0718 32.8125 21.6667 31.75 21.6667 30.5C21.6667 30.35 21.7014 30 21.7708 29.45L12.0139 23.3C11.6435 23.675 11.2153 23.9688 10.7292 24.1813C10.2431 24.3938 9.72222 24.5 9.16667 24.5C8.00926 24.5 7.02546 24.0625 6.21528 23.1875C5.40509 22.3125 5 21.25 5 20C5 18.75 5.40509 17.6875 6.21528 16.8125C7.02546 15.9375 8.00926 15.5 9.16667 15.5C9.72222 15.5 10.2431 15.6063 10.7292 15.8188C11.2153 16.0312 11.6435 16.325 12.0139 16.7L21.7708 10.55C21.7245 10.375 21.6956 10.2063 21.684 10.0438C21.6725 9.88125 21.6667 9.7 21.6667 9.5C21.6667 8.25 22.0718 7.1875 22.8819 6.3125C23.6921 5.4375 24.6759 5 25.8333 5C26.9907 5 27.9745 5.4375 28.7847 6.3125C29.5949 7.1875 30 8.25 30 9.5C30 10.75 29.5949 11.8125 28.7847 12.6875C27.9745 13.5625 26.9907 14 25.8333 14C25.2778 14 24.7569 13.8938 24.2708 13.6813C23.7847 13.4688 23.3565 13.175 22.9861 12.8L13.2292 18.95C13.2755 19.125 13.3044 19.2938 13.316 19.4563C13.3275 19.6188 13.3333 19.8 13.3333 20C13.3333 20.2 13.3275 20.3813 13.316 20.5438C13.3044 20.7063 13.2755 20.875 13.2292 21.05L22.9861 27.2C23.3565 26.825 23.7847 26.5312 24.2708 26.3188C24.7569 26.1063 25.2778 26 25.8333 26C26.9907 26 27.9745 26.4375 28.7847 27.3125C29.5949 28.1875 30 29.25 30 30.5C30 31.75 29.5949 32.8125 28.7847 33.6875C27.9745 34.5625 26.9907 35 25.8333 35ZM25.8333 32C26.2269 32 26.5567 31.8563 26.8229 31.5688C27.0891 31.2813 27.2222 30.925 27.2222 30.5C27.2222 30.075 27.0891 29.7188 26.8229 29.4313C26.5567 29.1438 26.2269 29 25.8333 29C25.4398 29 25.11 29.1438 24.8438 29.4313C24.5775 29.7188 24.4444 30.075 24.4444 30.5C24.4444 30.925 24.5775 31.2813 24.8438 31.5688C25.11 31.8563 25.4398 32 25.8333 32ZM9.16667 21.5C9.56019 21.5 9.89005 21.3563 10.1563 21.0688C10.4225 20.7813 10.5556 20.425 10.5556 20C10.5556 19.575 10.4225 19.2188 10.1563 18.9313C9.89005 18.6438 9.56019 18.5 9.16667 18.5C8.77315 18.5 8.44329 18.6438 8.17708 18.9313C7.91088 19.2188 7.77778 19.575 7.77778 20C7.77778 20.425 7.91088 20.7813 8.17708 21.0688C8.44329 21.3563 8.77315 21.5 9.16667 21.5ZM25.8333 11C26.2269 11 26.5567 10.8563 26.8229 10.5688C27.0891 10.2812 27.2222 9.925 27.2222 9.5C27.2222 9.075 27.0891 8.71875 26.8229 8.43125C26.5567 8.14375 26.2269 8 25.8333 8C25.4398 8 25.11 8.14375 24.8438 8.43125C24.5775 8.71875 24.4444 9.075 24.4444 9.5C24.4444 9.925 24.5775 10.2812 24.8438 10.5688C25.11 10.8563 25.4398 11 25.8333 11Z" fill="white"/>
</svg>
