<svg width="36" height="36" viewBox="0 0 36 36" fill="none" xmlns="http://www.w3.org/2000/svg">
<path d="M13.875 33L13.275 28.2C12.95 28.075 12.6438 27.925 12.3563 27.75C12.0688 27.575 11.7875 27.3875 11.5125 27.1875L7.05005 29.0625L2.92505 21.9375L6.78755 19.0125C6.76255 18.8375 6.75005 18.6688 6.75005 18.5063V17.4938C6.75005 17.3313 6.76255 17.1625 6.78755 16.9875L2.92505 14.0625L7.05005 6.9375L11.5125 8.8125C11.7875 8.6125 12.075 8.425 12.375 8.25C12.675 8.075 12.975 7.925 13.275 7.8L13.875 3H22.125L22.725 7.8C23.05 7.925 23.3563 8.075 23.6438 8.25C23.9313 8.425 24.2125 8.6125 24.4875 8.8125L28.9501 6.9375L33.0751 14.0625L29.2125 16.9875C29.2376 17.1625 29.25 17.3313 29.25 17.4938V18.5063C29.25 18.6688 29.225 18.8375 29.1751 19.0125L33.0375 21.9375L28.9125 29.0625L24.4875 27.1875C24.2125 27.3875 23.925 27.575 23.625 27.75C23.3251 27.925 23.025 28.075 22.725 28.2L22.125 33H13.875ZM16.5 30H19.4625L19.9875 26.025C20.7626 25.825 21.4813 25.5312 22.1438 25.1438C22.8063 24.7563 23.4125 24.2875 23.9625 23.7375L27.6751 25.275L29.1376 22.725L25.9125 20.2875C26.0375 19.9375 26.125 19.5688 26.175 19.1813C26.225 18.7938 26.25 18.4 26.25 18C26.25 17.6 26.225 17.2063 26.175 16.8188C26.125 16.4313 26.0375 16.0625 25.9125 15.7125L29.1376 13.275L27.6751 10.725L23.9625 12.3C23.4125 11.725 22.8063 11.2438 22.1438 10.8563C21.4813 10.4688 20.7626 10.175 19.9875 9.975L19.5 6H16.5375L16.0125 9.975C15.2375 10.175 14.5188 10.4688 13.8563 10.8563C13.1938 11.2438 12.5875 11.7125 12.0375 12.2625L8.32505 10.725L6.86255 13.275L10.0875 15.675C9.96255 16.05 9.87505 16.425 9.82505 16.8C9.77505 17.175 9.75005 17.575 9.75005 18C9.75005 18.4 9.77505 18.7875 9.82505 19.1625C9.87505 19.5375 9.96255 19.9125 10.0875 20.2875L6.86255 22.725L8.32505 25.275L12.0375 23.7C12.5875 24.275 13.1938 24.7563 13.8563 25.1438C14.5188 25.5312 15.2375 25.825 16.0125 26.025L16.5 30ZM18.075 23.25C19.525 23.25 20.7626 22.7375 21.7875 21.7125C22.8125 20.6875 23.3251 19.45 23.3251 18C23.3251 16.55 22.8125 15.3125 21.7875 14.2875C20.7626 13.2625 19.525 12.75 18.075 12.75C16.6 12.75 15.3563 13.2625 14.3438 14.2875C13.3313 15.3125 12.825 16.55 12.825 18C12.825 19.45 13.3313 20.6875 14.3438 21.7125C15.3563 22.7375 16.6 23.25 18.075 23.25Z" fill="#1F1F1F"/>
</svg>
