<svg width="50" height="50" viewBox="0 0 50 50" fill="none" xmlns="http://www.w3.org/2000/svg">
<rect x="1.5" y="1.5" width="47" height="47" rx="8.5" fill="white"/>
<rect x="1.5" y="1.5" width="47" height="47" rx="8.5" stroke="#1269C7" stroke-width="3"/>
<path d="M30.2083 37.5C28.75 37.5 27.5174 36.9965 26.5104 35.9895C25.5035 34.9826 25 33.75 25 32.2916C25 30.8333 25.5035 29.6007 26.5104 28.5937C27.5174 27.5868 28.75 27.0833 30.2083 27.0833C31.6667 27.0833 32.8993 27.5868 33.9062 28.5937C34.9132 29.6007 35.4167 30.8333 35.4167 32.2916C35.4167 33.75 34.9132 34.9826 33.9062 35.9895C32.8993 36.9965 31.6667 37.5 30.2083 37.5ZM10.4167 45.8333C9.27083 45.8333 8.28993 45.4253 7.47396 44.6093C6.65799 43.7934 6.25 42.8125 6.25 41.6666V12.5C6.25 11.3541 6.65799 10.3732 7.47396 9.55725C8.28993 8.74128 9.27083 8.33329 10.4167 8.33329H12.5V4.16663H16.6667V8.33329H33.3333V4.16663H37.5V8.33329H39.5833C40.7292 8.33329 41.7101 8.74128 42.526 9.55725C43.342 10.3732 43.75 11.3541 43.75 12.5V41.6666C43.75 42.8125 43.342 43.7934 42.526 44.6093C41.7101 45.4253 40.7292 45.8333 39.5833 45.8333H10.4167ZM10.4167 41.6666H39.5833V20.8333H10.4167V41.6666ZM10.4167 16.6666H39.5833V12.5H10.4167V16.6666Z" fill="#1269C7"/>
</svg>
