<svg width="50" height="50" viewBox="0 0 50 50" fill="none" xmlns="http://www.w3.org/2000/svg">
<path d="M30.2083 37.5001C28.75 37.5001 27.5174 36.9966 26.5104 35.9897C25.5035 34.9827 25 33.7501 25 32.2918C25 30.8334 25.5035 29.6008 26.5104 28.5938C27.5174 27.5869 28.75 27.0834 30.2083 27.0834C31.6667 27.0834 32.8993 27.5869 33.9062 28.5938C34.9132 29.6008 35.4167 30.8334 35.4167 32.2918C35.4167 33.7501 34.9132 34.9827 33.9062 35.9897C32.8993 36.9966 31.6667 37.5001 30.2083 37.5001ZM10.4167 45.8334C9.27083 45.8334 8.28993 45.4254 7.47396 44.6095C6.65799 43.7935 6.25 42.8126 6.25 41.6668V12.5001C6.25 11.3542 6.65799 10.3733 7.47396 9.55737C8.28993 8.7414 9.27083 8.33342 10.4167 8.33342H12.5V4.16675H16.6667V8.33342H33.3333V4.16675H37.5V8.33342H39.5833C40.7292 8.33342 41.7101 8.7414 42.526 9.55737C43.342 10.3733 43.75 11.3542 43.75 12.5001V41.6668C43.75 42.8126 43.342 43.7935 42.526 44.6095C41.7101 45.4254 40.7292 45.8334 39.5833 45.8334H10.4167ZM10.4167 41.6668H39.5833V20.8334H10.4167V41.6668ZM10.4167 16.6667H39.5833V12.5001H10.4167V16.6667Z" fill="#1269C7"/>
</svg>
