<svg width="30" height="30" viewBox="0 0 30 30" fill="none" xmlns="http://www.w3.org/2000/svg">
<path d="M18.125 22.5C17.25 22.5 16.5104 22.1979 15.9062 21.5938C15.3021 20.9896 15 20.25 15 19.375C15 18.5 15.3021 17.7604 15.9062 17.1563C16.5104 16.5521 17.25 16.25 18.125 16.25C19 16.25 19.7396 16.5521 20.3438 17.1563C20.9479 17.7604 21.25 18.5 21.25 19.375C21.25 20.25 20.9479 20.9896 20.3438 21.5938C19.7396 22.1979 19 22.5 18.125 22.5ZM6.25 27.5C5.5625 27.5 4.97396 27.2552 4.48438 26.7656C3.99479 26.276 3.75 25.6875 3.75 25V7.5C3.75 6.8125 3.99479 6.22396 4.48438 5.73438C4.97396 5.24479 5.5625 5 6.25 5H7.5V2.5H10V5H20V2.5H22.5V5H23.75C24.4375 5 25.026 5.24479 25.5156 5.73438C26.0052 6.22396 26.25 6.8125 26.25 7.5V25C26.25 25.6875 26.0052 26.276 25.5156 26.7656C25.026 27.2552 24.4375 27.5 23.75 27.5H6.25ZM6.25 25H23.75V12.5H6.25V25ZM6.25 10H23.75V7.5H6.25V10Z" fill="#1269C7"/>
</svg>
