<svg width="75" height="75" viewBox="0 0 75 75" fill="none" xmlns="http://www.w3.org/2000/svg">
<path d="M14.4375 56.625C17.625 54.1875 21.1875 52.2656 25.125 50.8594C29.0625 49.4531 33.1875 48.75 37.5 48.75C41.8125 48.75 45.9375 49.4531 49.875 50.8594C53.8125 52.2656 57.375 54.1875 60.5625 56.625C62.75 54.0625 64.4531 51.1562 65.6719 47.9062C66.8906 44.6562 67.5 41.1875 67.5 37.5C67.5 29.1875 64.5781 22.1094 58.7344 16.2656C52.8906 10.4219 45.8125 7.5 37.5 7.5C29.1875 7.5 22.1094 10.4219 16.2656 16.2656C10.4219 22.1094 7.5 29.1875 7.5 37.5C7.5 41.1875 8.10938 44.6562 9.32813 47.9062C10.5469 51.1562 12.25 54.0625 14.4375 56.625ZM37.5 41.25C33.8125 41.25 30.7031 39.9844 28.1719 37.4531C25.6406 34.9219 24.375 31.8125 24.375 28.125C24.375 24.4375 25.6406 21.3281 28.1719 18.7969C30.7031 16.2656 33.8125 15 37.5 15C41.1875 15 44.2969 16.2656 46.8281 18.7969C49.3594 21.3281 50.625 24.4375 50.625 28.125C50.625 31.8125 49.3594 34.9219 46.8281 37.4531C44.2969 39.9844 41.1875 41.25 37.5 41.25ZM37.5 75C32.3125 75 27.4375 74.0156 22.875 72.0469C18.3125 70.0781 14.3438 67.4062 10.9688 64.0312C7.59375 60.6562 4.92188 56.6875 2.95313 52.125C0.984375 47.5625 0 42.6875 0 37.5C0 32.3125 0.984375 27.4375 2.95313 22.875C4.92188 18.3125 7.59375 14.3437 10.9688 10.9687C14.3438 7.59375 18.3125 4.92187 22.875 2.95312C27.4375 0.984375 32.3125 0 37.5 0C42.6875 0 47.5625 0.984375 52.125 2.95312C56.6875 4.92187 60.6563 7.59375 64.0313 10.9687C67.4063 14.3437 70.0781 18.3125 72.0469 22.875C74.0156 27.4375 75 32.3125 75 37.5C75 42.6875 74.0156 47.5625 72.0469 52.125C70.0781 56.6875 67.4063 60.6562 64.0313 64.0312C60.6563 67.4062 56.6875 70.0781 52.125 72.0469C47.5625 74.0156 42.6875 75 37.5 75ZM37.5 67.5C40.8125 67.5 43.9375 67.0156 46.875 66.0469C49.8125 65.0781 52.5 63.6875 54.9375 61.875C52.5 60.0625 49.8125 58.6719 46.875 57.7031C43.9375 56.7344 40.8125 56.25 37.5 56.25C34.1875 56.25 31.0625 56.7344 28.125 57.7031C25.1875 58.6719 22.5 60.0625 20.0625 61.875C22.5 63.6875 25.1875 65.0781 28.125 66.0469C31.0625 67.0156 34.1875 67.5 37.5 67.5ZM37.5 33.75C39.125 33.75 40.4688 33.2187 41.5313 32.1562C42.5938 31.0937 43.125 29.75 43.125 28.125C43.125 26.5 42.5938 25.1562 41.5313 24.0937C40.4688 23.0312 39.125 22.5 37.5 22.5C35.875 22.5 34.5313 23.0312 33.4688 24.0937C32.4063 25.1562 31.875 26.5 31.875 28.125C31.875 29.75 32.4063 31.0937 33.4688 32.1562C34.5313 33.2187 35.875 33.75 37.5 33.75Z" fill="#1269C7"/>
</svg>
