<svg width="75" height="75" viewBox="0 0 75 75" fill="none" xmlns="http://www.w3.org/2000/svg">
<path d="M3.125 65.625L37.5 6.25L71.875 65.625H3.125ZM13.9062 59.375H61.0938L37.5 18.75L13.9062 59.375ZM37.5 56.25C38.3854 56.25 39.1276 55.9505 39.7266 55.3516C40.3255 54.7526 40.625 54.0104 40.625 53.125C40.625 52.2396 40.3255 51.4974 39.7266 50.8984C39.1276 50.2995 38.3854 50 37.5 50C36.6146 50 35.8724 50.2995 35.2734 50.8984C34.6745 51.4974 34.375 52.2396 34.375 53.125C34.375 54.0104 34.6745 54.7526 35.2734 55.3516C35.8724 55.9505 36.6146 56.25 37.5 56.25ZM34.375 46.875H40.625V31.25H34.375V46.875Z" fill="#1269C7"/>
</svg>
